<svg width="260" height="180" viewBox="0 0 260 180" fill="none" xmlns="http://www.w3.org/2000/svg">
<path d="M210.44 139.36H48.1499C47.8847 139.36 47.6303 139.255 47.4428 139.067C47.2553 138.88 47.1499 138.625 47.1499 138.36C47.1499 138.095 47.2553 137.841 47.4428 137.653C47.6303 137.465 47.8847 137.36 48.1499 137.36H210.44C210.705 137.36 210.959 137.465 211.147 137.653C211.335 137.841 211.44 138.095 211.44 138.36C211.44 138.625 211.335 138.88 211.147 139.067C210.959 139.255 210.705 139.36 210.44 139.36Z" fill="#E2EAF2"/>
<path d="M87.8601 61.18C87.8502 61.4 87.7757 61.6122 87.6459 61.7901C87.516 61.968 87.3366 62.1036 87.1301 62.18C86.014 62.6079 85.0008 63.2664 84.1564 64.1125C83.3121 64.9585 82.6557 65.9731 82.2301 67.09C82.1515 67.2951 82.0152 67.4731 81.8378 67.6026C81.6604 67.7321 81.4494 67.8076 81.2301 67.82C81.0101 67.8102 80.7979 67.7356 80.6201 67.6058C80.4422 67.476 80.3066 67.2966 80.2301 67.09C79.8045 65.9731 79.1481 64.9585 78.3038 64.1125C77.4594 63.2664 76.4462 62.6079 75.3301 62.18C75.1247 62.1031 74.9467 61.9671 74.8186 61.7891C74.6905 61.6112 74.6179 61.3992 74.6101 61.18C74.6179 60.9609 74.6905 60.7489 74.8186 60.571C74.9467 60.393 75.1247 60.257 75.3301 60.18C76.4458 59.7544 77.4591 59.0978 78.3035 58.2534C79.1479 57.409 79.8044 56.3958 80.2301 55.28C80.3066 55.0735 80.4422 54.8941 80.6201 54.7643C80.7979 54.6345 81.0101 54.5599 81.2301 54.55C81.4494 54.5625 81.6604 54.638 81.8378 54.7675C82.0152 54.897 82.1515 55.075 82.2301 55.28C82.6558 56.3958 83.3123 57.409 84.1567 58.2534C85.0012 59.0978 86.0144 59.7544 87.1301 60.18C87.3366 60.2565 87.516 60.3921 87.6459 60.57C87.7757 60.7479 87.8502 60.9601 87.8601 61.18Z" fill="#0D1019"/>
<path d="M98.0001 49.69C97.9981 49.8654 97.9438 50.0363 97.844 50.1807C97.7442 50.325 97.6036 50.4362 97.4401 50.5C96.5646 50.8316 95.7695 51.3454 95.1075 52.0074C94.4455 52.6694 93.9317 53.4645 93.6001 54.34C93.5363 54.5035 93.4251 54.6441 93.2808 54.7439C93.1364 54.8437 92.9656 54.898 92.7901 54.9C92.616 54.8974 92.4467 54.8427 92.3041 54.7428C92.1615 54.643 92.0521 54.5027 91.9901 54.34C91.659 53.4658 91.1465 52.6716 90.4864 52.0098C89.8262 51.3479 89.0334 50.8334 88.1601 50.5C87.994 50.439 87.8504 50.3287 87.7486 50.184C87.6467 50.0393 87.5914 49.867 87.5901 49.69C87.5921 49.5144 87.6477 49.3436 87.7496 49.2006C87.8515 49.0576 87.9948 48.9492 88.1601 48.89C89.034 48.5583 89.8278 48.0457 90.4896 47.3856C91.1514 46.7255 91.6662 45.933 92.0001 45.06C92.0593 44.8947 92.1677 44.7514 92.3107 44.6495C92.4537 44.5476 92.6245 44.492 92.8001 44.49C92.9771 44.4913 93.1494 44.5466 93.2941 44.6485C93.4388 44.7503 93.5491 44.8939 93.6101 45.06C93.9435 45.9333 94.458 46.7261 95.1199 47.3863C95.7817 48.0464 96.5759 48.5589 97.4501 48.89C97.6109 48.9536 97.7491 49.0636 97.8471 49.2061C97.945 49.3486 97.9983 49.5171 98.0001 49.69Z" fill="#0D1019"/>
<path d="M82.2301 44.4899C82.2273 44.6177 82.1869 44.7418 82.114 44.8467C82.0411 44.9516 81.9389 45.0327 81.8201 45.0799C81.1779 45.3303 80.5953 45.7124 80.1096 46.2015C79.6239 46.6906 79.246 47.276 79.0001 47.9199C78.9539 48.0421 78.8719 48.1475 78.7649 48.2224C78.6578 48.2974 78.5307 48.3383 78.4001 48.3399C78.2712 48.3363 78.1462 48.2945 78.0412 48.2197C77.9361 48.1449 77.8557 48.0405 77.8101 47.9199C77.5653 47.2769 77.1889 46.6922 76.705 46.2031C76.2211 45.7141 75.6404 45.3315 75.0001 45.0799C74.8813 45.0327 74.7791 44.9516 74.7062 44.8467C74.6332 44.7418 74.5929 44.6177 74.5901 44.4899C74.5909 44.3604 74.6304 44.2341 74.7034 44.1272C74.7765 44.0203 74.8798 43.9377 75.0001 43.8899C75.6456 43.644 76.2321 43.2649 76.7214 42.7773C77.2107 42.2897 77.5919 41.7045 77.8401 41.0599C77.8857 40.9393 77.9661 40.8349 78.0712 40.7601C78.1762 40.6853 78.3012 40.6435 78.4301 40.6399C78.5607 40.6415 78.6878 40.6824 78.7949 40.7573C78.9019 40.8323 78.9839 40.9377 79.0301 41.0599C79.2783 41.7045 79.6594 42.2897 80.1488 42.7773C80.6381 43.2649 81.2246 43.644 81.8701 43.8899C81.9811 43.9452 82.0739 44.031 82.1377 44.1373C82.2015 44.2436 82.2336 44.366 82.2301 44.4899Z" fill="#0D1019"/>
<path d="M175.08 63.3599C174.824 63.6117 174.622 63.9122 174.484 64.2438C174.347 64.5753 174.277 64.931 174.28 65.2899C174.285 66.0088 174.574 66.6965 175.083 67.2039C175.592 67.7113 176.281 67.9973 177 67.9999H191.42H205.06C205.072 69.1767 204.851 70.3442 204.409 71.435C203.967 72.5257 203.313 73.5182 202.486 74.355C201.658 75.1918 200.673 75.8563 199.588 76.3103C198.502 76.7643 197.337 76.9987 196.16 76.9999H177C176.276 76.9999 175.582 77.2875 175.07 77.7995C174.558 78.3115 174.27 79.0059 174.27 79.7299C174.281 80.447 174.573 81.1312 175.084 81.6345C175.594 82.1379 176.283 82.42 177 82.4199H199.2C199.2 84.5854 198.409 86.6763 196.977 88.3003C195.545 89.9243 193.569 90.9695 191.42 91.2399V128.31H185.33C185.33 128.31 186.09 111.12 169.97 111.12C154.17 111.12 153.42 128.31 153.42 128.31H96.8V55.1699C96.8027 54.5077 97.0669 53.8733 97.5352 53.4051C98.0035 52.9368 98.6378 52.6726 99.3 52.6699H212.85C212.847 55.2852 211.81 57.7932 209.965 59.6462C208.119 61.4992 205.615 62.5467 203 62.5599H177C176.279 62.5617 175.589 62.8494 175.08 63.3599Z" fill="#DC2028"/>
<path d="M140.86 65.8299C143.87 65.8279 146.814 66.7193 149.317 68.3912C151.821 70.063 153.772 72.4402 154.923 75.2216C156.075 78.003 156.375 81.0636 155.786 84.0158C155.197 86.968 153.745 89.679 151.614 91.8056C149.484 93.9322 146.77 95.3786 143.816 95.9618C140.863 96.5449 137.803 96.2386 135.024 95.0815C132.245 93.9245 129.871 91.9688 128.205 89.462C126.538 86.9553 125.652 84.0103 125.66 80.9999C125.663 76.9685 127.265 73.1028 130.114 70.2512C132.964 67.3997 136.829 65.7952 140.86 65.7899M140.86 64.1299C137.523 64.1299 134.262 65.1193 131.488 66.973C128.713 68.8267 126.551 71.4614 125.274 74.544C123.997 77.6266 123.663 81.0186 124.314 84.2911C124.965 87.5635 126.572 90.5695 128.931 92.9288C131.29 95.2881 134.296 96.8948 137.569 97.5457C140.841 98.1967 144.233 97.8626 147.316 96.5857C150.398 95.3089 153.033 93.1466 154.887 90.3724C156.741 87.5981 157.73 84.3365 157.73 80.9999C157.73 76.5257 155.953 72.2347 152.789 69.071C149.625 65.9073 145.334 64.1299 140.86 64.1299Z" fill="white"/>
<path d="M150.46 73.8099C153.14 73.8099 154.59 74.4599 154.85 75.1099C155.11 75.7599 154.44 77.3099 152.35 79.1899C146.342 84.0407 138.968 86.8935 131.26 87.3499C128.58 87.3499 127.13 86.6999 126.87 86.0499C126.61 85.3999 127.28 83.8499 129.37 81.9699C135.378 77.1191 142.751 74.2663 150.46 73.8099ZM150.46 72.1399C146.374 72.2881 142.347 73.1652 138.57 74.7299C129.99 78.0799 124.06 83.4199 125.32 86.6499C125.94 88.2299 128.15 89.0199 131.26 89.0199C135.346 88.8717 139.372 87.9946 143.15 86.4299C151.73 83.0799 157.66 77.7399 156.4 74.5099C155.78 72.9299 153.57 72.1399 150.46 72.1399Z" fill="white"/>
<path d="M137.34 66.7199C141.52 66.7199 146.4 71.4699 148.96 78.0099C151.96 85.6199 150.85 93.4499 146.59 95.1199C146.041 95.3292 145.458 95.4343 144.87 95.4299C140.69 95.4299 135.8 90.6899 133.25 84.1499C131.773 80.6065 131.266 76.7341 131.78 72.9299C132.31 69.9299 133.67 67.7999 135.61 67.0399C136.162 66.8265 136.748 66.7179 137.34 66.7199ZM137.34 65.0499C136.542 65.0448 135.751 65.1942 135.01 65.4899C129.81 67.4899 128.33 76.1399 131.69 84.7499C134.58 92.1299 140.08 97.0999 144.87 97.0999C145.667 97.1026 146.457 96.9568 147.2 96.6699C152.39 94.6699 153.88 86.0099 150.51 77.3999C147.63 70.0199 142.12 65.0499 137.34 65.0499Z" fill="white"/>
<path d="M135.052 65.5127L133.515 66.166L146.483 96.674L148.02 96.0206L135.052 65.5127Z" fill="white"/>
<path d="M55.1699 117.62V109.37C55.1699 109.37 54.3699 103.28 61.6199 100.05C68.8699 96.8199 75.16 94.4099 75.16 94.4099L85.6299 75.8799H82.5699C82.5699 75.8799 83 64.8799 96.8 64.8799V124.51H93.5299C93.5299 124.51 92.6699 111.51 77.3899 111.51C62.1099 111.51 61.2999 124.51 61.2999 124.51H56.6199L55.1699 117.62Z" fill="#DC2028"/>
<path d="M77.3899 94.74H95.1399V76.04H87.7299L77.3899 94.74Z" fill="#FAFAFA"/>
<path d="M77.39 138.36C83.5149 138.36 88.48 133.395 88.48 127.27C88.48 121.145 83.5149 116.18 77.39 116.18C71.2652 116.18 66.3 121.145 66.3 127.27C66.3 133.395 71.2652 138.36 77.39 138.36Z" fill="#0D1019"/>
<path d="M192.39 122.94V127.34C192.39 127.605 192.285 127.86 192.097 128.047C191.91 128.235 191.655 128.34 191.39 128.34H183.1C183.1 128 183.1 127.65 183.1 127.34C183.103 125.869 182.87 124.407 182.41 123.01C181.5 120.219 179.731 117.788 177.356 116.064C174.98 114.34 172.12 113.411 169.185 113.411C166.25 113.411 163.39 114.34 161.014 116.064C158.639 117.788 156.87 120.219 155.96 123.01C155.5 124.407 155.267 125.869 155.27 127.34C155.27 127.69 155.27 128.04 155.27 128.34H91.26C91.26 128 91.26 127.65 91.26 127.34C91.2634 125.869 91.0304 124.407 90.57 123.01C89.6602 120.219 87.891 117.788 85.5156 116.064C83.1401 114.34 80.2802 113.411 77.345 113.411C74.4098 113.411 71.5498 114.34 69.1744 116.064C66.7989 117.788 65.0297 120.219 64.12 123.01C63.6595 124.407 63.4265 125.869 63.43 127.34C63.43 127.69 63.43 128.04 63.43 128.34H55.23C54.9648 128.34 54.7104 128.235 54.5229 128.047C54.3353 127.86 54.23 127.605 54.23 127.34V117.13C54.23 116.865 54.3353 116.611 54.5229 116.423C54.7104 116.235 54.9648 116.13 55.23 116.13H57.23L60 122.94C60.9607 119.064 63.1916 115.62 66.337 113.159C69.4824 110.698 73.3612 109.361 77.355 109.361C81.3488 109.361 85.2276 110.698 88.373 113.159C91.5184 115.62 93.7493 119.064 94.71 122.94H151.88C152.841 119.064 155.072 115.62 158.217 113.159C161.362 110.698 165.241 109.361 169.235 109.361C173.229 109.361 177.108 110.698 180.253 113.159C183.398 115.62 185.629 119.064 186.59 122.94H192.39Z" fill="#0D1019"/>
<path d="M168.82 138.36C174.945 138.36 179.91 133.395 179.91 127.27C179.91 121.145 174.945 116.18 168.82 116.18C162.695 116.18 157.73 121.145 157.73 127.27C157.73 133.395 162.695 138.36 168.82 138.36Z" fill="#0D1019"/>
</svg>
