<svg width="260" height="180" viewBox="0 0 260 180" fill="none" xmlns="http://www.w3.org/2000/svg">
<path d="M78.7398 114.63C84.4898 128.78 101.07 139.17 122.74 130.63C144.41 122.09 151.74 132.25 155.13 141.63C158.52 151.01 181.22 155.85 190 122.13C198.78 88.41 172.79 65.47 157.76 63.74C142.73 62.01 138.68 68.25 131.16 77.32C123.64 86.39 111.8 88.5 97.9998 86C84.1998 83.5 72.8898 100.25 78.7398 114.63Z" fill="#E2EAF2"/>
<path d="M113.18 119.87C113.33 127.18 109.67 150.03 109.67 150.03C109.67 150.03 113.18 157.19 126.43 156.43C139.68 155.67 142 150 142 150C142 150 140.78 136.9 140.63 132.48C140.48 128.06 139.78 127.06 141.27 124.48C142.76 121.9 146.53 101.22 146.53 101.22L153.81 92.2999C153.81 92.2999 154.68 88.7299 151.89 88.4199C149.1 88.1099 144.11 92.2999 140.98 95.6499C140.98 95.6499 137.98 95.6499 142.3 91.6499C147.99 86.3999 152.79 86.2599 152.95 80.4599C153.1 75.0399 146.14 78.84 142.77 80.83C141.27 81.7199 140.18 80.3499 142.77 78.3199C145.36 76.2899 143.9 77.4299 146.7 74.2399C149.5 71.0499 149.7 67.7699 147.55 66.3899C145.4 65.0099 141.89 69.5199 138.79 72.3899C136.36 74.6699 138.88 73.5199 141.89 68.3899C144.9 63.2599 146.03 62.0599 145.2 58.5199C144.37 54.9799 142.05 53.3099 138.29 59.6499C134.53 65.9899 120.37 83.6499 114.88 88.6499C109.39 93.6499 113.18 119.87 113.18 119.87Z" fill="#EAA88E"/>
<path d="M136.081 48.2657L106.383 56.7646C104.801 57.2174 103.885 58.8672 104.338 60.4495L121.184 119.316C121.637 120.899 123.287 121.814 124.869 121.361L154.567 112.863C156.149 112.41 157.065 110.76 156.612 109.178L139.766 50.3108C139.313 48.7285 137.663 47.8129 136.081 48.2657Z" fill="#DC2028"/>
<path d="M135.36 46.59L106.08 55C105.568 55.1426 105.089 55.3858 104.672 55.7156C104.255 56.0454 103.907 56.455 103.65 56.9206C103.393 57.3862 103.232 57.8983 103.175 58.427C103.118 58.9558 103.168 59.4906 103.32 60L120.53 120.13C120.673 120.642 120.916 121.121 121.246 121.538C121.575 121.955 121.985 122.303 122.451 122.56C122.916 122.817 123.428 122.978 123.957 123.035C124.486 123.092 125.021 123.042 125.53 122.89L154.81 114.51C155.322 114.367 155.801 114.124 156.218 113.794C156.636 113.465 156.983 113.055 157.24 112.589C157.497 112.124 157.658 111.612 157.715 111.083C157.772 110.554 157.723 110.02 157.57 109.51L140.34 49.36C140.198 48.849 139.957 48.3713 139.629 47.9546C139.301 47.5379 138.893 47.1906 138.43 46.9328C137.966 46.6751 137.456 46.512 136.929 46.4532C136.402 46.3943 135.869 46.4408 135.36 46.59ZM155.53 108.77C155.663 109.234 155.702 109.719 155.647 110.198C155.591 110.677 155.442 111.14 155.207 111.561C154.971 111.982 154.656 112.352 154.277 112.651C153.898 112.949 153.464 113.17 153 113.3L126.39 120.92C125.928 121.053 125.444 121.093 124.966 121.039C124.488 120.985 124.026 120.837 123.605 120.604C123.184 120.371 122.814 120.057 122.514 119.681C122.215 119.304 121.993 118.872 121.86 118.41L105.49 61.18C105.357 60.7178 105.317 60.2339 105.371 59.7559C105.425 59.278 105.573 58.8155 105.806 58.3948C106.039 57.9741 106.353 57.6034 106.73 57.304C107.106 57.0047 107.538 56.7824 108 56.65L111.29 55.7L113.07 57.05C113.508 57.3859 114.018 57.6143 114.56 57.7168C115.102 57.8193 115.66 57.793 116.19 57.64L128.71 54.06C129.242 53.9085 129.731 53.6341 130.138 53.2589C130.544 52.8837 130.857 52.4182 131.05 51.9L131.84 49.82L134.62 49.03C135.554 48.7644 136.554 48.8793 137.403 49.3497C138.252 49.8201 138.88 50.6077 139.15 51.54L155.53 108.77Z" fill="#0D1019"/>
<path d="M114.93 75.85C115.797 75.85 116.5 75.147 116.5 74.28C116.5 73.4129 115.797 72.71 114.93 72.71C114.063 72.71 113.36 73.4129 113.36 74.28C113.36 75.147 114.063 75.85 114.93 75.85Z" fill="#E2EAF2"/>
<path d="M110.93 62.0601C111.897 62.0601 112.68 61.2766 112.68 60.3101C112.68 59.3436 111.897 58.5601 110.93 58.5601C109.964 58.5601 109.18 59.3436 109.18 60.3101C109.18 61.2766 109.964 62.0601 110.93 62.0601Z" fill="#FAFAFA"/>
<path d="M130.85 62.4299L119.08 65.8627C117.686 66.2694 116.885 67.7295 117.292 69.1239L117.295 69.1335C117.702 70.5279 119.162 71.3286 120.556 70.9219L132.326 67.4891C133.72 67.0824 134.521 65.6223 134.114 64.2279L134.111 64.2183C133.705 62.8239 132.244 62.0232 130.85 62.4299Z" fill="#FAFAFA"/>
<path d="M119.48 70.9401L119.82 72.8901L122.41 70.1001L119.48 70.9401Z" fill="#FAFAFA"/>
<path d="M120.63 70.2C120.532 70.2065 120.435 70.1758 120.358 70.1139C120.282 70.0519 120.232 69.9634 120.218 69.866C120.204 69.7686 120.227 69.6695 120.283 69.5887C120.339 69.5078 120.424 69.4511 120.52 69.43L129.69 66.81C129.74 66.7947 129.792 66.7897 129.844 66.7951C129.896 66.8005 129.946 66.8162 129.992 66.8414C130.038 66.8666 130.078 66.9007 130.11 66.9416C130.143 66.9826 130.166 67.0296 130.18 67.08C130.208 67.1794 130.195 67.2858 130.144 67.3758C130.094 67.4657 130.009 67.532 129.91 67.56L120.74 70.19L120.63 70.2Z" fill="#A365C9"/>
<path d="M122.42 102.01C123.287 102.01 123.99 101.307 123.99 100.44C123.99 99.573 123.287 98.8701 122.42 98.8701C121.553 98.8701 120.85 99.573 120.85 100.44C120.85 101.307 121.553 102.01 122.42 102.01Z" fill="#FAFAFA"/>
<path d="M131.903 92.8275L126.913 94.2554C125.952 94.5305 125.396 95.5325 125.671 96.4936C125.946 97.4546 126.948 98.0107 127.909 97.7357L132.899 96.3078C133.86 96.0327 134.416 95.0307 134.141 94.0696C133.866 93.1086 132.864 92.5524 131.903 92.8275Z" fill="#FAFAFA"/>
<path d="M126.97 97.09L127.3 99.04L129.9 96.25L126.97 97.09Z" fill="#FAFAFA"/>
<path d="M127.41 96.9301C127.324 96.9275 127.241 96.8982 127.173 96.8462C127.105 96.7941 127.055 96.7221 127.03 96.6401C127.015 96.5908 127.01 96.539 127.015 96.4878C127.021 96.4366 127.037 96.387 127.062 96.3421C127.087 96.2972 127.121 96.258 127.162 96.2267C127.203 96.1954 127.25 96.1727 127.3 96.1601L130.66 95.1601C130.71 95.1448 130.762 95.1398 130.814 95.1452C130.866 95.1506 130.916 95.1663 130.962 95.1915C131.008 95.2167 131.048 95.2508 131.08 95.2917C131.112 95.3327 131.136 95.3797 131.15 95.4301C131.178 95.5308 131.165 95.6385 131.115 95.7301C131.064 95.8217 130.98 95.8899 130.88 95.9201L127.52 96.9201L127.41 96.9301Z" fill="#A365C9"/>
<path d="M138.45 108C137.97 107.998 137.503 107.84 137.12 107.55C136.738 107.259 136.46 106.852 136.33 106.39C136.25 106.112 136.227 105.822 136.261 105.535C136.296 105.248 136.387 104.971 136.53 104.72C136.824 104.228 137.297 103.87 137.85 103.72L142.85 102.3C143.304 102.17 143.787 102.19 144.229 102.357C144.671 102.523 145.047 102.827 145.303 103.224C145.558 103.621 145.68 104.09 145.648 104.561C145.617 105.032 145.435 105.48 145.13 105.84L145.52 106.79C145.546 106.858 145.553 106.932 145.541 107.004C145.528 107.077 145.497 107.144 145.45 107.2C145.402 107.257 145.339 107.298 145.268 107.32C145.197 107.341 145.121 107.341 145.05 107.32L143.12 106.8L139.07 107.96C138.866 108 138.657 108.013 138.45 108ZM143.45 103C143.314 103 143.18 103.021 143.05 103.06L138.05 104.48C137.872 104.529 137.706 104.614 137.561 104.729C137.417 104.844 137.298 104.987 137.21 105.15C137.118 105.312 137.059 105.491 137.037 105.677C137.014 105.862 137.029 106.05 137.08 106.23C137.183 106.595 137.425 106.904 137.755 107.091C138.084 107.279 138.474 107.328 138.84 107.23L143 106C143.072 105.98 143.148 105.98 143.22 106L144.47 106.34L144.29 105.89C144.262 105.815 144.256 105.733 144.274 105.655C144.292 105.577 144.332 105.505 144.39 105.45C144.602 105.259 144.752 105.009 144.819 104.732C144.886 104.454 144.868 104.163 144.766 103.897C144.664 103.63 144.484 103.401 144.249 103.239C144.014 103.077 143.735 102.99 143.45 102.99V103Z" fill="#FAFAFA"/>
<path d="M140.18 106C140.082 106.007 139.985 105.976 139.908 105.914C139.832 105.852 139.782 105.764 139.768 105.666C139.754 105.569 139.777 105.47 139.833 105.389C139.889 105.308 139.974 105.251 140.07 105.23L143.44 104.23C143.539 104.202 143.646 104.215 143.736 104.266C143.826 104.317 143.892 104.401 143.92 104.5C143.948 104.601 143.935 104.709 143.885 104.8C143.834 104.892 143.75 104.96 143.65 104.99L140.29 105.99L140.18 106Z" fill="#FAFAFA"/>
<path d="M125.21 85.2099C124.45 85.2673 123.696 85.0329 123.102 84.5545C122.508 84.0761 122.119 83.3895 122.013 82.6343C121.908 81.8791 122.093 81.112 122.533 80.4889C122.973 79.8658 123.633 79.4335 124.38 79.2799L136.16 75.9099C136.433 75.8295 136.716 75.7891 137 75.7899C137.632 75.7748 138.252 75.9594 138.772 76.3174C139.293 76.6754 139.687 77.1886 139.898 77.7837C140.11 78.3789 140.128 79.0257 139.951 79.6319C139.774 80.2381 139.409 80.7729 138.91 81.1599L139.26 81.9899C139.286 82.0583 139.293 82.1324 139.281 82.2045C139.269 82.2765 139.237 82.344 139.19 82.3999C139.141 82.4548 139.078 82.4951 139.007 82.5163C138.936 82.5374 138.861 82.5387 138.79 82.5199L136.86 81.9999L126.05 85.0899C125.777 85.1703 125.494 85.2107 125.21 85.2099ZM137 76.5799C136.791 76.5813 136.583 76.6081 136.38 76.6599L124.6 79.9999C124.03 80.1649 123.549 80.5492 123.262 81.0685C122.975 81.5878 122.906 82.1997 123.07 82.7699C123.201 83.2365 123.481 83.6474 123.868 83.9399C124.254 84.2325 124.725 84.3905 125.21 84.3899C125.419 84.3886 125.627 84.3617 125.83 84.3099L136.75 81.1799C136.819 81.1596 136.892 81.1596 136.96 81.1799L138.22 81.5199L138.07 81.1399C138.031 81.0565 138.024 80.9619 138.05 80.8737C138.076 80.7854 138.133 80.7095 138.21 80.6599C138.598 80.3912 138.891 80.0071 139.047 79.5621C139.204 79.1172 139.216 78.6342 139.081 78.182C138.947 77.7299 138.674 77.3316 138.3 77.0439C137.927 76.7562 137.471 76.5938 137 76.5799Z" fill="#FAFAFA"/>
<path d="M125.5 83.38C125.416 83.3807 125.334 83.3537 125.267 83.303C125.201 83.2523 125.152 83.181 125.13 83.1C125.102 83.0005 125.113 82.8939 125.161 82.8026C125.21 82.7112 125.292 82.6422 125.39 82.61L125.64 82.54C125.689 82.5255 125.741 82.5209 125.792 82.5264C125.843 82.5319 125.892 82.5474 125.938 82.572C125.983 82.5966 126.022 82.6299 126.055 82.6698C126.087 82.7098 126.111 82.7557 126.125 82.805C126.14 82.8542 126.144 82.9058 126.139 82.9568C126.133 83.0079 126.118 83.0573 126.093 83.1024C126.068 83.1474 126.035 83.1871 125.995 83.2193C125.955 83.2515 125.909 83.2755 125.86 83.29L125.61 83.37L125.5 83.38Z" fill="#FAFAFA"/>
<path d="M127.62 82.7701C127.522 82.7767 127.425 82.746 127.349 82.684C127.272 82.6221 127.222 82.5335 127.208 82.4361C127.194 82.3387 127.218 82.2397 127.274 82.1588C127.33 82.078 127.414 82.0213 127.51 82.0001L127.76 81.9301C127.861 81.9021 127.969 81.9147 128.06 81.9652C128.152 82.0157 128.22 82.1 128.25 82.2001C128.278 82.2996 128.265 82.4059 128.214 82.4959C128.164 82.5859 128.08 82.6521 127.98 82.6801L127.73 82.7601L127.62 82.7701Z" fill="#FAFAFA"/>
<path d="M129.8 82.16C129.702 82.1666 129.605 82.1358 129.528 82.0739C129.452 82.0119 129.402 81.9234 129.388 81.826C129.374 81.7286 129.397 81.6295 129.453 81.5487C129.509 81.4678 129.594 81.4111 129.69 81.39L129.94 81.32C130.039 81.2923 130.146 81.3051 130.236 81.3558C130.326 81.4064 130.392 81.4906 130.42 81.59C130.448 81.6907 130.435 81.7984 130.385 81.89C130.334 81.9816 130.25 82.0498 130.15 82.08L129.9 82.15L129.8 82.16Z" fill="#FAFAFA"/>
<path d="M132 81.5301C131.915 81.5313 131.832 81.5047 131.763 81.4541C131.694 81.4035 131.644 81.3319 131.62 81.2501C131.592 81.1493 131.605 81.0416 131.655 80.95C131.706 80.8584 131.79 80.7902 131.89 80.7601L132.14 80.6901C132.24 80.6624 132.346 80.6753 132.436 80.7259C132.526 80.7765 132.592 80.8607 132.62 80.9601C132.648 81.0608 132.635 81.1685 132.585 81.2601C132.535 81.3517 132.45 81.4199 132.35 81.4501L132.1 81.5201L132 81.5301Z" fill="#FAFAFA"/>
<path d="M134.45 80.7701C134.352 80.7767 134.255 80.7459 134.178 80.684C134.102 80.622 134.052 80.5335 134.038 80.4361C134.024 80.3387 134.047 80.2397 134.103 80.1588C134.159 80.0779 134.244 80.0212 134.34 80.0001L134.59 79.9301C134.64 79.9148 134.692 79.9098 134.744 79.9152C134.796 79.9206 134.846 79.9363 134.892 79.9615C134.938 79.9867 134.978 80.0208 135.01 80.0617C135.042 80.1027 135.066 80.1498 135.08 80.2001C135.108 80.2995 135.095 80.4059 135.044 80.4959C134.993 80.5859 134.909 80.6521 134.81 80.6801L134.56 80.7601L134.45 80.7701Z" fill="#FAFAFA"/>
<path d="M133 54.5799C132.855 54.4752 132.678 54.4256 132.5 54.4399C132.42 54.4399 132.39 54.4999 132.37 54.5599L132.31 54.6399C132.31 54.6999 132.06 54.6399 131.89 54.5599C131.72 54.4799 131.57 54.3099 131.6 54.2499C131.594 54.2168 131.594 54.183 131.6 54.1499C131.615 54.1241 131.623 54.0948 131.623 54.0649C131.623 54.0351 131.615 54.0058 131.6 53.9799C131.516 53.8202 131.378 53.6959 131.21 53.6299C131.171 53.6131 131.128 53.6045 131.085 53.6045C131.042 53.6045 131 53.6131 130.96 53.6299C130.939 53.6396 130.92 53.6534 130.905 53.6706C130.889 53.6878 130.877 53.708 130.87 53.7299C130.832 53.8423 130.825 53.963 130.849 54.0792C130.874 54.1953 130.929 54.3027 131.01 54.3899C131.185 54.6005 131.403 54.7711 131.65 54.8899C131.881 55.0341 132.14 55.1263 132.41 55.1599C132.518 55.1866 132.632 55.1866 132.74 55.1599C132.859 55.1223 132.964 55.049 133.04 54.9499C133.051 54.9317 133.056 54.911 133.056 54.8899C133.056 54.8689 133.051 54.8482 133.04 54.8299C133.051 54.7877 133.053 54.7438 133.046 54.7008C133.039 54.6578 133.023 54.6167 133 54.5799Z" fill="#FAFAFA"/>
<path d="M135.18 52.4323L134.094 52.7432C133.839 52.8161 133.691 53.0819 133.764 53.3367L134.015 54.2116C134.088 54.4665 134.353 54.6139 134.608 54.541L135.695 54.2301C135.95 54.1572 136.097 53.8914 136.024 53.6366L135.774 52.7617C135.701 52.5068 135.435 52.3593 135.18 52.4323Z" fill="#FAFAFA"/>
<path d="M136.96 53.4701L136.22 53.4201L136.04 52.8101L136.65 52.3701L136.96 53.4701Z" fill="#FAFAFA"/>
<path d="M137.9 53.02C138.121 53.02 138.3 52.8409 138.3 52.62C138.3 52.3991 138.121 52.22 137.9 52.22C137.679 52.22 137.5 52.3991 137.5 52.62C137.5 52.8409 137.679 53.02 137.9 53.02Z" fill="#FAFAFA"/>
<path d="M149.018 109.941L136.673 113.474C135.957 113.679 135.542 114.426 135.747 115.143L135.884 115.624C136.09 116.341 136.837 116.755 137.554 116.55L149.898 113.018C150.615 112.812 151.03 112.065 150.825 111.348L150.687 110.868C150.482 110.151 149.735 109.736 149.018 109.941Z" fill="#FAFAFA"/>
<path d="M148.96 112.5C149.446 112.5 149.84 112.106 149.84 111.62C149.84 111.134 149.446 110.74 148.96 110.74C148.474 110.74 148.08 111.134 148.08 111.62C148.08 112.106 148.474 112.5 148.96 112.5Z" fill="#A365C9"/>
<path d="M125.87 119.8C126.737 119.8 127.44 119.097 127.44 118.23C127.44 117.363 126.737 116.66 125.87 116.66C125.003 116.66 124.3 117.363 124.3 118.23C124.3 119.097 125.003 119.8 125.87 119.8Z" fill="#FAFAFA"/>
<path d="M126.738 117.728L124.834 118.273L124.969 118.744L126.872 118.199L126.738 117.728Z" fill="#A365C9"/>
<path d="M125.82 117.211L125.349 117.346L125.894 119.249L126.365 119.114L125.82 117.211Z" fill="#A365C9"/>
<path d="M131.522 115.076L127.667 116.18L128.506 119.112L132.361 118.009L131.522 115.076Z" fill="#FAFAFA"/>
<path d="M129 118.26L131.72 117.48C131.583 117.239 131.384 117.04 131.142 116.904C130.901 116.768 130.627 116.701 130.35 116.71C129.43 116.82 129 118.26 129 118.26Z" fill="#A365C9"/>
<path d="M129.09 117.06C129.272 117.06 129.42 116.912 129.42 116.73C129.42 116.548 129.272 116.4 129.09 116.4C128.908 116.4 128.76 116.548 128.76 116.73C128.76 116.912 128.908 117.06 129.09 117.06Z" fill="#A365C9"/>
<path d="M133 116.39L132.92 116.09L132.67 116.16L132.61 115.93L132.85 115.86L132.76 115.56L132.52 115.63V115.55C132.493 115.46 132.484 115.364 132.494 115.27C132.504 115.176 132.532 115.085 132.578 115.002C132.623 114.919 132.685 114.846 132.759 114.787C132.834 114.729 132.919 114.685 133.01 114.66C133.193 114.608 133.39 114.63 133.556 114.721C133.723 114.813 133.847 114.967 133.9 115.15L134.18 116.15C134.23 116.334 134.205 116.531 134.112 116.697C134.018 116.863 133.863 116.987 133.68 117.04C133.589 117.066 133.493 117.074 133.399 117.062C133.305 117.051 133.214 117.022 133.131 116.975C133.049 116.929 132.976 116.866 132.917 116.792C132.859 116.717 132.816 116.632 132.79 116.54L133 116.39Z" fill="#FAFAFA"/>
<path d="M134.18 117.12L133.73 117.25L133.28 117.38C133.193 117.408 133.12 117.468 133.075 117.547C133.03 117.627 133.018 117.721 133.04 117.81L133.82 117.59L134.6 117.37C134.574 117.283 134.517 117.209 134.439 117.163C134.361 117.116 134.269 117.101 134.18 117.12Z" fill="#FAFAFA"/>
<path d="M133.734 116.711L133.436 116.796L133.625 117.459L133.923 117.374L133.734 116.711Z" fill="#FAFAFA"/>
<path d="M154.63 110C154.69 110.38 154.4 111 153.5 111.31C153.211 111.435 152.886 111.452 152.586 111.358C152.285 111.265 152.027 111.067 151.86 110.8C152.817 110.67 153.751 110.401 154.63 110Z" fill="#FAFAFA"/>
<path d="M151.83 110.52C151.91 110.04 152.33 109.37 153.03 109.7C153.45 108.97 154.18 109.38 154.48 109.76C153.637 110.138 152.745 110.394 151.83 110.52Z" fill="#FAFAFA"/>
<path d="M114.85 71.28C112.301 76.3801 110.064 81.6297 108.15 87C106.78 90.8 108.45 99.18 109.37 103.14C110.29 107.1 112.57 118.07 113.18 119.9C113.79 121.73 118.05 127.82 129.32 122.34L125.97 120.34C125.97 120.34 126.43 114.09 123.84 109.83C121.25 105.57 118.48 101.14 118.48 101.14C118.48 101.14 117.48 93.07 116.83 91.14C116.18 89.21 117.23 89.01 118.48 83.98C119.73 78.95 118.05 72.34 114.85 71.28Z" fill="#EAA88E"/>
<path d="M137.24 66.4001C139.38 68.2101 141.51 67.3201 143.95 64.2701C146.39 61.2201 146.38 57.8701 145.47 56.3501C144.749 55.323 143.745 54.5274 142.58 54.0601C141.168 55.4189 139.938 56.9551 138.92 58.6301C137.4 61.2201 135.26 64.7301 137.24 66.4001Z" fill="#EAA88E"/>
<path d="M137.34 75.5901C137.238 75.914 137.244 76.2621 137.356 76.5827C137.467 76.9033 137.679 77.1794 137.96 77.3701C140.16 78.8401 143.26 77.6101 145.66 75.2101C148.4 72.4701 149.13 71.7301 148.82 69.1401C148.51 66.5501 147 65.3401 145 66.7101C142.85 68.4327 140.874 70.3619 139.1 72.4701C138.3 73.3745 137.7 74.4377 137.34 75.5901Z" fill="#EAA88E"/>
<path d="M144.29 93.4C145.29 96.3 148.44 94.94 150.34 94.23C152.24 93.52 155.49 92.46 155.04 89.37C154.59 86.28 151.04 87.77 149.2 88.47C147.36 89.17 143.29 90.36 144.29 93.4Z" fill="#EAA88E"/>
<path d="M140.33 83.6299C140.98 86.2099 144.19 86.4899 147.43 85.3999C150.67 84.3099 153.88 83.0899 153.2 79.8099C152.52 76.5299 149.07 76.8099 145.74 78.6399C142.41 80.4699 139.47 80.2199 140.33 83.6299Z" fill="#EAA88E"/>
<path d="M129.56 29.92C129.56 28.22 128.885 26.5896 127.683 25.3875C126.481 24.1853 124.85 23.51 123.15 23.51H106.72C105.02 23.51 103.39 24.1853 102.188 25.3875C100.985 26.5896 100.31 28.22 100.31 29.92C100.31 31.62 100.985 33.2505 102.188 34.4526C103.39 35.6547 105.02 36.33 106.72 36.33H120.2L127 42.91C127.025 42.9309 127.056 42.9436 127.089 42.9464C127.121 42.9492 127.154 42.9419 127.182 42.9256C127.211 42.9092 127.233 42.8846 127.247 42.855C127.261 42.8254 127.266 42.7922 127.26 42.76L125.69 35.82C126.842 35.3241 127.824 34.5005 128.512 33.4515C129.2 32.4025 129.564 31.1745 129.56 29.92Z" fill="#DC2028"/>
<path d="M116.61 28.8501H105.35C105.085 28.8501 104.831 28.7447 104.643 28.5572C104.455 28.3697 104.35 28.1153 104.35 27.8501C104.35 27.5849 104.455 27.3305 104.643 27.143C104.831 26.9555 105.085 26.8501 105.35 26.8501H116.61C116.875 26.8501 117.13 26.9555 117.317 27.143C117.505 27.3305 117.61 27.5849 117.61 27.8501C117.61 28.1153 117.505 28.3697 117.317 28.5572C117.13 28.7447 116.875 28.8501 116.61 28.8501Z" fill="#FAFAFA"/>
<path d="M124.85 32.9999H105.35C105.172 32.9999 105.002 32.9293 104.876 32.8037C104.751 32.678 104.68 32.5076 104.68 32.3299C104.68 32.1522 104.751 31.9818 104.876 31.8562C105.002 31.7305 105.172 31.6599 105.35 31.6599H124.85C125.028 31.6599 125.198 31.7305 125.324 31.8562C125.45 31.9818 125.52 32.1522 125.52 32.3299C125.52 32.5076 125.45 32.678 125.324 32.8037C125.198 32.9293 125.028 32.9999 124.85 32.9999Z" fill="#FAFAFA"/>
<path d="M182.88 29.72H159.32C157.22 29.7251 155.184 30.4495 153.553 31.7726C151.922 33.0957 150.793 34.9376 150.355 36.9917C149.916 39.0458 150.195 41.1881 151.144 43.0618C152.093 44.9356 153.655 46.4278 155.57 47.29L153.39 57C153.379 57.0334 153.38 57.0696 153.393 57.1023C153.406 57.135 153.43 57.1621 153.461 57.1787C153.492 57.1954 153.528 57.2007 153.563 57.1936C153.597 57.1865 153.628 57.1675 153.65 57.14L162.92 48.14H182.92C185.357 48.14 187.695 47.1717 189.418 45.4483C191.142 43.7248 192.11 41.3873 192.11 38.95C192.11 36.5126 191.142 34.1751 189.418 32.4517C187.695 30.7282 185.357 29.76 182.92 29.76L182.88 29.72Z" fill="white"/>
<path d="M183.29 42.4099C185.223 42.4099 186.79 40.8429 186.79 38.9099C186.79 36.9769 185.223 35.4099 183.29 35.4099C181.357 35.4099 179.79 36.9769 179.79 38.9099C179.79 40.8429 181.357 42.4099 183.29 42.4099Z" fill="#DC2028"/>
<path d="M158.91 42.4099C160.843 42.4099 162.41 40.8429 162.41 38.9099C162.41 36.9769 160.843 35.4099 158.91 35.4099C156.977 35.4099 155.41 36.9769 155.41 38.9099C155.41 40.8429 156.977 42.4099 158.91 42.4099Z" fill="#141414"/>
<path d="M171.1 42.4099C173.033 42.4099 174.6 40.8429 174.6 38.9099C174.6 36.9769 173.033 35.4099 171.1 35.4099C169.167 35.4099 167.6 36.9769 167.6 38.9099C167.6 40.8429 169.167 42.4099 171.1 42.4099Z" fill="#DC2028"/>
<path d="M93.7099 62.7701C94.9909 61.971 95.9469 60.7435 96.4081 59.306C96.8693 57.8684 96.8057 56.3138 96.2287 54.9187C95.6517 53.5236 94.5986 52.3783 93.2568 51.6864C91.9149 50.9945 90.3711 50.801 88.8999 51.1401L72.8999 54.7401C71.2463 55.1127 69.8084 56.127 68.9026 57.5598C67.9968 58.9925 67.6973 60.7265 68.0699 62.3801C68.4426 64.0337 69.4568 65.4716 70.8896 66.3774C72.3224 67.2832 74.0563 67.5827 75.7099 67.2101L88.9299 64.2101L95.9299 68.4601C95.9783 68.4909 96.0354 68.5049 96.0925 68.4998C96.1496 68.4948 96.2034 68.4711 96.2456 68.4323C96.2878 68.3935 96.316 68.3419 96.3258 68.2854C96.3356 68.229 96.3266 68.1709 96.2999 68.1201L93.7099 62.7701Z" fill="#E2EAF2"/>
<path d="M90.5801 59.7501C91.9277 59.7501 93.0201 58.6577 93.0201 57.3101C93.0201 55.9625 91.9277 54.8701 90.5801 54.8701C89.2326 54.8701 88.1401 55.9625 88.1401 57.3101C88.1401 58.6577 89.2326 59.7501 90.5801 59.7501Z" fill="#DC2028"/>
<path d="M82.3199 61.61C83.6675 61.61 84.7599 60.5176 84.7599 59.17C84.7599 57.8224 83.6675 56.73 82.3199 56.73C80.9723 56.73 79.8799 57.8224 79.8799 59.17C79.8799 60.5176 80.9723 61.61 82.3199 61.61Z" fill="#DC2028"/>
<path d="M74.0499 63.4801C75.3974 63.4801 76.4899 62.3877 76.4899 61.0401C76.4899 59.6925 75.3974 58.6001 74.0499 58.6001C72.7023 58.6001 71.6099 59.6925 71.6099 61.0401C71.6099 62.3877 72.7023 63.4801 74.0499 63.4801Z" fill="#0D1019"/>
</svg>
