<svg width="260" height="180" viewBox="0 0 260 180" fill="none" xmlns="http://www.w3.org/2000/svg">
<path d="M163.45 60.6699H147.85C147.683 60.6699 147.523 60.7363 147.404 60.8544C147.286 60.9726 147.22 61.1328 147.22 61.2999V67.4199C147.22 67.5879 147.286 67.7492 147.404 67.869C147.522 67.9887 147.682 68.0573 147.85 68.0599H148.34C148.365 68.2491 148.365 68.4408 148.34 68.6299C148.303 68.9488 148.19 69.254 148.01 69.5199C147.917 69.6754 147.803 69.8168 147.67 69.9399C147.534 70.0776 147.39 70.2077 147.24 70.3299C147.224 70.348 147.216 70.3711 147.216 70.3949C147.216 70.4188 147.224 70.4418 147.24 70.4599C147.263 70.4675 147.287 70.4675 147.31 70.4599C147.51 70.4599 147.73 70.4599 147.94 70.4599C148.165 70.4496 148.39 70.4195 148.61 70.3699C149.095 70.26 149.552 70.0487 149.95 69.7499C150.364 69.4428 150.72 69.0634 151 68.6299C151.073 68.5233 151.143 68.4033 151.21 68.2699C151.239 68.198 151.272 68.1279 151.31 68.0599H163.41C163.578 68.0573 163.738 67.9887 163.856 67.869C163.974 67.7492 164.04 67.5879 164.04 67.4199V61.2999C164.04 61.1395 163.979 60.9851 163.87 60.868C163.76 60.7509 163.61 60.6801 163.45 60.6699Z" fill="#DC2028"/>
<path d="M149.44 63.2199H156.81C156.895 63.2199 156.98 63.2031 157.059 63.1704C157.137 63.1378 157.209 63.0899 157.269 63.0295C157.33 62.9692 157.378 62.8975 157.41 62.8187C157.443 62.7398 157.46 62.6553 157.46 62.5699C157.46 62.3966 157.392 62.2302 157.27 62.1067C157.148 61.9832 156.983 61.9125 156.81 61.9099H149.44C149.266 61.9125 149.099 61.9829 148.976 62.1061C148.853 62.2293 148.782 62.3957 148.78 62.5699C148.782 62.7432 148.853 62.9085 148.977 63.0302C149.1 63.1518 149.266 63.2199 149.44 63.2199Z" fill="#FAFAFA"/>
<path d="M149.22 65.9399H162C162.104 65.9241 162.199 65.8715 162.268 65.7917C162.336 65.7119 162.374 65.6102 162.374 65.5049C162.374 65.3997 162.336 65.298 162.268 65.2182C162.199 65.1383 162.104 65.0858 162 65.0699H149.22C149.157 65.0604 149.093 65.0645 149.032 65.082C148.972 65.0995 148.915 65.1299 148.867 65.1712C148.819 65.2126 148.78 65.2638 148.754 65.3214C148.728 65.3789 148.714 65.4416 148.714 65.5049C148.714 65.5683 148.728 65.6309 148.754 65.6885C148.78 65.7461 148.819 65.7973 148.867 65.8386C148.915 65.8799 148.972 65.9104 149.032 65.9279C149.093 65.9454 149.157 65.9495 149.22 65.9399Z" fill="#FAFAFA"/>
<path d="M174.16 152.77C174.165 154.324 173.873 155.865 173.3 157.31H86.9399C86.2112 155.908 85.8337 154.35 85.8399 152.77C85.8399 150.118 86.8935 147.574 88.7689 145.699C90.6442 143.824 93.1878 142.77 95.8399 142.77C96.0699 142.77 96.3099 142.77 96.5399 142.77C97.6943 140.59 99.422 138.766 101.537 137.495C103.651 136.225 106.073 135.556 108.54 135.56H108.85C108.848 134.468 109.162 133.399 109.754 132.482C110.346 131.564 111.191 130.838 112.187 130.389C113.182 129.941 114.287 129.791 115.366 129.956C116.445 130.121 117.454 130.595 118.27 131.32C122.44 116.39 125.82 83.09 127.2 80.75C127.424 80.4724 127.707 80.2484 128.029 80.0946C128.351 79.9407 128.703 79.8608 129.06 79.8608C129.417 79.8608 129.769 79.9407 130.091 80.0946C130.413 80.2484 130.696 80.4724 130.92 80.75C132.3 83.09 135.69 116.53 139.92 131.41H140.18C141.266 131.407 142.33 131.718 143.243 132.305C144.157 132.893 144.881 133.731 145.33 134.72C146.496 134.117 147.791 133.806 149.103 133.815C150.416 133.823 151.707 134.15 152.865 134.768C154.023 135.386 155.013 136.276 155.751 137.362C156.489 138.447 156.952 139.696 157.1 141C159.003 140.272 161.054 140.018 163.076 140.259C165.099 140.5 167.033 141.229 168.712 142.383C170.39 143.537 171.763 145.082 172.712 146.884C173.661 148.687 174.158 150.693 174.16 152.73V152.77Z" fill="#DC2028"/>
<path d="M152.8 143.55C151.912 144.089 151.14 144.799 150.53 145.64C150.335 143.861 149.443 142.232 148.05 141.11C147.163 140.375 146.109 139.87 144.98 139.64C143.842 139.419 142.669 139.46 141.55 139.76C140.436 140.074 139.414 140.652 138.57 141.443C137.726 142.235 137.084 143.218 136.7 144.31C136.331 145.379 136.221 146.52 136.38 147.64C136.548 148.73 136.985 149.761 137.65 150.64C137.203 149.706 136.962 148.688 136.941 147.653C136.92 146.618 137.121 145.591 137.53 144.64C137.927 143.728 138.521 142.916 139.27 142.262C140.019 141.608 140.904 141.129 141.861 140.859C142.818 140.589 143.823 140.536 144.804 140.702C145.784 140.868 146.715 141.25 147.53 141.82C148.93 142.805 149.931 144.26 150.35 145.92C150.321 145.958 150.294 145.999 150.27 146.04C149.622 147.05 149.218 148.197 149.09 149.39C148.95 150.557 149.123 151.741 149.59 152.82C149.578 151.716 149.702 150.614 149.96 149.54C150.228 148.516 150.656 147.54 151.23 146.65C152.42 144.83 154.131 143.412 156.14 142.58C154.96 142.599 153.807 142.934 152.8 143.55Z" fill="#FAFAFA"/>
<path d="M128.65 132.32C128.002 132.232 127.343 132.282 126.716 132.466C126.088 132.65 125.507 132.965 125.01 133.39C124.574 133.762 124.22 134.221 123.97 134.738C123.72 135.254 123.581 135.817 123.56 136.39C122.079 135.851 120.448 135.907 119.007 136.544C117.566 137.182 116.427 138.352 115.83 139.81C115.545 140.493 115.399 141.225 115.399 141.965C115.399 142.705 115.545 143.437 115.83 144.12C114.925 143.95 113.996 143.95 113.09 144.12C111.953 144.35 110.892 144.858 110 145.6C108.686 146.656 107.812 148.164 107.55 149.83C107.494 149.389 107.397 148.953 107.26 148.53C106.879 147.392 106.238 146.359 105.39 145.51C104.542 144.662 103.508 144.021 102.37 143.64C101.259 143.254 100.065 143.168 98.9102 143.39C101.051 143.78 103.027 144.796 104.59 146.31C105.339 147.06 105.963 147.924 106.44 148.87C106.926 149.857 107.282 150.902 107.5 151.98C107.581 151.592 107.621 151.196 107.62 150.8C107.972 148.98 109.015 147.367 110.53 146.3C111.345 145.732 112.276 145.351 113.256 145.186C114.236 145.021 115.241 145.075 116.197 145.345C117.154 145.615 118.038 146.093 118.788 146.746C119.537 147.399 120.132 148.209 120.53 149.12C120.941 150.07 121.143 151.098 121.122 152.133C121.101 153.168 120.859 154.187 120.41 155.12C121.079 154.242 121.515 153.211 121.68 152.12C121.927 150.402 121.538 148.653 120.586 147.202C119.633 145.751 118.184 144.698 116.51 144.24C116.332 144.193 116.152 144.156 115.97 144.13C115.751 142.761 115.979 141.359 116.62 140.13C117.301 138.866 118.424 137.896 119.774 137.407C121.125 136.919 122.608 136.944 123.94 137.48C125.336 138.055 126.488 139.098 127.2 140.43C127.025 139.629 126.675 138.877 126.175 138.227C125.676 137.577 125.039 137.045 124.31 136.67C124.1 136.56 123.89 136.47 123.67 136.38C124.039 135.432 124.692 134.622 125.54 134.06C126.414 133.5 127.459 133.269 128.487 133.41C129.516 133.551 130.46 134.055 131.15 134.83C131.878 135.667 132.308 136.722 132.37 137.83C132.564 137.237 132.619 136.608 132.531 135.99C132.442 135.373 132.213 134.784 131.86 134.27C131.492 133.737 131.016 133.288 130.463 132.952C129.91 132.616 129.292 132.401 128.65 132.32Z" fill="#FAFAFA"/>
<path d="M147.38 100.51L145.56 95.1V75.24C145.56 65.99 136.44 49.57 128.81 46C121.18 49.57 112.06 66 112.06 75.24V94.17L109.93 100.51H147.38Z" fill="#141414"/>
<path d="M128.81 77.14C133.129 77.14 136.63 73.6389 136.63 69.32C136.63 65.0011 133.129 61.5 128.81 61.5C124.491 61.5 120.99 65.0011 120.99 69.32C120.99 73.6389 124.491 77.14 128.81 77.14Z" fill="#FAFAFA"/>
<path d="M112.5 94.6999H105.5C105.5 94.6999 103.12 83.6999 112.13 77.1399H113.43L112.5 94.6999Z" fill="#141414"/>
<path d="M145.56 94.6999H152.61C152.61 94.6999 155 83.6999 146 77.1399H144.69L145.56 94.6999Z" fill="#141414"/>
<path d="M121.01 40.7799C126.008 40.7799 130.06 36.7281 130.06 31.7299C130.06 26.7318 126.008 22.6799 121.01 22.6799C116.012 22.6799 111.96 26.7318 111.96 31.7299C111.96 36.7281 116.012 40.7799 121.01 40.7799Z" fill="#141414"/>
<path d="M122.81 29.3899L127.93 32.3899L122.81 35.6599V33.5399L124.49 32.5299L122.81 31.5999V29.3899Z" fill="#DC2028"/>
<path d="M119.02 27.8L113.9 30.8L119.02 34.07V31.9501L117.34 30.9401L119.02 30.01V27.8Z" fill="#DC2028"/>
<path d="M121.22 27.8L119.46 35.66H120.69L122.59 27.8H121.22Z" fill="#DC2028"/>
<path d="M165.27 36.3501H148.27C146.668 36.3273 145.112 36.8847 143.888 37.9193C142.665 38.9539 141.857 40.3961 141.613 41.9798C141.369 43.5634 141.706 45.1818 142.562 46.5363C143.418 47.8909 144.735 48.8902 146.27 49.3501C146.303 49.4211 146.329 49.4947 146.35 49.5701C146.488 49.9887 146.535 50.4317 146.49 50.8701C146.431 51.3747 146.253 51.858 145.97 52.2801C145.814 52.5214 145.633 52.746 145.43 52.9501C145.22 53.1701 144.98 53.3501 144.74 53.5601C144.715 53.5892 144.701 53.6265 144.701 53.6651C144.701 53.7037 144.715 53.741 144.74 53.7701C144.769 53.8005 144.808 53.8184 144.85 53.8201C145.17 53.8201 145.51 53.8201 145.85 53.8201C146.999 53.7778 148.108 53.3872 149.03 52.7001C149.722 52.1828 150.312 51.542 150.77 50.8101L151.1 50.2401C151.19 50.0401 151.3 49.8401 151.38 49.6301H165.38C167.098 49.5634 168.723 48.8342 169.915 47.5953C171.106 46.3564 171.772 44.7041 171.772 42.9851C171.772 41.266 171.106 39.6138 169.915 38.3749C168.723 37.136 167.098 36.4067 165.38 36.3401L165.27 36.3501Z" fill="#0A0D16"/>
<path d="M166.62 45.1201C168.017 45.1201 169.15 43.9873 169.15 42.5901C169.15 41.1928 168.017 40.0601 166.62 40.0601C165.223 40.0601 164.09 41.1928 164.09 42.5901C164.09 43.9873 165.223 45.1201 166.62 45.1201Z" fill="#DC2028"/>
<path d="M149 45.1201C150.397 45.1201 151.53 43.9873 151.53 42.5901C151.53 41.1928 150.397 40.0601 149 40.0601C147.603 40.0601 146.47 41.1928 146.47 42.5901C146.47 43.9873 147.603 45.1201 149 45.1201Z" fill="#FAFAFA"/>
<path d="M157.81 45.1201C159.207 45.1201 160.34 43.9873 160.34 42.5901C160.34 41.1928 159.207 40.0601 157.81 40.0601C156.413 40.0601 155.28 41.1928 155.28 42.5901C155.28 43.9873 156.413 45.1201 157.81 45.1201Z" fill="#DC2028"/>
<path d="M111.27 57.1301C111.08 57.0601 110.9 57.0101 110.73 56.9301C110.563 56.8547 110.406 56.7608 110.26 56.6501C109.994 56.4723 109.78 56.2274 109.64 55.9401C109.513 55.6948 109.438 55.4258 109.42 55.1501V54.8801C109.984 54.2227 110.372 53.4327 110.547 52.5843C110.722 51.7359 110.678 50.857 110.42 50.0301C110.023 48.7318 109.127 47.6439 107.93 47.0048C106.732 46.3656 105.33 46.2273 104.03 46.6201L91.5001 50.4201C90.2008 50.8129 89.1106 51.7057 88.4693 52.9021C87.828 54.0984 87.688 55.5005 88.0801 56.8001C88.2746 57.4446 88.5942 58.0444 89.0208 58.5652C89.4473 59.086 89.9723 59.5176 90.5659 59.8353C91.1594 60.1529 91.8097 60.3504 92.4797 60.4165C93.1496 60.4825 93.826 60.4158 94.4701 60.2201L106.69 56.5101L106.8 56.6201L107.12 56.8901C107.553 57.219 108.045 57.4601 108.57 57.6001C109.047 57.7411 109.549 57.7753 110.04 57.7001C110.26 57.6677 110.478 57.6175 110.69 57.5501C110.888 57.4765 111.081 57.3931 111.27 57.3001C111.27 57.3001 111.27 57.3001 111.27 57.2401C111.282 57.2243 111.289 57.205 111.289 57.1851C111.289 57.1652 111.282 57.1458 111.27 57.1301Z" fill="#141414"/>
<path d="M92.6702 57.0399C93.7472 57.0399 94.6202 56.1668 94.6202 55.0899C94.6202 54.0129 93.7472 53.1399 92.6702 53.1399C91.5933 53.1399 90.7202 54.0129 90.7202 55.0899C90.7202 56.1668 91.5933 57.0399 92.6702 57.0399Z" fill="#DC2028"/>
<path d="M105.68 53.0999C106.757 53.0999 107.63 52.2269 107.63 51.15C107.63 50.073 106.757 49.2 105.68 49.2C104.603 49.2 103.73 50.073 103.73 51.15C103.73 52.2269 104.603 53.0999 105.68 53.0999Z" fill="#FAFAFA"/>
<path d="M99.18 55.0699C100.257 55.0699 101.13 54.1969 101.13 53.1199C101.13 52.043 100.257 51.1699 99.18 51.1699C98.103 51.1699 97.23 52.043 97.23 53.1199C97.23 54.1969 98.103 55.0699 99.18 55.0699Z" fill="#DC2028"/>
</svg>
