<?xml version="1.0" encoding="iso-8859-1"?>
<!-- Uploaded to: SVG Repo, www.svgrepo.com, Generator: SVG Repo Mixer Tools -->
<!DOCTYPE svg PUBLIC "-//W3C//DTD SVG 1.1//EN" "http://www.w3.org/Graphics/SVG/1.1/DTD/svg11.dtd">
<svg fill="#000000" height="800px" width="800px" version="1.1" id="Capa_1" xmlns="http://www.w3.org/2000/svg" xmlns:xlink="http://www.w3.org/1999/xlink" 
	 viewBox="0 0 370 370" xml:space="preserve">
<g>
	<path d="M355,111.82H245c-3.988,0-7.813,1.589-10.628,4.415l-72.406,72.699c-17.294,17.296-17.54,45.284-0.737,62.885H85
		c-24.814,0-45,20.187-45,45c0,24.813,20.187,45,45,45h130c3.403,0,6.542-1.134,9.059-3.044c0.544-0.412,1.061-0.863,1.55-1.352
		l105.604-105.603H355c8.284,0,15-6.716,15-15V126.82C370,118.536,363.285,111.82,355,111.82z M340,201.821h-15
		c-3.978,0-7.794,1.58-10.606,4.393L208.787,311.819H85c-8.272,0-15-6.729-15-15c0-8.271,6.728-15,15-15h105.148
		c3.979,0,7.794-1.58,10.606-4.393l24.686-24.686c0.006-0.006,0.013-0.012,0.019-0.019l25.294-25.295l0.001,0
		c5.857-5.858,5.857-15.355-0.001-21.213c-5.857-5.857-15.355-5.857-21.213,0.001l-25.254,25.254
		c-2.818,2.765-6.546,4.287-10.5,4.287c-4.007,0-7.773-1.56-10.605-4.392c-5.849-5.849-5.849-15.367,0.02-21.237l68.03-68.305H340
		V201.821z"/>
	<path d="M80,162.647l33.194,17.45c2.194,1.153,4.591,1.723,6.978,1.723c0.015,0,0.029,0,0.044,0
		c8.274-0.012,14.978-6.723,14.978-15c0-1.152-0.13-2.274-0.375-3.351l-6.201-36.147l26.853-26.174
		c4.089-3.986,5.561-9.947,3.796-15.377c-1.765-5.43-6.459-9.388-12.109-10.209l-37.11-5.392L93.452,36.543
		c-2.526-5.12-7.741-8.362-13.451-8.362c-5.71,0-10.925,3.242-13.451,8.362L49.954,70.171l-37.11,5.392
		c-5.65,0.821-10.345,4.779-12.109,10.209c-1.765,5.43-0.293,11.391,3.796,15.377l26.852,26.174l-6.341,36.961
		c-0.965,5.627,1.348,11.315,5.967,14.671c4.618,3.356,10.742,3.799,15.797,1.143L80,162.647z M62.072,98.725
		c4.887-0.71,9.11-3.779,11.295-8.206L80,77.076l6.634,13.443c2.185,4.427,6.408,7.496,11.295,8.206l14.836,2.155l-10.734,10.463
		c-3.536,3.446-5.149,8.412-4.314,13.278l2.535,14.779l-13.271-6.977c-2.185-1.148-4.582-1.723-6.979-1.723
		c-2.398,0-4.795,0.574-6.98,1.723L59.749,139.4l2.535-14.779c0.835-4.866-0.778-9.831-4.314-13.278l-10.734-10.463L62.072,98.725z"
		/>
</g>
</svg>