<svg xmlns="http://www.w3.org/2000/svg" width="25" height="25" viewBox="0 0 25 25" fill="none">
  <g clip-path="url(#clip0_256_579)">
    <path d="M24.6862 1.79004L5.40503 21.0659C5.82187 21.2691 6.27906 21.3759 6.74275 21.3783H10.0449C10.3212 21.3775 10.5862 21.4874 10.7809 21.6833L12.5705 23.4718C13.541 24.449 14.8609 24.999 16.2381 25.0001C16.8067 24.9995 17.3714 24.9063 17.91 24.7242C19.7668 24.1154 21.1173 22.5058 21.3943 20.5715L24.912 3.86277C25.08 3.16655 25.0001 2.43365 24.6862 1.79004Z" fill="#DC2028"/>
    <path d="M21.1674 0.0806275L4.49932 3.59209C1.65133 3.98336 -0.34025 6.60932 0.0510185 9.45731C0.205564 10.582 0.723563 11.6254 1.52611 12.4284L3.31463 14.2169C3.51012 14.4124 3.61987 14.6776 3.61967 14.954V18.2562C3.62206 18.7199 3.72884 19.1771 3.93198 19.5939L23.2099 0.312812C22.5764 0.00147589 21.8546 -0.0805549 21.1674 0.0806275Z" fill="#DC2028"/>
  </g>
  <defs>
    <clipPath id="clip0_256_579">
      <rect width="25" height="25" fill="white"/>
    </clipPath>
  </defs>
</svg>
