<svg xmlns="http://www.w3.org/2000/svg" width="21" height="25" viewBox="0 0 21 25" fill="none">
  <path d="M10.4999 0.0437012C7.74359 0.0467336 5.10102 1.14295 3.15192 3.09186C1.20281 5.04077 0.106336 7.68322 0.103027 10.4395C0.103027 13.1166 2.17594 17.3062 6.26449 22.8916C6.75121 23.5584 7.3885 24.1009 8.12449 24.4749C8.86047 24.8488 9.67436 25.0437 10.4999 25.0437C11.3254 25.0437 12.1393 24.8488 12.8753 24.4749C13.6113 24.1009 14.2486 23.5584 14.7353 22.8916C18.8239 17.3062 20.8968 13.1166 20.8968 10.4395C20.8935 7.68322 19.797 5.04077 17.8479 3.09186C15.8988 1.14295 13.2562 0.0467336 10.4999 0.0437012ZM10.4999 14.5833C9.67581 14.5833 8.87023 14.3389 8.18503 13.8811C7.49982 13.4232 6.96577 12.7725 6.6504 12.0111C6.33504 11.2498 6.25253 10.412 6.4133 9.60374C6.57407 8.79549 6.97091 8.05306 7.55362 7.47034C8.13634 6.88762 8.87877 6.49079 9.68703 6.33001C10.4953 6.16924 11.3331 6.25176 12.0944 6.56712C12.8558 6.88249 13.5065 7.41654 13.9644 8.10174C14.4222 8.78695 14.6666 9.59253 14.6666 10.4166C14.6666 11.5217 14.2276 12.5815 13.4462 13.3629C12.6648 14.1443 11.605 14.5833 10.4999 14.5833Z" fill="#DC2028"/>
</svg>
