<svg xmlns="http://www.w3.org/2000/svg" width="25" height="27" viewBox="0 0 25 27" fill="none">
  <g clip-path="url(#clip0_159_1826)">
    <path d="M0 6.83107C0 15.1847 10.5504 26.25 18.497 26.25C20.2363 26.25 21.8611 25.5612 23.0588 24.3037L24.1003 23.0463C25.3084 21.778 25.3084 19.6349 24.0482 18.3119C24.017 18.2791 21.507 16.2562 21.507 16.2562C20.2572 15.0098 18.2887 15.0098 17.0493 16.2562L15.5288 17.5355C12.196 16.0485 9.83176 13.5555 8.31117 9.93635L9.51931 8.33997C10.717 7.03882 10.717 4.96134 9.51931 3.66018C9.51931 3.66018 7.59253 1.02507 7.56129 0.992268C6.30107 -0.330756 4.25973 -0.330756 2.99952 0.992268L1.90594 1.98727C0.656145 3.28843 0 4.99414 0 6.82013V6.83107Z" fill="#DC2028"/>
  </g>
  <defs>
    <clipPath id="clip0_159_1826">
      <rect width="25" height="27" fill="white"/>
    </clipPath>
  </defs>
</svg>
