<svg width="197" height="136" viewBox="0 0 197 136" fill="none" xmlns="http://www.w3.org/2000/svg">
<path d="M103.183 66.3226L100.819 64.9778C99.3389 64.1269 98.2577 62.726 97.8118 61.0818C97.3659 59.4377 97.5915 57.6843 98.4394 56.2058L109.108 37.6644C109.96 36.1874 111.364 35.108 113.014 34.6631C114.663 34.2183 116.422 34.4445 117.905 35.292L120.269 36.6444L119.185 38.5333L116.821 37.1809C115.842 36.6223 114.681 36.4733 113.591 36.7664C112.502 37.0595 111.574 37.7709 111.01 38.7449L100.341 57.2862C100.062 57.7692 99.8808 58.3025 99.8084 58.8554C99.7361 59.4083 99.7738 59.97 99.9195 60.5083C100.065 61.0466 100.316 61.551 100.658 61.9925C100.999 62.434 101.425 62.804 101.91 63.0813L104.274 64.4338L103.183 66.3226Z" fill="#141414"/>
<path d="M130.861 82.1742L128.497 80.8445L129.588 78.948L131.952 80.308C132.932 80.8659 134.094 81.0138 135.183 80.7193C136.273 80.4247 137.2 79.7117 137.764 78.7365L148.44 60.1951C148.999 59.2178 149.147 58.0591 148.852 56.973C148.557 55.8868 147.842 54.9616 146.864 54.4L144.5 53.0476L145.591 51.1587L147.955 52.5111C149.434 53.362 150.515 54.7629 150.961 56.4071C151.407 58.0512 151.182 59.8046 150.334 61.2831L139.658 79.8245C138.801 81.2961 137.394 82.3694 135.746 82.8098C134.097 83.2501 132.341 83.0216 130.861 82.1742Z" fill="#141414"/>
<path d="M142.978 57.1787L116.359 41.9397C115.47 41.4307 114.335 41.7368 113.825 42.6234L105.114 57.7532C104.604 58.6398 104.911 59.7712 105.8 60.2802L132.419 75.5191C133.308 76.0282 134.443 75.722 134.953 74.8354L143.664 59.7057C144.174 58.819 143.867 57.6877 142.978 57.1787Z" fill="#141414"/>
<path d="M110.623 58.888L131.21 70.7351C131.507 67.6848 131.507 64.6129 131.21 61.5627C130.709 56.7649 130.558 55.4124 126.883 56.6516C124.814 57.328 122.806 58.1798 120.882 59.1978C120.612 57.9868 120.26 56.7953 119.829 55.6315C119.177 54.0298 110.623 58.888 110.623 58.888Z" fill="#EDEDED"/>
<path d="M121.019 53.7275C122.316 53.7275 123.367 52.6789 123.367 51.3853C123.367 50.0917 122.316 49.0431 121.019 49.0431C119.721 49.0431 118.67 50.0917 118.67 51.3853C118.67 52.6789 119.721 53.7275 121.019 53.7275Z" fill="#EDEDED"/>
<path d="M68.0181 53.8862L65.9571 54.4378C64.669 54.7843 63.2957 54.6064 62.139 53.9433C60.9824 53.2802 60.1373 52.1862 59.7895 50.9018L55.4176 34.7555C55.0722 33.4711 55.2515 32.1026 55.9162 30.9498C56.5809 29.7969 57.6767 28.9539 58.9636 28.6053L61.0246 28.0462L61.464 29.6933L59.4107 30.2449C58.56 30.4748 57.8356 31.0321 57.3966 31.7942C56.9576 32.5564 56.8399 33.4611 57.0694 34.3098L61.4337 50.4333C61.6645 51.2819 62.223 52.0048 62.9869 52.4437C63.7509 52.8827 64.6581 53.002 65.5101 52.7755L67.571 52.2164L68.0181 53.8862Z" fill="#141414"/>
<path d="M92.0824 47.4036L90.029 47.9551L89.582 46.308L91.6353 45.7565C92.0573 45.6434 92.4527 45.4486 92.7991 45.1831C93.1455 44.9176 93.436 44.5867 93.6542 44.2092C93.8723 43.8317 94.0137 43.4151 94.0703 42.9831C94.1269 42.5511 94.0977 42.1123 93.9842 41.6916L89.6123 25.568C89.3817 24.7197 88.8228 23.9974 88.0585 23.5596C87.2942 23.1219 86.3869 23.0045 85.5359 23.2333L83.4826 23.7849L83.0355 22.1453L85.0889 21.5862C86.3779 21.2416 87.7513 21.4202 88.9086 22.0828C90.0659 22.7455 90.9128 23.8384 91.2641 25.1222L95.6284 41.2458C95.9761 42.5312 95.7979 43.9017 95.1331 45.0563C94.4682 46.2109 93.371 47.0551 92.0824 47.4036Z" fill="#141414"/>
<path d="M84.94 26.9201L61.7965 33.1557C61.0209 33.3647 60.562 34.1611 60.7716 34.9346L64.335 48.0856C64.5445 48.8591 65.3432 49.3167 66.1188 49.1077L89.2623 42.8721C90.0379 42.6631 90.4968 41.8667 90.2872 41.0932L86.7238 27.9422C86.5143 27.1687 85.7156 26.7111 84.94 26.9201Z" fill="#141414"/>
<path d="M67.9877 45.696L85.9223 40.9058C84.4026 39.0549 82.7049 37.3569 80.8533 35.836C77.9211 33.456 77.0649 32.8138 75.7389 35.5036C74.9704 37.0151 74.3341 38.59 73.8371 40.2107C73.0166 39.6912 72.1608 39.2292 71.2761 38.828C70.0411 38.284 67.9877 45.696 67.9877 45.696Z" fill="#EDEDED"/>
<path d="M69.5941 37.6418C70.6067 37.6418 71.4277 36.8231 71.4277 35.8133C71.4277 34.8035 70.6067 33.9849 69.5941 33.9849C68.5814 33.9849 67.7604 34.8035 67.7604 35.8133C67.7604 36.8231 68.5814 37.6418 69.5941 37.6418Z" fill="#EDEDED"/>
<path d="M57.3725 68.34H54.0007C53.3982 68.34 52.9097 68.8271 52.9097 69.428V80.5422C52.9097 81.1431 53.3982 81.6302 54.0007 81.6302H57.3725C57.9751 81.6302 58.4636 81.1431 58.4636 80.5422V69.428C58.4636 68.8271 57.9751 68.34 57.3725 68.34Z" fill="#141414"/>
<path d="M45.8101 84.0329V87.4405C45.8101 88.0288 46.2884 88.5058 46.8784 88.5058H57.3952C57.9852 88.5058 58.4635 88.0288 58.4635 87.4405V84.0329C58.4635 83.4445 57.9852 82.9676 57.3952 82.9676H46.8784C46.2884 82.9676 45.8101 83.4445 45.8101 84.0329Z" fill="#141414"/>
<path d="M50.2047 90.9085V94.316C50.2047 94.9044 50.683 95.3813 51.2731 95.3813H70.4048C70.9948 95.3813 71.4731 94.9044 71.4731 94.316V90.9085C71.4731 90.3201 70.9948 89.8431 70.4048 89.8431H51.2731C50.683 89.8431 50.2047 90.3201 50.2047 90.9085Z" fill="#141414"/>
<path d="M50.2729 74.0218H46.9011C46.2986 74.0218 45.8101 74.5089 45.8101 75.1098V80.5422C45.8101 81.1431 46.2986 81.6302 46.9011 81.6302H50.2729C50.8755 81.6302 51.3639 81.1431 51.3639 80.5422V75.1098C51.3639 74.5089 50.8755 74.0218 50.2729 74.0218Z" fill="#141414"/>
<path d="M67.8968 96.7262H64.5251C63.9225 96.7262 63.434 97.2133 63.434 97.8142V103.247C63.434 103.848 63.9225 104.335 64.5251 104.335H67.8968C68.4994 104.335 68.9879 103.848 68.9879 103.247V97.8142C68.9879 97.2133 68.4994 96.7262 67.8968 96.7262Z" fill="#141414"/>
<path d="M121.125 114.588H63.0248C62.8802 114.588 62.7414 114.53 62.6391 114.428C62.5368 114.326 62.4793 114.188 62.4793 114.044C62.4793 113.899 62.5368 113.761 62.6391 113.659C62.7414 113.557 62.8802 113.5 63.0248 113.5H121.125C121.269 113.5 121.408 113.557 121.51 113.659C121.613 113.761 121.67 113.899 121.67 114.044C121.67 114.188 121.613 114.326 121.51 114.428C121.408 114.53 121.269 114.588 121.125 114.588Z" fill="#141414"/>
<path d="M60.7063 49.8667C60.7004 50.0323 60.6454 50.1924 60.5483 50.3269C60.4512 50.4614 60.3164 50.5641 60.1607 50.6222C59.3182 50.9415 58.5531 51.4352 57.9157 52.0707C57.2784 52.7062 56.7834 53.4692 56.4632 54.3093C56.4033 54.4634 56.2998 54.5968 56.1653 54.6934C56.0308 54.79 55.8711 54.8455 55.7055 54.8533C55.5397 54.8465 55.3796 54.7913 55.2449 54.6946C55.1102 54.5979 55.0069 54.464 54.9478 54.3093C54.6252 53.4657 54.1258 52.7004 53.483 52.0646C52.8401 51.4288 52.0686 50.937 51.22 50.6222C51.0644 50.5641 50.9295 50.4614 50.8324 50.3269C50.7353 50.1924 50.6804 50.0323 50.6744 49.8667C50.6804 49.7011 50.7353 49.541 50.8324 49.4065C50.9295 49.272 51.0644 49.1692 51.22 49.1111C52.0606 48.7922 52.824 48.2995 53.46 47.6653C54.096 47.0311 54.5901 46.2698 54.9099 45.4316C54.9691 45.277 55.0723 45.143 55.207 45.0463C55.3417 44.9496 55.5018 44.8944 55.6676 44.8876C55.8332 44.8954 55.9929 44.951 56.1274 45.0475C56.2619 45.1441 56.3654 45.2775 56.4253 45.4316C56.7509 46.2738 57.2524 47.0374 57.8963 47.6718C58.5403 48.3062 59.3122 48.7968 60.1607 49.1111C60.3164 49.1692 60.4512 49.272 60.5483 49.4065C60.6454 49.541 60.7004 49.7011 60.7063 49.8667Z" fill="#DC2028"/>
<path d="M64.2371 62.8924C64.2354 63.0201 64.1956 63.1443 64.1227 63.2493C64.0498 63.3543 63.9472 63.4352 63.828 63.4817C63.1929 63.7229 62.6161 64.0954 62.1356 64.5746C61.655 65.0538 61.2815 65.6289 61.0397 66.2622C60.993 66.3811 60.9118 66.4834 60.8066 66.5561C60.7013 66.6287 60.5767 66.6685 60.4487 66.6702C60.3204 66.6695 60.1953 66.6302 60.0899 66.5574C59.9844 66.4845 59.9035 66.3817 59.8577 66.2622C59.6188 65.6278 59.2483 65.0509 58.7705 64.5691C58.2926 64.0874 57.7181 63.7117 57.0845 63.4666C56.9633 63.4222 56.8585 63.342 56.7841 63.2367C56.7096 63.1315 56.6691 63.0061 56.6678 62.8773C56.6706 62.7498 56.7118 62.6261 56.7862 62.5223C56.8605 62.4186 56.9645 62.3395 57.0845 62.2955C57.7141 62.0542 58.2861 61.6842 58.7637 61.2092C59.2413 60.7343 59.614 60.1649 59.8577 59.5378C59.9018 59.4181 59.9811 59.3144 60.0851 59.2403C60.1892 59.1661 60.3132 59.125 60.4411 59.1222C60.5703 59.1235 60.696 59.1639 60.8015 59.2381C60.9071 59.3124 60.9875 59.4169 61.0321 59.5378C61.2753 60.1694 61.6493 60.7429 62.1298 61.2207C62.6102 61.6985 63.1863 62.0699 63.8204 62.3106C63.9404 62.3546 64.0444 62.4337 64.1187 62.5374C64.1931 62.6412 64.2343 62.7649 64.2371 62.8924Z" fill="#DC2028"/>
<path d="M70.0259 54.6115C70.0242 54.7392 69.9843 54.8635 69.9114 54.9684C69.8386 55.0734 69.736 55.1543 69.6167 55.2009C68.976 55.4447 68.3939 55.8203 67.9083 56.3033C67.4226 56.7862 67.0444 57.3657 66.7981 58.004C66.7535 58.1249 66.6731 58.2294 66.5676 58.3036C66.462 58.3778 66.3363 58.4183 66.2071 58.4195C66.078 58.4183 65.9523 58.3778 65.8467 58.3036C65.7411 58.2294 65.6607 58.1249 65.6161 58.004C65.3732 57.3662 64.9979 56.7868 64.5147 56.3037C64.0316 55.8207 63.4516 55.4448 62.8127 55.2009C62.6914 55.1564 62.5866 55.0762 62.5122 54.971C62.4378 54.8657 62.3972 54.7403 62.3959 54.6115C62.3972 54.4827 62.4378 54.3574 62.5122 54.2521C62.5866 54.1469 62.6914 54.0667 62.8127 54.0222C63.4521 53.7791 64.0325 53.4035 64.5158 52.9204C64.999 52.4372 65.374 51.8574 65.6161 51.2191C65.6628 51.1002 65.744 50.9979 65.8492 50.9252C65.9545 50.8526 66.0791 50.8128 66.2071 50.8111C66.3351 50.8128 66.4597 50.8526 66.565 50.9252C66.6703 50.9979 66.7514 51.1002 66.7981 51.2191C67.0431 51.8581 67.4209 52.4382 67.9067 52.9213C68.3925 53.4044 68.9753 53.7796 69.6167 54.0222C69.736 54.0688 69.8386 54.1497 69.9114 54.2547C69.9843 54.3596 70.0242 54.4839 70.0259 54.6115Z" fill="#DC2028"/>
<path d="M101.531 58.5177H81.6641C76.306 58.5198 71.168 60.6437 67.38 64.4224C63.592 68.2012 61.464 73.3254 61.464 78.6684C61.466 84.0101 63.5949 89.1324 67.3827 92.9095C71.1705 96.6867 76.3073 98.8095 81.6641 98.8115H98.4394C98.6894 99.3178 98.9622 99.8164 99.2501 100.285C100.121 101.687 101.25 102.912 102.576 103.896C103.787 104.807 105.18 105.449 106.66 105.778C107.328 105.926 108.008 106.017 108.691 106.05C109.35 106.05 110.002 106.004 110.615 105.974C110.655 105.973 110.693 105.964 110.728 105.947C110.763 105.93 110.795 105.906 110.82 105.876C110.872 105.822 110.902 105.751 110.902 105.676C110.902 105.601 110.872 105.529 110.82 105.476C110.35 105.075 109.881 104.72 109.487 104.312C109.102 103.916 108.757 103.483 108.456 103.02C107.906 102.217 107.565 101.29 107.463 100.323C107.375 99.5122 107.453 98.6923 107.691 97.9124C111.788 96.6229 115.367 94.0652 117.908 90.6103C120.449 87.1554 121.82 82.9831 121.822 78.6986C121.826 76.0429 121.303 73.4125 120.284 70.9588C119.265 68.5051 117.77 66.2764 115.884 64.4009C113.999 62.5255 111.76 61.0402 109.297 60.0306C106.833 59.0209 104.194 58.5068 101.531 58.5177Z" fill="#DC2028"/>
<path d="M106.835 76.3111C106.834 78.4258 105.995 80.4544 104.501 81.9551C104.261 82.1835 104.008 82.398 103.743 82.5973L91.6126 92.1778L79.4364 82.6125C79.1788 82.4085 78.9288 82.1893 78.6788 81.9702C77.2269 80.528 76.384 78.5861 76.3233 76.5434C76.2627 74.5008 76.9889 72.5125 78.3526 70.9872C79.7164 69.4618 81.6143 68.5152 83.6562 68.3419C85.6982 68.1685 87.7292 68.7816 89.3319 70.0551L91.605 71.8231L93.8781 70.0551C95.0589 69.1337 96.4751 68.561 97.9659 68.4021C99.4568 68.2431 100.962 68.5042 102.312 69.1558C103.661 69.8074 104.801 70.8233 105.6 72.0881C106.399 73.353 106.827 74.816 106.835 76.3111Z" fill="#EDEDED"/>
</svg>
