<svg width="241" height="167" viewBox="0 0 241 167" fill="none" xmlns="http://www.w3.org/2000/svg">
<path d="M150.551 121.595C148.502 122.467 143.942 124.434 140.021 126.558C136.1 128.683 133.653 131.986 136.091 135.446H129.602C129.602 135.446 127.007 131.986 130.233 129.072C133.458 126.159 148.623 120.342 148.623 120.342L150.551 121.595Z" fill="#0D1019"/>
<path d="M151.413 82.4238C154.398 77.5437 157.54 76.152 158.828 79.8353C160.117 83.5186 160.867 85.4669 160.867 85.4669C164.504 84.8518 168.242 85.3835 171.564 86.9885C173.101 84.8847 174.948 83.0266 177.042 81.4775C180.342 79.1209 181.603 78.49 183.642 84.6226C185.681 90.7552 185.496 90.8944 186.423 94.0674C187.6 98.0847 188.703 113.551 180.055 118.765V135.465H139.622C139.622 135.465 135.535 133.73 137.426 130.427C139.317 127.124 154.898 121.771 154.898 121.771C151.626 120.85 148.759 118.854 146.758 116.104C144.757 113.354 143.739 110.01 143.868 106.611C143.868 94.0674 147.483 89.8182 151.413 82.4238Z" fill="#0D1019"/>
<path d="M158.504 101.35C159.023 98.0012 161.016 95.3756 164.065 94.6426C167.115 93.9097 170.878 96.6374 173.177 99.1516C173.177 99.1516 171.11 101.007 165.845 101.935C160.358 103.03 158.504 101.35 158.504 101.35Z" fill="#FAFAFA"/>
<path d="M154.138 100.302C154.138 100.302 154.555 96.2106 152.46 94.0117C150.365 91.8129 147.195 92.7221 145.481 94.522C145.527 94.522 147.01 99.4671 154.138 100.302Z" fill="#FAFAFA"/>
<path d="M153.721 104.162C156.168 104.653 157.781 104.282 157.846 105.535C157.787 106.214 157.513 106.856 157.062 107.367C156.612 107.878 156.009 108.231 155.343 108.374C154.731 108.424 154.122 108.248 153.632 107.879C153.141 107.509 152.803 106.972 152.683 106.37C152.145 104.143 152.414 103.967 153.721 104.162Z" fill="#DC2028"/>
<path d="M160.358 105.535C160.261 105.52 160.173 105.471 160.11 105.397C160.046 105.323 160.011 105.229 160.011 105.131C160.011 105.034 160.046 104.939 160.11 104.865C160.173 104.791 160.261 104.742 160.358 104.728C162.554 104.616 164.77 104.728 164.798 104.728C164.851 104.73 164.904 104.743 164.952 104.766C165.001 104.788 165.045 104.821 165.081 104.86C165.117 104.9 165.145 104.946 165.163 104.997C165.181 105.047 165.189 105.101 165.187 105.154C165.185 105.208 165.172 105.26 165.149 105.308C165.126 105.356 165.094 105.399 165.054 105.435C165.014 105.47 164.968 105.497 164.917 105.514C164.867 105.532 164.814 105.539 164.761 105.535C164.761 105.535 162.554 105.433 160.395 105.535H160.358Z" fill="#FAFAFA"/>
<path d="M166.707 109.524C166.655 109.536 166.601 109.536 166.55 109.524C164.808 108.782 162.98 108.264 161.108 107.984C161.01 107.963 160.922 107.905 160.863 107.823C160.804 107.74 160.778 107.639 160.79 107.538C160.801 107.438 160.85 107.345 160.926 107.278C161.002 107.211 161.1 107.175 161.201 107.177C163.156 107.454 165.064 107.994 166.874 108.782C166.972 108.827 167.049 108.908 167.089 109.008C167.129 109.108 167.128 109.22 167.087 109.32C167.048 109.385 166.992 109.438 166.925 109.474C166.858 109.51 166.783 109.527 166.707 109.524Z" fill="#FAFAFA"/>
<path d="M163.936 111.936C163.893 111.946 163.849 111.946 163.806 111.936C162.501 111.436 161.257 110.788 160.098 110.007C160.047 109.981 160.001 109.945 159.964 109.9C159.928 109.855 159.901 109.803 159.886 109.748C159.871 109.692 159.868 109.634 159.877 109.577C159.886 109.52 159.907 109.465 159.939 109.417C159.971 109.369 160.012 109.328 160.061 109.297C160.11 109.266 160.164 109.245 160.221 109.237C160.278 109.229 160.337 109.233 160.392 109.249C160.448 109.265 160.499 109.292 160.543 109.329C161.648 110.071 162.829 110.693 164.065 111.185C164.116 111.202 164.162 111.228 164.202 111.263C164.241 111.298 164.274 111.34 164.297 111.388C164.321 111.435 164.334 111.487 164.337 111.54C164.34 111.592 164.333 111.645 164.316 111.695C164.283 111.768 164.229 111.83 164.162 111.873C164.094 111.916 164.016 111.938 163.936 111.936Z" fill="#FAFAFA"/>
<path d="M150.885 104.477C150.826 104.49 150.766 104.49 150.708 104.477L148.4 103.336C148.306 103.288 148.233 103.205 148.199 103.104C148.164 103.004 148.17 102.894 148.215 102.798C148.239 102.75 148.272 102.707 148.312 102.671C148.352 102.636 148.399 102.609 148.45 102.591C148.501 102.574 148.554 102.567 148.608 102.571C148.662 102.574 148.714 102.588 148.762 102.612L151.07 103.753C151.151 103.796 151.215 103.863 151.252 103.946C151.29 104.029 151.299 104.122 151.278 104.211C151.256 104.299 151.206 104.378 151.135 104.435C151.064 104.491 150.975 104.523 150.885 104.523V104.477Z" fill="#FAFAFA"/>
<path d="M150.885 107.001L145.481 106.629C145.423 106.633 145.364 106.625 145.31 106.604C145.255 106.584 145.206 106.552 145.165 106.51C145.124 106.469 145.092 106.42 145.072 106.365C145.051 106.31 145.043 106.252 145.047 106.194C145.051 106.136 145.067 106.079 145.095 106.028C145.123 105.977 145.161 105.932 145.207 105.897C145.254 105.862 145.307 105.837 145.364 105.824C145.42 105.811 145.479 105.811 145.536 105.822L150.94 106.193C150.994 106.194 151.047 106.207 151.095 106.229C151.144 106.251 151.188 106.284 151.223 106.324C151.259 106.364 151.286 106.411 151.303 106.462C151.319 106.513 151.325 106.567 151.32 106.62C151.317 106.674 151.303 106.726 151.279 106.774C151.255 106.823 151.222 106.866 151.181 106.901C151.141 106.936 151.094 106.963 151.043 106.98C150.992 106.998 150.938 107.004 150.885 107.001Z" fill="#FAFAFA"/>
<path d="M148.586 110.573C148.493 110.572 148.403 110.54 148.331 110.481C148.259 110.422 148.209 110.341 148.19 110.25C148.171 110.159 148.183 110.064 148.224 109.981C148.266 109.898 148.335 109.832 148.419 109.793L150.718 108.745C150.766 108.722 150.819 108.71 150.873 108.707C150.926 108.705 150.98 108.714 151.03 108.732C151.08 108.751 151.127 108.779 151.166 108.815C151.206 108.852 151.237 108.896 151.26 108.944C151.282 108.993 151.295 109.046 151.297 109.099C151.3 109.153 151.291 109.207 151.273 109.257C151.254 109.307 151.226 109.354 151.189 109.393C151.153 109.433 151.109 109.465 151.061 109.487L148.753 110.535C148.701 110.561 148.644 110.574 148.586 110.573Z" fill="#FAFAFA"/>
<path d="M157.883 114.581C157.775 114.581 157.671 114.624 157.594 114.7C157.518 114.777 157.475 114.881 157.475 114.989C157.452 115.162 157.386 115.328 157.282 115.469C157.178 115.61 157.041 115.722 156.882 115.796C156.736 115.899 156.565 115.96 156.387 115.973C156.209 115.987 156.031 115.951 155.871 115.87C155.491 115.648 155.297 115.063 155.306 114.209C155.306 112.493 155.306 107.223 155.306 107.177C155.31 107.122 155.302 107.067 155.283 107.016C155.264 106.964 155.234 106.918 155.196 106.879C155.157 106.84 155.11 106.81 155.059 106.791C155.008 106.772 154.953 106.765 154.898 106.769C154.845 106.769 154.792 106.779 154.743 106.8C154.694 106.821 154.65 106.851 154.613 106.889C154.576 106.927 154.547 106.972 154.527 107.021C154.508 107.071 154.498 107.124 154.5 107.177C154.5 107.233 154.5 112.484 154.5 114.2C154.5 114.312 154.5 114.414 154.5 114.525C154.5 114.525 154.342 115.685 153.434 115.75C153.345 115.759 153.256 115.751 153.171 115.723C153.086 115.696 153.008 115.651 152.942 115.592C152.701 115.302 152.564 114.939 152.553 114.562C152.544 114.457 152.496 114.359 152.419 114.287C152.342 114.215 152.241 114.174 152.136 114.172C152.082 114.174 152.03 114.185 151.98 114.207C151.931 114.229 151.887 114.26 151.85 114.298C151.813 114.337 151.784 114.383 151.765 114.433C151.745 114.483 151.736 114.536 151.737 114.59C151.759 115.186 151.992 115.755 152.395 116.195C152.662 116.435 153.01 116.565 153.369 116.557H153.48C153.741 116.543 153.996 116.471 154.225 116.346C154.454 116.221 154.653 116.045 154.805 115.833C154.948 116.131 155.174 116.382 155.454 116.557C155.704 116.696 155.984 116.77 156.27 116.77C156.625 116.767 156.973 116.671 157.28 116.492C157.564 116.346 157.805 116.129 157.98 115.862C158.156 115.596 158.259 115.289 158.281 114.97C158.277 114.867 158.233 114.769 158.159 114.697C158.085 114.624 157.986 114.583 157.883 114.581Z" fill="#DC2028"/>
<path d="M164.52 102.334C166.378 102.334 167.884 100.585 167.884 98.4279C167.884 96.2707 166.378 94.522 164.52 94.522C162.661 94.522 161.155 96.2707 161.155 98.4279C161.155 100.585 162.661 102.334 164.52 102.334Z" fill="#0D1019"/>
<path d="M150.551 99.4021C152.143 99.4021 153.434 97.9067 153.434 96.0621C153.434 94.2175 152.143 92.7221 150.551 92.7221C148.959 92.7221 147.668 94.2175 147.668 96.0621C147.668 97.9067 148.959 99.4021 150.551 99.4021Z" fill="#0D1019"/>
<path d="M151.802 96.0528C152.207 96.0528 152.534 95.7247 152.534 95.3199C152.534 94.9151 152.207 94.5869 151.802 94.5869C151.398 94.5869 151.07 94.9151 151.07 95.3199C151.07 95.7247 151.398 96.0528 151.802 96.0528Z" fill="#FAFAFA"/>
<path d="M162.517 97.9733C162.922 97.9733 163.25 97.6452 163.25 97.2404C163.25 96.8356 162.922 96.5074 162.517 96.5074C162.113 96.5074 161.785 96.8356 161.785 97.2404C161.785 97.6452 162.113 97.9733 162.517 97.9733Z" fill="#FAFAFA"/>
<path d="M158.708 42.2232V52.8833H148.057C145.948 52.8852 143.886 52.2607 142.132 51.0891C140.377 49.9174 139.01 48.2512 138.202 46.3012C137.394 44.3512 137.182 42.2052 137.593 40.1347C138.004 38.0641 139.019 36.1622 140.511 34.6694C142.002 33.1767 143.902 32.1604 145.971 31.749C148.039 31.3376 150.184 31.5497 152.132 32.3584C154.08 33.1671 155.745 34.536 156.915 36.292C158.086 38.048 158.71 40.1121 158.708 42.2232Z" fill="#E2EAF2"/>
<path d="M147.872 35.3854C146.521 35.3836 145.199 35.7831 144.074 36.5333C142.95 37.2835 142.072 38.3508 141.554 39.6C141.036 40.8493 140.899 42.2244 141.161 43.5514C141.424 44.8784 142.074 46.0977 143.029 47.0549C143.984 48.0121 145.201 48.6642 146.527 48.9288C147.852 49.1934 149.226 49.0585 150.475 48.5413C151.724 48.024 152.791 47.1476 153.542 46.023C154.293 44.8983 154.694 43.5759 154.694 42.2232C154.694 40.4113 153.976 38.6735 152.697 37.3914C151.417 36.1094 149.682 35.3879 147.872 35.3854ZM153.712 43.8468C152.82 42.0537 151.556 40.4721 150.004 39.2079C150.098 38.9257 150.172 38.6374 150.226 38.3451C151.669 38.936 152.927 39.9036 153.869 41.1469C153.932 41.5024 153.966 41.8623 153.971 42.2232C153.961 42.7738 153.873 43.3203 153.712 43.8468ZM145.666 41.8799C145.762 41.3783 146.052 40.9349 146.472 40.6459C147.154 40.2914 147.939 40.1895 148.688 40.3583C148.394 40.8872 148.056 41.39 147.677 41.8613C147.009 41.9367 146.335 41.9429 145.666 41.8799ZM141.801 42.2232C141.801 42.0005 141.801 41.7964 141.801 41.583C142.278 41.8242 142.774 42.0259 143.284 42.1861C142.923 42.6896 142.442 43.0947 141.884 43.3643C141.825 42.987 141.803 42.6048 141.819 42.2232H141.801ZM149.04 39.6532C148.036 39.3918 146.971 39.5176 146.055 40.0058C145.464 40.4174 145.055 41.0427 144.915 41.75C144.45 41.6725 143.992 41.5609 143.543 41.416C143.749 40.4841 144.27 39.6518 145.017 39.0594C146.335 38.1705 147.951 37.8371 149.513 38.1317C149.414 38.6553 149.255 39.1659 149.04 39.6532ZM144.072 42.4366C144.552 42.5451 145.038 42.6256 145.527 42.6778C144.717 43.7152 143.667 44.5399 142.468 45.0807C142.311 44.7823 142.178 44.4721 142.07 44.1529C142.9 43.786 143.598 43.1743 144.072 42.3994V42.4366ZM148.808 44.3756C147.942 45.7949 146.705 46.95 145.23 47.7156C144.905 47.5702 144.594 47.393 144.303 47.1868C145.89 46.2698 147.215 44.9599 148.15 43.3829C148.363 43.6056 148.576 43.9581 148.808 44.3385V44.3756ZM149.244 45.0993C149.401 45.3683 149.559 45.6559 149.726 45.9528C149.506 46.4993 149.166 46.9892 148.732 47.386C148.297 47.7828 147.778 48.0762 147.214 48.2444C146.862 48.2105 146.514 48.1421 146.176 48.0403C147.394 47.2747 148.436 46.2597 149.235 45.0622L149.244 45.0993ZM150.171 46.7878C150.319 47.0847 150.458 47.3816 150.588 47.7156C150.088 47.962 149.558 48.1428 149.012 48.2537C149.48 47.8233 149.869 47.3147 150.162 46.7507L150.171 46.7878ZM148.317 42.2788C148.447 42.1211 148.614 41.8984 148.808 41.6108C150.198 43.0624 151.294 44.7701 152.034 46.6394C151.78 46.8869 151.504 47.1105 151.209 47.3074C150.392 45.5371 149.421 43.8421 148.308 42.2417L148.317 42.2788ZM149.244 40.9521C149.426 40.637 149.59 40.3118 149.735 39.9779C151.334 41.3023 152.558 43.0234 153.285 44.9694C153.103 45.3301 152.886 45.672 152.636 45.9899C151.819 44.1062 150.666 42.3866 149.235 40.915L149.244 40.9521ZM153.211 39.3934C152.397 38.5804 151.421 37.9482 150.347 37.5379C150.37 37.2476 150.37 36.956 150.347 36.6658C151.576 37.2191 152.587 38.1655 153.22 39.3563L153.211 39.3934ZM147.872 36.1833C148.43 36.185 148.985 36.263 149.522 36.4153C149.588 36.7512 149.613 37.0939 149.596 37.4358C147.83 37.1205 146.01 37.5174 144.535 38.5399C143.681 39.22 143.081 40.1676 142.83 41.2304C142.535 41.1162 142.248 40.9862 141.968 40.8408C142.288 39.5143 143.044 38.334 144.115 37.4893C145.185 36.6447 146.509 36.1847 147.872 36.1833ZM142.904 45.7394C144.325 45.0336 145.546 43.9806 146.454 42.6778H146.5C146.888 42.6753 147.274 42.6505 147.659 42.6036C147.251 43.2994 145.74 45.6838 143.636 46.5559C143.364 46.2969 143.118 46.0109 142.904 45.7023V45.7394Z" fill="#DC2028"/>
<path d="M158.087 48.7176C157.982 48.7356 157.876 48.7356 157.772 48.7176C157.169 48.5228 156.845 47.7899 156.845 46.7507C156.845 46.0827 156.678 45.823 156.594 45.823C156.511 45.823 156.029 46.0827 155.667 46.9177C155.185 48.0218 154.509 47.994 154.24 47.9383C153.508 47.762 152.998 46.7322 153.054 45.5446C153.063 45.4462 153.109 45.3551 153.183 45.2896C153.257 45.2241 153.353 45.1893 153.452 45.1921C153.502 45.1945 153.551 45.2067 153.596 45.228C153.641 45.2494 153.682 45.2794 153.716 45.3165C153.749 45.3535 153.775 45.3969 153.792 45.444C153.809 45.4911 153.816 45.5411 153.814 45.591C153.814 46.5188 154.129 47.1311 154.416 47.1961C154.703 47.261 154.796 47.0105 154.972 46.6116C155.445 45.5354 156.122 44.9509 156.752 45.0807C157.067 45.1457 157.605 45.4519 157.605 46.76C157.605 47.5765 157.836 47.9383 158.031 48.0033C158.226 48.0682 158.587 47.8919 158.958 47.3631C159.076 47.1591 159.244 46.9894 159.448 46.8706C159.651 46.7518 159.881 46.6881 160.117 46.6858C160.415 46.7357 160.7 46.8504 160.95 47.0219C161.199 47.1934 161.409 47.4175 161.563 47.6785C161.609 47.7632 161.622 47.8625 161.598 47.9562C161.574 48.0499 161.516 48.131 161.434 48.183C161.353 48.235 161.255 48.254 161.16 48.2361C161.065 48.2183 160.98 48.1648 160.923 48.0868C160.812 47.9198 160.441 47.4466 160.089 47.4373C159.982 47.4573 159.88 47.5 159.79 47.5624C159.701 47.6247 159.626 47.7054 159.57 47.7991C159.412 48.0576 159.195 48.2754 158.937 48.4349C158.68 48.5944 158.388 48.6912 158.087 48.7176Z" fill="#DC2028"/>
<path d="M113.085 50.5732H133.264C133.4 50.5732 133.535 50.6001 133.661 50.6523C133.787 50.7045 133.901 50.781 133.998 50.8775C134.094 50.974 134.171 51.0886 134.223 51.2146C134.275 51.3407 134.302 51.4758 134.302 51.6123V64.8517C134.295 65.117 134.188 65.3699 134.002 65.5594C133.816 65.7488 133.566 65.8606 133.301 65.8722H131.706L132.633 69.9266L128.453 65.8722H113.085C112.808 65.8698 112.544 65.7583 112.35 65.5619C112.156 65.3656 112.046 65.1003 112.046 64.8239V51.6123C112.046 51.3367 112.156 51.0724 112.351 50.8775C112.545 50.6827 112.809 50.5732 113.085 50.5732Z" fill="#DC2028"/>
<path d="M123.327 63.5621C126.173 63.5621 128.481 61.2526 128.481 58.4036C128.481 55.5547 126.173 53.2452 123.327 53.2452C120.481 53.2452 118.173 55.5547 118.173 58.4036C118.173 61.2526 120.481 63.5621 123.327 63.5621Z" fill="#FAFAFA"/>
<path d="M126.988 60.3055C126.732 61.0873 126.236 61.7681 125.57 62.2507C124.904 62.7334 124.103 62.9932 123.281 62.9932C122.459 62.9932 121.658 62.7334 120.992 62.2507C120.326 61.7681 119.829 61.0873 119.573 60.3055C120.01 59.7376 120.572 59.2777 121.215 58.9612C121.858 58.6448 122.564 58.4802 123.281 58.4802C123.997 58.4802 124.704 58.6448 125.347 58.9612C125.99 59.2777 126.551 59.7376 126.988 60.3055Z" fill="#DC2028"/>
<path d="M124.884 55.4811C124.949 55.2213 125.153 54.3214 124.884 54.1636C124.616 54.0059 124.226 54.3678 123.957 54.5997C123.763 54.5214 123.555 54.4805 123.346 54.4791C123.13 54.4805 122.916 54.5214 122.715 54.5997C122.419 54.3678 121.955 54.043 121.788 54.1636C121.622 54.2843 121.742 55.277 121.788 55.5089C121.67 55.7704 121.619 56.0573 121.64 56.3436C121.661 56.6298 121.754 56.9062 121.909 57.1475C122.064 57.3887 122.278 57.5871 122.53 57.7245C122.781 57.8619 123.064 57.9339 123.35 57.9339C123.637 57.9339 123.919 57.8619 124.171 57.7245C124.423 57.5871 124.636 57.3887 124.792 57.1475C124.947 56.9062 125.039 56.6298 125.06 56.3436C125.082 56.0573 125.031 55.7704 124.912 55.5089L124.884 55.4811Z" fill="#DC2028"/>
<path d="M128.286 135.456H63.9577L53.845 88.8811C53.8118 88.7284 53.8132 88.5702 53.8489 88.4182C53.8847 88.2661 53.954 88.1239 54.0517 88.002C54.1495 87.8802 54.2732 87.7818 54.4138 87.714C54.5545 87.6461 54.7085 87.6106 54.8646 87.61H116.792C117.103 87.6128 117.404 87.7205 117.647 87.9158C117.889 88.1112 118.058 88.3826 118.127 88.6863L128.286 135.456Z" fill="#DC2028"/>
<path d="M72.6893 135.456H149.874V133.851C149.872 133.621 149.779 133.401 149.616 133.24C149.453 133.078 149.232 132.988 149.003 132.988H72.6893V135.456Z" fill="#DC2028"/>
<path d="M99.8296 111.797L95.3248 113.458C95.2942 113.466 95.2665 113.482 95.2449 113.506C95.2233 113.529 95.2088 113.558 95.2029 113.589C95.1971 113.62 95.2002 113.652 95.212 113.681C95.2237 113.711 95.2435 113.736 95.2691 113.755L96.8542 114.924C95.8785 115.766 94.7299 116.384 93.4895 116.733C89.4203 117.883 86.2409 116.371 83.5714 112.038L83.3304 115.518L79.53 114.729C79.53 114.729 83.4231 120.138 89.9115 119.952C91.473 119.878 92.998 119.455 94.3743 118.713C95.7507 117.971 96.9433 116.93 97.8645 115.666L99.5052 116.881C99.531 116.899 99.5611 116.909 99.5922 116.91C99.6232 116.911 99.654 116.903 99.6809 116.888C99.7079 116.872 99.7301 116.85 99.7449 116.822C99.7597 116.795 99.7665 116.764 99.7647 116.733L100.034 111.936C100.032 111.913 100.025 111.89 100.013 111.869C100.001 111.849 99.9847 111.831 99.9651 111.818C99.9455 111.804 99.9232 111.795 99.8997 111.792C99.8762 111.788 99.8523 111.79 99.8296 111.797Z" fill="#FAFAFA"/>
<path d="M81.8751 109.302L80.2901 108.133C81.2615 107.286 82.4118 106.671 83.6548 106.333C87.724 105.173 90.9033 106.685 93.5636 110.972L93.8046 107.492L97.6143 108.281C97.6143 108.281 93.7305 102.872 87.242 103.058C85.6795 103.133 84.1536 103.557 82.776 104.298C81.3983 105.04 80.2038 106.081 79.2797 107.344L77.6483 106.129C77.6225 106.111 77.5924 106.101 77.5614 106.1C77.5303 106.099 77.4996 106.107 77.4726 106.122C77.4456 106.138 77.4235 106.16 77.4087 106.188C77.3939 106.215 77.387 106.246 77.3888 106.277L77.12 111.074C77.122 111.096 77.1289 111.118 77.1402 111.138C77.1515 111.158 77.1669 111.175 77.1854 111.188C77.2039 111.201 77.225 111.21 77.2473 111.215C77.2696 111.219 77.2926 111.218 77.3147 111.213L81.8102 109.552C81.8327 109.542 81.8526 109.526 81.8685 109.507C81.8844 109.488 81.8959 109.466 81.9021 109.442C81.9083 109.418 81.9091 109.393 81.9044 109.369C81.8998 109.344 81.8898 109.322 81.8751 109.302Z" fill="#FAFAFA"/>
<path d="M117.821 84.6783V74.6768C117.821 74.4217 117.754 74.1712 117.627 73.9499C117.5 73.7286 117.318 73.5442 117.098 73.4151L108.45 68.4236C108.23 68.2957 107.981 68.2283 107.727 68.2283C107.473 68.2283 107.224 68.2957 107.004 68.4236L98.3465 73.4151C98.1267 73.5442 97.9445 73.7286 97.8177 73.9499C97.6909 74.1712 97.6239 74.4217 97.6235 74.6768V84.6783C97.6239 84.9334 97.6909 85.184 97.8177 85.4053C97.9445 85.6266 98.1267 85.8109 98.3465 85.9401L106.995 90.9222C107.215 91.0519 107.467 91.1203 107.722 91.1203C107.978 91.1203 108.229 91.0519 108.45 90.9222L117.107 85.9308C117.324 85.8013 117.504 85.6179 117.629 85.3984C117.754 85.179 117.82 84.9309 117.821 84.6783Z" fill="#0D1019"/>
<path d="M102.508 81.7743H115.569C115.838 81.4062 115.999 80.9708 116.036 80.5163C116.073 80.0618 115.983 79.606 115.776 79.1995C115.57 78.793 115.255 78.4517 114.867 78.2134C114.478 77.9752 114.031 77.8493 113.576 77.8498H113.492C113.624 77.2185 113.54 76.5611 113.253 75.9838C112.965 75.4066 112.492 74.9432 111.909 74.6686C111.326 74.3939 110.667 74.3241 110.039 74.4704C109.412 74.6167 108.852 74.9705 108.45 75.4747C108.386 74.9975 108.22 74.5397 107.964 74.1327C107.707 73.7257 107.365 73.3791 106.962 73.1166C106.558 72.8542 106.103 72.6821 105.627 72.6121C105.152 72.5421 104.666 72.5759 104.205 72.7112C103.743 72.8465 103.316 73.0801 102.953 73.3959C102.59 73.7118 102.3 74.1024 102.102 74.5411C101.904 74.9798 101.803 75.4562 101.806 75.9376C101.809 76.419 101.916 76.8941 102.119 77.3302C101.869 77.2436 101.605 77.1997 101.341 77.2004C100.788 77.1908 100.249 77.3672 99.8085 77.7012C99.3683 78.0353 99.0529 78.5076 98.9129 79.0424C98.7729 79.5773 98.8164 80.1437 99.0364 80.6508C99.2564 81.158 99.6402 81.5765 100.126 81.8392L102.508 81.7743Z" fill="#E2EAF2"/>
<path d="M110.183 83.1103H108.895V79.492C108.898 79.353 108.856 79.2167 108.776 79.1032C108.696 78.9896 108.582 78.9047 108.45 78.8611H106.346C106.199 78.8905 106.067 78.9691 105.971 79.0837C105.875 79.1984 105.821 79.3424 105.818 79.492V83.1103H104.65C104.569 83.108 104.49 83.1302 104.422 83.1738C104.355 83.2175 104.302 83.2806 104.271 83.3549C104.24 83.4292 104.232 83.5112 104.248 83.5901C104.264 83.669 104.304 83.7411 104.362 83.7969L107.087 86.5153C107.129 86.5568 107.178 86.5897 107.232 86.6122C107.286 86.6347 107.344 86.6462 107.403 86.6462C107.461 86.6462 107.519 86.6347 107.573 86.6122C107.627 86.5897 107.676 86.5568 107.718 86.5153L110.434 83.7969C110.49 83.7433 110.529 83.6746 110.546 83.599C110.564 83.5235 110.559 83.4445 110.533 83.3717C110.506 83.2989 110.459 83.2354 110.397 83.1889C110.335 83.1425 110.261 83.1152 110.183 83.1103Z" fill="#DC2028"/>
</svg>
