<svg width="223" height="154" viewBox="0 0 223 154" fill="none" xmlns="http://www.w3.org/2000/svg">
<path d="M44.2226 31.5272C45.17 31.5272 45.938 30.7611 45.938 29.8161C45.938 28.8711 45.17 28.105 44.2226 28.105C43.2752 28.105 42.5072 28.8711 42.5072 29.8161C42.5072 30.7611 43.2752 31.5272 44.2226 31.5272Z" fill="#DC2028"/>
<path d="M38.9478 36.7889C39.8952 36.7889 40.6632 36.0228 40.6632 35.0777C40.6632 34.1327 39.8952 33.3666 38.9478 33.3666C38.0004 33.3666 37.2324 34.1327 37.2324 35.0777C37.2324 36.0228 38.0004 36.7889 38.9478 36.7889Z" fill="#DC2028"/>
<path d="M33.673 42.0506C34.6204 42.0506 35.3884 41.2845 35.3884 40.3395C35.3884 39.3944 34.6204 38.6284 33.673 38.6284C32.7256 38.6284 31.9576 39.3944 31.9576 40.3395C31.9576 41.2845 32.7256 42.0506 33.673 42.0506Z" fill="#DC2028"/>
<path d="M49.283 36.575C50.2304 36.575 50.9984 35.8089 50.9984 34.8639C50.9984 33.9189 50.2304 33.1528 49.283 33.1528C48.3356 33.1528 47.5676 33.9189 47.5676 34.8639C47.5676 35.8089 48.3356 36.575 49.283 36.575Z" fill="#DC2028"/>
<path d="M44.0082 41.8367C44.9556 41.8367 45.7236 41.0706 45.7236 40.1255C45.7236 39.1805 44.9556 38.4144 44.0082 38.4144C43.0608 38.4144 42.2928 39.1805 42.2928 40.1255C42.2928 41.0706 43.0608 41.8367 44.0082 41.8367Z" fill="#DC2028"/>
<path d="M38.7334 47.0983C39.6808 47.0983 40.4488 46.3322 40.4488 45.3872C40.4488 44.4422 39.6808 43.6761 38.7334 43.6761C37.786 43.6761 37.018 44.4422 37.018 45.3872C37.018 46.3322 37.786 47.0983 38.7334 47.0983Z" fill="#DC2028"/>
<path d="M54.3434 41.6228C55.2908 41.6228 56.0588 40.8567 56.0588 39.9117C56.0588 38.9667 55.2908 38.2006 54.3434 38.2006C53.396 38.2006 52.628 38.9667 52.628 39.9117C52.628 40.8567 53.396 41.6228 54.3434 41.6228Z" fill="#DC2028"/>
<path d="M49.0686 46.8844C50.016 46.8844 50.784 46.1184 50.784 45.1733C50.784 44.2283 50.016 43.4622 49.0686 43.4622C48.1212 43.4622 47.3532 44.2283 47.3532 45.1733C47.3532 46.1184 48.1212 46.8844 49.0686 46.8844Z" fill="#DC2028"/>
<path d="M171.667 113.686C171.084 113.686 170.492 113.686 169.9 113.609L170.192 110.358C171.182 110.444 172.178 110.444 173.168 110.358L173.468 113.609C172.879 113.661 172.279 113.686 171.667 113.686ZM166.392 112.933C165.242 112.611 164.125 112.181 163.056 111.65L164.514 108.733C165.403 109.17 166.33 109.525 167.284 109.793L166.392 112.933ZM176.993 112.933L176.136 109.793C177.086 109.52 178.011 109.162 178.897 108.724L180.364 111.641C179.281 112.177 178.15 112.61 176.985 112.933H176.993ZM160.02 109.785C159.066 109.071 158.181 108.269 157.378 107.389L159.788 105.182C160.458 105.915 161.196 106.582 161.992 107.175L160.02 109.785ZM183.366 109.785L181.385 107.218C182.177 106.619 182.912 105.949 183.58 105.216L185.999 107.415C185.195 108.283 184.31 109.073 183.357 109.776L183.366 109.785ZM155.242 104.566C154.608 103.555 154.07 102.487 153.638 101.375L156.692 100.186C157.052 101.109 157.497 101.997 158.021 102.838L155.242 104.566ZM188.178 104.566L185.399 102.855C185.923 102.014 186.368 101.126 186.728 100.203L189.782 101.383C189.332 102.48 188.784 103.534 188.143 104.532L188.178 104.566ZM152.652 97.9782C152.436 96.8099 152.327 95.6243 152.326 94.4362H155.594C155.593 95.4269 155.688 96.4153 155.877 97.3879L152.652 97.9782ZM190.751 97.9782L187.534 97.3793C187.716 96.4059 187.808 95.4179 187.809 94.4277L191.077 94.3507V94.4277C191.065 95.597 190.944 96.7627 190.716 97.9098L190.751 97.9782ZM155.86 91.5102L152.643 90.9199C152.858 89.7513 153.183 88.6055 153.613 87.4977L156.666 88.6698C156.3 89.5656 156.018 90.4936 155.826 91.4418L155.86 91.5102ZM187.526 91.4076C187.327 90.4368 187.04 89.4861 186.668 88.5671L189.713 87.3694C190.151 88.4765 190.485 89.6222 190.708 90.7916L187.526 91.4076ZM157.987 86.0005L155.199 84.2893C155.827 83.2774 156.545 82.3239 157.344 81.4404L159.771 83.6391C159.093 84.3442 158.484 85.1119 157.953 85.932L157.987 86.0005ZM185.364 85.9235C184.838 85.0826 184.235 84.2921 183.563 83.5621L185.939 81.2778C186.746 82.1549 187.472 83.1027 188.109 84.1097L185.364 85.9235ZM161.958 81.6457L159.977 79.079C160.929 78.3601 161.945 77.73 163.013 77.1968L164.48 80.1142C163.584 80.5152 162.728 80.9993 161.924 81.5601L161.958 81.6457ZM181.359 81.5858C180.565 80.9939 179.718 80.4756 178.829 80.0372L180.244 77C181.314 77.5313 182.333 78.1584 183.289 78.8737L181.359 81.5858ZM167.25 79.0191L166.341 75.8792C167.49 75.5522 168.667 75.3316 169.857 75.2205L170.166 78.4716C169.182 78.5294 168.206 78.6783 167.25 78.9165V79.0191ZM176.059 79.0191C175.102 78.7527 174.123 78.5751 173.134 78.4887L173.425 75.229C174.614 75.3401 175.791 75.5548 176.942 75.8707L176.059 79.0191Z" fill="#1B0202"/>
<path d="M50.4838 43.2997H167.722C168.507 43.2997 169.259 43.6107 169.814 44.1642C170.369 44.7178 170.681 45.4685 170.681 46.2514V125.185H47.5247V46.2514C47.5247 45.4685 47.8365 44.7178 48.3914 44.1642C48.9463 43.6107 49.699 43.2997 50.4838 43.2997Z" fill="#141414"/>
<path d="M147.763 56.595H72.029V120.437H147.763V56.595Z" fill="#1B0202"/>
<path d="M73.9845 52.9075H145.808C146.326 52.9075 146.824 53.113 147.19 53.4789C147.557 53.8447 147.763 54.3409 147.763 54.8582V56.5693H72.0462V54.8582C72.0461 54.3438 72.2498 53.8502 72.6128 53.4849C72.9759 53.1196 73.4689 52.912 73.9845 52.9075Z" fill="#DC2028"/>
<path d="M74.2161 55.2518C74.4956 55.2518 74.7222 55.0258 74.7222 54.747C74.7222 54.4682 74.4956 54.2422 74.2161 54.2422C73.9366 54.2422 73.7101 54.4682 73.7101 54.747C73.7101 55.0258 73.9366 55.2518 74.2161 55.2518Z" fill="white"/>
<path d="M76.3775 55.2518C76.657 55.2518 76.8835 55.0258 76.8835 54.747C76.8835 54.4682 76.657 54.2422 76.3775 54.2422C76.098 54.2422 75.8715 54.4682 75.8715 54.747C75.8715 55.0258 76.098 55.2518 76.3775 55.2518Z" fill="white"/>
<path d="M78.5389 55.2518C78.8184 55.2518 79.0449 55.0258 79.0449 54.747C79.0449 54.4682 78.8184 54.2422 78.5389 54.2422C78.2594 54.2422 78.0329 54.4682 78.0329 54.747C78.0329 55.0258 78.2594 55.2518 78.5389 55.2518Z" fill="white"/>
<path d="M132.076 66.2542H86.8413V111.376H132.076V66.2542Z" fill="white"/>
<path d="M38.7334 120.437H181.067C181.067 121.887 180.49 123.277 179.462 124.302C178.434 125.328 177.04 125.904 175.587 125.904H44.214C42.7605 125.904 41.3665 125.328 40.3386 124.302C39.3108 123.277 38.7334 121.887 38.7334 120.437Z" fill="#DC2028"/>
<path d="M79.0363 63.0972H58.8034V120.428H79.0363V63.0972Z" fill="white"/>
<path d="M61.0162 61.0096H76.8149C77.4041 61.0096 77.9691 61.2431 78.3857 61.6587C78.8023 62.0742 79.0363 62.6378 79.0363 63.2255V65.1933H58.8034V63.217C58.8056 62.6323 59.0395 62.0721 59.454 61.6586C59.8685 61.2452 60.43 61.0119 61.0162 61.0096Z" fill="#DC2028"/>
<path d="M67.629 67.4691H61.042V74.0398H67.629V67.4691Z" fill="#1B0202"/>
<path d="M76.6005 67.4691H70.0134V74.0398H76.6005V67.4691Z" fill="#1B0202"/>
<path d="M67.629 75.3231H61.042V81.8938H67.629V75.3231Z" fill="#1B0202"/>
<path d="M76.6005 75.3231H70.0134V81.8938H76.6005V75.3231Z" fill="#1B0202"/>
<path d="M67.629 83.1857H61.042V89.7563H67.629V83.1857Z" fill="#1B0202"/>
<path d="M76.6005 83.1857H70.0134V89.7563H76.6005V83.1857Z" fill="#1B0202"/>
<path d="M67.629 91.0482H61.042V97.6189H67.629V91.0482Z" fill="#1B0202"/>
<path d="M76.6005 91.0482H70.0134V97.6189H76.6005V91.0482Z" fill="#1B0202"/>
<path d="M67.629 98.9108H61.042V105.481H67.629V98.9108Z" fill="#1B0202"/>
<path d="M76.6005 98.9108H70.0134V105.481H76.6005V98.9108Z" fill="#1B0202"/>
<path d="M69.0185 111.376H62.4314V117.947H69.0185V111.376Z" fill="#DC2028"/>
<path d="M67.4403 114.644V120.419H69.2243V116.433H73.6157V120.419H75.3997V114.644H67.4403Z" fill="#DC2028"/>
<path d="M76.6005 63.8587C76.9179 63.8587 77.1752 63.602 77.1752 63.2854C77.1752 62.9689 76.9179 62.7122 76.6005 62.7122C76.2831 62.7122 76.0258 62.9689 76.0258 63.2854C76.0258 63.602 76.2831 63.8587 76.6005 63.8587Z" fill="white"/>
<path d="M137.291 61.0096H158.236C158.825 61.0096 159.39 61.2431 159.806 61.6587C160.223 62.0742 160.457 62.6378 160.457 63.2255V65.1933H135.069V63.217C135.072 62.6308 135.307 62.0693 135.723 61.6556C136.139 61.2419 136.703 61.0096 137.291 61.0096Z" fill="#DC2028"/>
<path d="M135.069 65.1934H160.457V77.0428C160.457 77.4331 160.302 77.8074 160.025 78.0834C159.748 78.3593 159.373 78.5144 158.982 78.5144H136.553C136.162 78.5144 135.787 78.3593 135.51 78.0834C135.233 77.8074 135.078 77.4331 135.078 77.0428V65.1934H135.069Z" fill="white"/>
<path d="M157.978 63.8587C158.296 63.8587 158.553 63.602 158.553 63.2854C158.553 62.9689 158.296 62.7122 157.978 62.7122C157.661 62.7122 157.404 62.9689 157.404 63.2854C157.404 63.602 157.661 63.8587 157.978 63.8587Z" fill="white"/>
<path d="M137.291 84.6315H158.236C158.825 84.6315 159.39 84.865 159.806 85.2806C160.223 85.6961 160.457 86.2597 160.457 86.8474V88.8238H135.069V86.8474C135.069 86.2597 135.303 85.6961 135.72 85.2806C136.137 84.865 136.702 84.6315 137.291 84.6315Z" fill="#DC2028"/>
<path d="M135.069 88.8238H160.457V100.673C160.457 101.064 160.302 101.438 160.025 101.714C159.748 101.99 159.373 102.145 158.982 102.145H136.553C136.162 102.145 135.787 101.99 135.51 101.714C135.233 101.438 135.078 101.064 135.078 100.673V88.8238H135.069Z" fill="white"/>
<path d="M157.978 87.3009C158.296 87.3009 158.553 87.0442 158.553 86.7276C158.553 86.4111 158.296 86.1544 157.978 86.1544C157.661 86.1544 157.404 86.4111 157.404 86.7276C157.404 87.0442 157.661 87.3009 157.978 87.3009Z" fill="white"/>
<path d="M116.783 79.8233C118.19 80.7644 117.547 82.9718 115.257 84.5888C113.484 85.917 111.911 87.4898 110.582 89.2601C109.819 90.2098 109.536 86.779 110.582 83.8273C111.629 80.8756 114.785 78.4886 116.783 79.8233Z" fill="#DC2028"/>
<path d="M107.675 91.1338C108.773 88.2078 108.893 86.1373 107.675 84.1439C106.457 82.1505 103.232 82.2873 104.167 85.0679C105.102 87.8485 105.565 87.7116 106.26 90.4921C106.954 93.2727 107.297 92.1177 107.675 91.1338Z" fill="#DC2028"/>
<path d="M105.711 96.3612C106.225 93.2727 105.942 91.2279 104.364 89.5168C102.786 87.8057 99.6553 88.5415 101.105 91.0996C102.554 93.6577 102.983 93.4267 104.201 96.019C105.419 98.6114 105.539 97.3965 105.711 96.3612Z" fill="#DC2028"/>
<path d="M109.785 92.2973C111.5 89.6708 113.095 88.3532 115.428 88.1393C117.761 87.9255 119.562 90.5948 116.766 91.5017C113.97 92.4086 113.799 91.9551 111.14 93.0502C108.481 94.1454 109.21 93.1786 109.785 92.2973Z" fill="#DC2028"/>
<path d="M107.76 96.9772C109.776 94.5817 111.526 93.4694 113.867 93.555C116.209 93.6406 117.675 96.4981 114.785 97.0628C111.895 97.6274 111.792 97.1398 109.021 97.9183C106.251 98.6969 107.083 97.79 107.76 96.9772Z" fill="#DC2028"/>
<path d="M167.67 93.3326C167.353 93.3326 167.053 93.3326 166.77 93.2812H166.632C166.437 93.2654 166.256 93.1726 166.128 93.0234C166.001 92.8742 165.939 92.6807 165.955 92.4856C165.971 92.2904 166.064 92.1096 166.213 91.9828C166.363 91.8561 166.557 91.7938 166.753 91.8097H166.898C167.784 91.9164 168.683 91.7938 169.508 91.4537C170.332 91.1135 171.055 90.5673 171.607 89.8676C172.294 88.9756 173.214 88.289 174.266 87.8827C174.85 87.6295 175.469 87.4651 176.101 87.395C176.198 87.3844 176.296 87.3931 176.389 87.4206C176.482 87.4481 176.568 87.4939 176.643 87.5553C176.718 87.6166 176.781 87.6923 176.826 87.7779C176.871 87.8636 176.899 87.9573 176.908 88.0538C176.923 88.1536 176.918 88.2555 176.893 88.3534C176.868 88.4513 176.823 88.543 176.762 88.6231C176.7 88.7031 176.622 88.7698 176.534 88.819C176.445 88.8682 176.348 88.899 176.247 88.9094C175.759 88.9636 175.282 89.0905 174.832 89.2858C173.999 89.606 173.273 90.1547 172.739 90.8686C172.055 91.7606 171.138 92.4474 170.089 92.8535C169.324 93.177 168.501 93.34 167.67 93.3326Z" fill="#1B0202"/>
<path d="M169.343 97.328C169.017 97.328 168.725 97.328 168.442 97.2767H168.296C168.2 97.2682 168.105 97.2409 168.019 97.1961C167.933 97.1514 167.856 97.0901 167.794 97.0158C167.731 96.9415 167.684 96.8557 167.655 96.7632C167.625 96.6707 167.615 96.5734 167.623 96.4767C167.632 96.3801 167.659 96.2861 167.704 96.2001C167.749 96.114 167.81 96.0376 167.885 95.9753C167.959 95.9129 168.045 95.8658 168.138 95.8366C168.231 95.8074 168.328 95.7967 168.425 95.8051H168.571C169.46 95.9297 170.367 95.8023 171.187 95.4372C172.019 95.1202 172.745 94.5744 173.28 93.863C173.965 92.9703 174.881 92.2811 175.93 91.8696C176.518 91.6212 177.139 91.457 177.774 91.3819C177.871 91.3729 177.968 91.383 178.061 91.4117C178.154 91.4404 178.241 91.487 178.316 91.549C178.39 91.611 178.452 91.687 178.498 91.7729C178.543 91.8587 178.571 91.9526 178.58 92.0492C178.589 92.1459 178.579 92.2433 178.55 92.336C178.521 92.4287 178.475 92.5149 178.413 92.5896C178.35 92.6642 178.274 92.726 178.188 92.7713C178.102 92.8165 178.008 92.8445 177.911 92.8535C177.422 92.909 176.945 93.0389 176.496 93.2385C175.663 93.5555 174.938 94.1013 174.403 94.8127C173.794 95.5734 173.025 96.1921 172.151 96.6251C171.277 97.0581 170.319 97.2951 169.343 97.3195V97.328Z" fill="#1B0202"/>
<path d="M171.015 101.332C170.689 101.332 170.389 101.332 170.106 101.332H169.969C169.872 101.324 169.778 101.296 169.692 101.251C169.605 101.207 169.529 101.145 169.466 101.071C169.404 100.997 169.356 100.911 169.327 100.818C169.298 100.726 169.287 100.629 169.296 100.532C169.304 100.435 169.331 100.341 169.376 100.255C169.421 100.169 169.483 100.093 169.557 100.031C169.632 99.9682 169.718 99.9211 169.81 99.8919C169.903 99.8627 170.001 99.852 170.098 99.8604H170.235C171.128 99.9635 172.034 99.835 172.863 99.4873C173.692 99.1396 174.418 98.5845 174.969 97.8755C175.659 96.9857 176.578 96.2996 177.628 95.8907C178.212 95.635 178.83 95.4677 179.464 95.3944C179.66 95.3776 179.855 95.438 180.007 95.5627C180.159 95.6874 180.257 95.8665 180.278 96.0618C180.295 96.2566 180.234 96.4502 180.109 96.6007C179.984 96.7512 179.804 96.8465 179.609 96.866C179.121 96.9235 178.644 97.0532 178.194 97.251C177.362 97.5684 176.636 98.1141 176.101 98.8252C175.492 99.586 174.724 100.205 173.849 100.638C172.975 101.071 172.017 101.308 171.041 101.332H171.015Z" fill="#1B0202"/>
</svg>
