<svg width="199" height="138" viewBox="0 0 199 138" fill="none" xmlns="http://www.w3.org/2000/svg">
<path d="M87.3763 51.3667C93.0478 47.4107 94.4331 44.9037 98.9719 36.1713C103.511 27.439 116.178 23.276 125.355 30.3983C134.532 37.5207 132.748 46.7667 140.655 51.3667C148.561 55.9667 153.291 58.8647 151.317 74.2133C149.342 89.562 124.85 114.678 92.8488 110.921C60.8481 107.165 44.2622 88.0593 43.2748 70.1883C42.2875 52.3173 60.5725 48.76 70.2929 52.3173C73.0431 53.39 75.9907 53.8601 78.9374 53.6961C81.8842 53.5321 84.7617 52.7378 87.3763 51.3667Z" fill="#141414"/>
<path d="M102.462 94.1467C106.818 96.3763 111.725 97.2975 116.591 96.7993C121.457 96.3012 126.077 94.4049 129.892 91.3387C133.708 88.2726 136.558 84.1672 138.099 79.5167C139.64 74.8661 139.806 69.8686 138.578 65.1256C137.35 60.3825 134.779 56.0961 131.176 52.7821C127.573 49.4681 123.09 47.2677 118.268 46.4459C113.445 45.624 108.488 46.2156 103.994 48.1496C99.4989 50.0835 95.658 53.2774 92.933 57.3467C92.3765 58.1743 91.8655 59.0317 91.4022 59.915C89.8833 62.8871 88.9636 66.1297 88.6958 69.4577C88.4281 72.7858 88.8174 76.1341 89.8415 79.3115C90.8657 82.4888 92.5047 85.433 94.6649 87.9758C96.8251 90.5186 99.4642 92.6103 102.431 94.1314L102.462 94.1467ZM106.932 49.5114C109.814 48.5697 112.854 48.2101 115.876 48.4536C118.897 48.697 121.841 49.5387 124.536 50.9297C126.304 51.8363 127.95 52.9647 129.434 54.2877C127.008 54.1037 123.923 54.7937 120.495 56.258C117.756 53.9011 114.624 52.0479 111.241 50.784C109.691 50.2159 108.076 49.8425 106.434 49.6724L106.932 49.5114ZM110.483 52.9537C113.271 53.9967 115.875 55.4769 118.198 57.339C114.864 59.0715 111.705 61.1257 108.769 63.4724L99.9516 53.2604C102.562 51.5737 106.297 51.4587 110.483 52.9537ZM98.2371 54.7707L107.016 64.9137C104.039 67.3923 101.323 70.1693 98.9107 73.2014C97.5372 70.5401 96.6016 67.6743 96.14 64.7144C95.5124 60.5054 96.2548 57.04 98.2065 54.7707H98.2371ZM92.114 78.6217C91.1776 75.7339 90.8213 72.6889 91.0656 69.6624C91.31 66.636 92.1501 63.6879 93.5377 60.9884L93.729 60.628C93.6239 62.1018 93.6803 63.5826 93.8974 65.044C94.4564 68.6339 95.6513 72.0949 97.4258 75.2637C97.3416 75.3787 97.2574 75.5014 97.1809 75.624C95.6458 77.7738 94.5388 80.1999 93.9204 82.7694C93.1579 81.4544 92.5321 80.0646 92.0528 78.6217H92.114Z" fill="#DC2028"/>
<path d="M137.83 54.694C139.788 54.2365 141.819 54.1973 143.793 54.579C144.35 54.7262 144.871 54.9872 145.324 55.3456C145.843 55.7499 146.208 56.3212 146.357 56.9633C146.541 58.126 146.313 59.3164 145.714 60.329C144.714 62.0972 143.463 63.7111 142.002 65.1206C140.602 66.507 139.125 67.8124 137.578 69.0306C131.408 73.7909 124.753 77.8847 117.724 81.2436C110.746 84.7088 103.424 87.4326 95.8797 89.3703C93.9677 89.8396 92.0307 90.2005 90.0781 90.4513C88.0691 90.7419 86.0301 90.7599 84.0163 90.505C82.8606 90.3611 81.7724 89.8813 80.8858 89.125C80.3982 88.6471 80.0878 88.017 80.0057 87.3386C79.9539 86.7336 80.043 86.1247 80.2659 85.56C80.6517 84.5785 81.2032 83.6709 81.8962 82.8766C82.5366 82.1253 83.2298 81.4208 83.9703 80.7683C84.0524 80.7046 84.1549 80.6729 84.2585 80.6791C84.3622 80.6853 84.4601 80.7291 84.534 80.8022C84.6079 80.8753 84.6528 80.9728 84.6604 81.0765C84.6679 81.1803 84.6376 81.2833 84.575 81.3663C83.9557 82.0753 83.3854 82.8258 82.8682 83.6126C82.3595 84.3345 81.9717 85.1347 81.7201 85.9816C81.6222 86.3307 81.6013 86.697 81.6589 87.055C81.7235 87.3373 81.8863 87.5873 82.1181 87.7603C82.7643 88.1727 83.5105 88.4007 84.2765 88.4196C86.0947 88.5021 87.9159 88.35 89.6954 87.9673C91.5247 87.6146 93.354 87.2006 95.1603 86.6486C98.7729 85.5676 102.363 84.3486 105.876 82.8766C109.389 81.4046 112.879 79.925 116.293 78.2766C119.706 76.6283 123.089 74.865 126.38 72.9713C129.68 71.1112 132.883 69.0846 135.978 66.8993C137.509 65.8004 138.984 64.6376 140.402 63.411C141.806 62.2528 143.038 60.9001 144.061 59.3936C144.517 58.7795 144.767 58.0356 144.772 57.27C144.727 56.6796 144.176 56.1813 143.372 55.8746C142.52 55.5702 141.627 55.397 140.724 55.361C139.781 55.3034 138.835 55.3034 137.892 55.361C137.81 55.3701 137.729 55.3466 137.665 55.2956C137.601 55.2445 137.56 55.1702 137.551 55.0888C137.542 55.0075 137.565 54.9258 137.616 54.8619C137.667 54.7979 137.742 54.7568 137.823 54.7477L137.83 54.694Z" fill="#FAFAFA"/>
<path d="M133.001 77.9163C137.224 77.9163 140.647 74.4873 140.647 70.2573C140.647 66.0274 137.224 62.5983 133.001 62.5983C128.778 62.5983 125.355 66.0274 125.355 70.2573C125.355 74.4873 128.778 77.9163 133.001 77.9163Z" fill="#FAFAFA"/>
<path d="M134.761 68.0187L139.507 70.8093L134.761 73.8377V71.875L136.315 70.932L134.761 70.0657V68.0187Z" fill="#141414"/>
<path d="M131.24 66.5467L126.495 69.3297L131.24 72.3657V70.3954L129.687 69.4524L131.24 68.5937V66.5467Z" fill="#141414"/>
<path d="M133.292 66.5467L131.654 73.8377H132.787L134.555 66.5467H133.292Z" fill="#141414"/>
<path d="M90.92 93.7173C93.2196 93.7173 95.0837 91.85 95.0837 89.5466C95.0837 87.2432 93.2196 85.376 90.92 85.376C88.6205 85.376 86.7563 87.2432 86.7563 89.5466C86.7563 91.85 88.6205 93.7173 90.92 93.7173Z" fill="#FAFAFA"/>
<path d="M88.5091 88.3507V90.7427C88.5094 90.8037 88.5259 90.8635 88.5568 90.916C88.5877 90.9685 88.632 91.0119 88.6851 91.0417L90.744 92.23C90.7964 92.2603 90.8558 92.2763 90.9162 92.2763C90.9767 92.2763 91.0361 92.2603 91.0884 92.23L93.155 91.0417C93.2072 91.0115 93.2503 90.9678 93.28 90.9153C93.3096 90.8627 93.3246 90.8031 93.3233 90.7427V88.3507C93.3246 88.2903 93.3096 88.2307 93.28 88.1781C93.2503 88.1255 93.2072 88.0819 93.155 88.0517L91.0808 86.8634C91.0284 86.8331 90.969 86.8171 90.9086 86.8171C90.8481 86.8171 90.7887 86.8331 90.7363 86.8634L88.6775 88.0517C88.6258 88.0825 88.583 88.1263 88.5535 88.1787C88.524 88.2312 88.5086 88.2905 88.5091 88.3507Z" fill="#0A0D16"/>
<path d="M115.696 101.422C115.695 101.484 115.675 101.544 115.64 101.595C115.604 101.646 115.554 101.684 115.497 101.706C115.191 101.821 114.913 102.001 114.682 102.232C114.451 102.463 114.272 102.741 114.157 103.048C114.135 103.106 114.097 103.156 114.046 103.191C113.996 103.227 113.936 103.246 113.874 103.247C113.812 103.245 113.753 103.225 113.702 103.19C113.652 103.155 113.613 103.105 113.591 103.048C113.476 102.741 113.297 102.463 113.066 102.232C112.835 102.001 112.557 101.821 112.251 101.706C112.194 101.683 112.145 101.645 112.109 101.594C112.074 101.544 112.054 101.484 112.052 101.422C112.053 101.36 112.072 101.3 112.108 101.25C112.143 101.199 112.193 101.16 112.251 101.139C112.557 101.023 112.835 100.844 113.066 100.613C113.297 100.381 113.476 100.103 113.591 99.797C113.612 99.739 113.651 99.689 113.702 99.6534C113.752 99.6178 113.812 99.5984 113.874 99.5977C113.936 99.5973 113.997 99.6163 114.047 99.652C114.098 99.6877 114.136 99.7384 114.157 99.797C114.272 100.103 114.451 100.381 114.682 100.613C114.913 100.844 115.191 101.023 115.497 101.139C115.555 101.159 115.606 101.198 115.641 101.249C115.677 101.299 115.696 101.36 115.696 101.422Z" fill="#FAFAFA"/>
<path d="M71.9461 96.9834V94.599C71.9472 94.5376 71.9321 94.4771 71.9026 94.4233C71.8731 94.3695 71.83 94.3244 71.7778 94.2924L69.7112 93.104C69.6589 93.0737 69.5995 93.0578 69.539 93.0578C69.4786 93.0578 69.4192 93.0737 69.3668 93.104L67.285 94.3C67.2318 94.3317 67.1876 94.3765 67.1568 94.4302C67.1259 94.4839 67.1095 94.5447 67.1089 94.6067V96.991C67.1093 97.052 67.1257 97.1118 67.1567 97.1643C67.1876 97.2168 67.2319 97.2602 67.285 97.29L69.3438 98.486C69.3962 98.5163 69.4556 98.5322 69.516 98.5322C69.5765 98.5322 69.6359 98.5163 69.6883 98.486L71.7548 97.29C71.8125 97.2624 71.8611 97.2188 71.895 97.1645C71.9288 97.1102 71.9466 97.0474 71.9461 96.9834Z" fill="#DC2028"/>
<path d="M84.0699 59.0793V57.891C84.0684 57.8607 84.0601 57.8312 84.0455 57.8046C84.0309 57.778 84.0104 57.7551 83.9857 57.7377L82.9524 57.1473C82.9266 57.1292 82.8959 57.1194 82.8644 57.1194C82.8329 57.1194 82.8021 57.1292 82.7764 57.1473L81.7431 57.7377C81.717 57.7537 81.6954 57.7762 81.6807 57.8031C81.6659 57.83 81.6584 57.8603 81.6589 57.891V59.0793C81.6576 59.1102 81.6647 59.1408 81.6796 59.1678C81.6944 59.1948 81.7164 59.2173 81.7431 59.2327L82.7764 59.8307C82.8034 59.8454 82.8336 59.8532 82.8644 59.8532C82.8951 59.8532 82.9254 59.8454 82.9524 59.8307L83.9857 59.2327C84.0113 59.2161 84.0324 59.1934 84.0471 59.1667C84.0618 59.1399 84.0696 59.1099 84.0699 59.0793Z" fill="#FAFAFA"/>
<path d="M80.2047 75.7007V74.7807C80.2041 74.758 80.1982 74.7359 80.1876 74.7159C80.177 74.696 80.1619 74.6787 80.1434 74.6657L79.3781 74.2133C79.3583 74.2019 79.3358 74.1959 79.313 74.1959C79.2902 74.1959 79.2677 74.2019 79.2479 74.2133L78.4826 74.6657C78.4641 74.6787 78.449 74.696 78.4384 74.7159C78.4278 74.7359 78.4219 74.758 78.4213 74.7807V75.7007C78.4213 75.7234 78.4269 75.7458 78.4375 75.7659C78.4482 75.7859 78.4637 75.803 78.4826 75.8157L79.2479 76.2757C79.2677 76.2871 79.2902 76.2931 79.313 76.2931C79.3358 76.2931 79.3583 76.2871 79.3781 76.2757L80.1434 75.8157C80.1623 75.803 80.1778 75.7859 80.1885 75.7659C80.1991 75.7458 80.2047 75.7234 80.2047 75.7007Z" fill="#FAFAFA"/>
<path d="M79.2785 81.374V80.454C79.2786 80.4313 79.273 80.4089 79.2623 80.3888C79.2516 80.3687 79.2362 80.3516 79.2173 80.339L78.4519 79.8867C78.4332 79.8724 78.4104 79.8646 78.3869 79.8646C78.3633 79.8646 78.3405 79.8724 78.3218 79.8867L77.5564 80.339C77.5375 80.3516 77.5221 80.3687 77.5114 80.3888C77.5007 80.4089 77.4951 80.4313 77.4952 80.454V81.374C77.4951 81.3967 77.5007 81.4191 77.5114 81.4392C77.5221 81.4593 77.5375 81.4764 77.5564 81.489L78.3218 81.949C78.3416 81.9604 78.364 81.9665 78.3869 81.9665C78.4097 81.9665 78.4321 81.9604 78.4519 81.949L79.2173 81.489C79.2362 81.4764 79.2516 81.4593 79.2623 81.4392C79.273 81.4191 79.2786 81.3967 79.2785 81.374Z" fill="#FAFAFA"/>
<path d="M72.612 80.3007V79.3884C72.6106 79.3651 72.6036 79.3425 72.5916 79.3224C72.5796 79.3024 72.563 79.2856 72.5432 79.2734L71.7778 78.8134C71.758 78.8019 71.7356 78.7959 71.7127 78.7959C71.6899 78.7959 71.6674 78.8019 71.6477 78.8134L70.8823 79.2734C70.8609 79.2838 70.843 79.3002 70.8307 79.3206C70.8185 79.341 70.8125 79.3646 70.8134 79.3884V80.3007C70.8125 80.3245 70.8185 80.348 70.8307 80.3685C70.843 80.3889 70.8609 80.4053 70.8823 80.4157L71.6477 80.8757C71.6674 80.8871 71.6899 80.8932 71.7127 80.8932C71.7356 80.8932 71.758 80.8871 71.7778 80.8757L72.5432 80.4157C72.563 80.4035 72.5796 80.3866 72.5916 80.3666C72.6036 80.3466 72.6106 80.324 72.612 80.3007Z" fill="#FAFAFA"/>
<path d="M55.4291 66.999V66.0866C55.4277 66.0633 55.4207 66.0407 55.4087 66.0207C55.3967 66.0007 55.3801 65.9839 55.3603 65.9716L54.5949 65.5116C54.5737 65.5002 54.55 65.4943 54.526 65.4943C54.5019 65.4943 54.4783 65.5002 54.4571 65.5116L53.6917 65.9716C53.6703 65.982 53.6524 65.9985 53.6402 66.0189C53.628 66.0393 53.6219 66.0628 53.6228 66.0866V66.999C53.6219 67.0228 53.628 67.0463 53.6402 67.0667C53.6524 67.0872 53.6703 67.1036 53.6917 67.114L54.4571 67.574C54.4783 67.5854 54.5019 67.5914 54.526 67.5914C54.55 67.5914 54.5737 67.5854 54.5949 67.574L55.3603 67.114C55.3801 67.1017 55.3967 67.0849 55.4087 67.0649C55.4207 67.0449 55.4277 67.0223 55.4291 66.999Z" fill="#FAFAFA"/>
<path d="M116.43 38.1186V36.9226C116.426 36.8962 116.416 36.8711 116.4 36.8497C116.384 36.8282 116.363 36.8112 116.338 36.8L115.305 36.202C115.28 36.1872 115.251 36.1794 115.221 36.1794C115.191 36.1794 115.162 36.1872 115.137 36.202L114.104 36.8C114.077 36.8141 114.056 36.8352 114.041 36.8609C114.026 36.8866 114.019 36.9159 114.019 36.9456V38.1416C114.019 38.1723 114.026 38.2026 114.041 38.2295C114.056 38.2564 114.077 38.279 114.104 38.295L115.137 38.8853C115.162 38.9001 115.191 38.9079 115.221 38.9079C115.251 38.9079 115.28 38.9001 115.305 38.8853L116.338 38.295C116.37 38.2783 116.395 38.2525 116.412 38.221C116.428 38.1896 116.434 38.1539 116.43 38.1186Z" fill="#FAFAFA"/>
<path d="M73.3009 47.4413C72.9452 47.4842 72.5846 47.4324 72.2554 47.2911C71.9261 47.1497 71.6399 46.9239 71.4257 46.6363C70.7215 45.4633 71.9308 43.976 72.3288 43.4853C72.3932 43.4038 72.4729 43.3357 72.5635 43.285C72.6541 43.2343 72.7537 43.202 72.8568 43.1899C72.9599 43.1778 73.0643 43.1862 73.1641 43.2145C73.2639 43.2428 73.3572 43.2905 73.4386 43.355C73.5201 43.4194 73.588 43.4993 73.6386 43.59C73.6892 43.6808 73.7215 43.7806 73.7336 43.8838C73.7456 43.9871 73.7373 44.0917 73.709 44.1917C73.6808 44.2917 73.6331 44.3851 73.5688 44.4667C72.8034 45.4326 72.8034 45.816 72.8034 45.816C73.3621 46.1916 77.2579 45.2946 82.8605 41.9136C88.4632 38.5326 91.0501 35.535 90.966 34.776C90.8206 34.768 90.675 34.768 90.5297 34.776C90.1409 34.7851 89.754 34.8313 89.374 34.914C89.2734 34.9351 89.1698 34.9362 89.0688 34.9172C88.9679 34.8982 88.8717 34.8595 88.7857 34.8033C88.6997 34.747 88.6256 34.6744 88.5676 34.5895C88.5096 34.5045 88.4689 34.409 88.4478 34.3083C88.4267 34.2076 88.4256 34.1038 88.4446 34.0027C88.4636 33.9016 88.5022 33.8052 88.5584 33.719C88.6145 33.6329 88.687 33.5587 88.7718 33.5006C88.8566 33.4426 88.952 33.4018 89.0525 33.3807C89.6878 33.2503 91.6242 32.844 92.3437 34.04C93.7673 36.4013 87.5676 41.0013 83.6795 43.3473C80.7404 45.0953 76.0256 47.4413 73.3009 47.4413Z" fill="#DC2028"/>
<path d="M125.355 38.893C126.048 38.893 126.61 38.3301 126.61 37.6357C126.61 36.9413 126.048 36.3784 125.355 36.3784C124.661 36.3784 124.099 36.9413 124.099 37.6357C124.099 38.3301 124.661 38.893 125.355 38.893Z" fill="#FAFAFA"/>
<path d="M86.1211 57.0936C86.4677 57.0936 86.7487 56.8122 86.7487 56.465C86.7487 56.1178 86.4677 55.8363 86.1211 55.8363C85.7745 55.8363 85.4935 56.1178 85.4935 56.465C85.4935 56.8122 85.7745 57.0936 86.1211 57.0936Z" fill="#FAFAFA"/>
<path d="M86.7487 70.817C87.0953 70.817 87.3763 70.5356 87.3763 70.1884C87.3763 69.8412 87.0953 69.5597 86.7487 69.5597C86.4021 69.5597 86.1211 69.8412 86.1211 70.1884C86.1211 70.5356 86.4021 70.817 86.7487 70.817Z" fill="#FAFAFA"/>
<path d="M73.3238 99.2067C73.6705 99.2067 73.9515 98.9252 73.9515 98.578C73.9515 98.2308 73.6705 97.9493 73.3238 97.9493C72.9772 97.9493 72.6962 98.2308 72.6962 98.578C72.6962 98.9252 72.9772 99.2067 73.3238 99.2067Z" fill="#FAFAFA"/>
<path d="M90.92 101.422C91.2667 101.422 91.5476 101.141 91.5476 100.794C91.5476 100.446 91.2667 100.165 90.92 100.165C90.5734 100.165 90.2924 100.446 90.2924 100.794C90.2924 101.141 90.5734 101.422 90.92 101.422Z" fill="#FAFAFA"/>
<path d="M103.005 106.843C103.352 106.843 103.633 106.561 103.633 106.214C103.633 105.867 103.352 105.585 103.005 105.585C102.659 105.585 102.378 105.867 102.378 106.214C102.378 106.561 102.659 106.843 103.005 106.843Z" fill="#FAFAFA"/>
<path d="M100.755 97.9493C101.102 97.9493 101.383 97.6679 101.383 97.3207C101.383 96.9735 101.102 96.692 100.755 96.692C100.409 96.692 100.128 96.9735 100.128 97.3207C100.128 97.6679 100.409 97.9493 100.755 97.9493Z" fill="#FAFAFA"/>
<path d="M147.819 65.458C148.411 65.458 148.89 64.9775 148.89 64.3847C148.89 63.7919 148.411 63.3113 147.819 63.3113C147.227 63.3113 146.747 63.7919 146.747 64.3847C146.747 64.9775 147.227 65.458 147.819 65.458Z" fill="#DC2028"/>
<path d="M82.8529 47.4413C86.0739 47.4413 88.6851 44.8258 88.6851 41.5993C88.6851 38.3729 86.0739 35.7573 82.8529 35.7573C79.6318 35.7573 77.0207 38.3729 77.0207 41.5993C77.0207 44.8258 79.6318 47.4413 82.8529 47.4413Z" fill="#DC2028"/>
<path d="M62.3788 62.5294L63.2054 64.055L64.7362 64.8907L63.2054 65.7264L62.3788 67.252L61.5446 65.7264L60.0138 64.8907L61.5446 64.055L62.3788 62.5294Z" fill="#DC2028"/>
<path d="M69.5199 64.8754L70.6986 67.045L72.8646 68.2334L70.6986 69.414L69.5199 71.5837L68.3335 69.414L66.1675 68.2334L68.3335 67.045L69.5199 64.8754Z" fill="#DC2028"/>
<path d="M63.2284 69.4523L64.6444 72.0437L67.2314 73.462L64.6444 74.8727L63.2284 77.464L61.8201 74.8727L59.2331 73.462L61.8201 72.0437L63.2284 69.4523Z" fill="#DC2028"/>
<path d="M128.424 42.0516L129.059 43.2246L130.23 43.8686L129.059 44.505L128.424 45.6856L127.781 44.505L126.61 43.8686L127.781 43.2246L128.424 42.0516Z" fill="#DC2028"/>
<path d="M144.145 75.555L144.979 77.0883L146.502 77.924L144.979 78.752L144.145 80.2853L143.311 78.752L141.787 77.924L143.311 77.0883L144.145 75.555Z" fill="#DC2028"/>
<path d="M148.89 78.6293L150.069 80.799L152.235 81.9873L150.069 83.168L148.89 85.3377L147.704 83.168L145.546 81.9873L147.704 80.799L148.89 78.6293Z" fill="#DC2028"/>
<path d="M151.768 70.6024L153.176 73.1937L155.763 74.6044L153.176 76.0227L151.768 78.614L150.352 76.0227L147.765 74.6044L150.352 73.1937L151.768 70.6024Z" fill="#DC2028"/>
</svg>
