<svg width="184" height="128" viewBox="0 0 184 128" fill="none" xmlns="http://www.w3.org/2000/svg">
<path d="M108.61 39.3245C91.08 34.6382 73.5717 36.6507 65.1643 39.3245C56.7569 41.9982 54.4074 55.2818 55.3557 65.1022C56.1978 73.8418 56.7711 91.5698 70.7692 92.8356C79.7144 93.6533 95.7295 93.4827 108.05 92.6436V100.786C108.049 101.059 108.143 101.324 108.314 101.535C108.485 101.747 108.725 101.892 108.991 101.947C109.257 102.001 109.533 101.961 109.774 101.834C110.014 101.707 110.203 101.5 110.308 101.248L114.172 92.1458C117.307 91.9213 120.416 91.4216 123.464 90.6525C130.753 88.3413 131.588 76.9138 132.154 68.1245C132.721 59.3351 132.827 45.8027 108.61 39.3245Z" fill="#DC2028"/>
<path d="M86.9683 99.3209H51.704C51.704 99.3209 42.228 99.8542 41.5628 95.6516C41.1594 93.0987 43.9972 92.6436 46.6369 89.5645C49.2766 86.4853 45.0092 84.4445 39.9422 84.0391C34.8751 83.6338 31.4498 80.3698 37.9111 75.5058C44.3723 70.6418 48.0523 67.4987 42.5748 61.2125C37.0972 54.9262 29.2631 47.7013 38.5197 44.4942C46.7502 41.6498 54.5772 60.4231 56.6861 67.1502C58.7951 73.8773 63.5932 72.2418 66.976 65.9271C70.3588 59.6125 78.6742 57.3938 78.6742 67.7618C78.6742 78.1298 71.8945 85.8951 82.9911 86.912C94.0877 87.9289 95.2058 90.9227 93.2031 95.6729C91.6603 99.3209 86.9683 99.3209 86.9683 99.3209Z" fill="#0D1019"/>
<path d="M106.649 55.6587C106.649 52.1847 105.276 48.853 102.831 46.3965C100.387 43.94 97.0708 42.56 93.6136 42.56C90.1563 42.56 86.8406 43.94 84.3959 46.3965C81.9513 48.853 80.5779 52.1847 80.5779 55.6587C80.5779 55.8151 80.5779 55.9716 80.5779 56.1209C80.5142 57.4364 80.6203 61.4116 83.6988 66.2187C85.2448 68.7537 86.2475 71.585 86.6428 74.5316H100.606C101.001 71.585 102.004 68.7537 103.55 66.2187C107.35 60.3093 106.649 55.6587 106.649 55.6587Z" fill="#FAFAFA"/>
<path d="M95.22 78.4569H92.0637C91.9436 78.4555 91.8272 78.4154 91.7316 78.3424C91.636 78.2694 91.5663 78.1674 91.5329 78.0516L86.0554 57.6427C85.8126 57.2081 85.6835 56.7188 85.6803 56.2204C85.6809 56.088 85.7293 55.9602 85.8165 55.8608C85.9036 55.7614 86.0237 55.6972 86.1545 55.68C86.2844 55.6648 86.4156 55.6965 86.5244 55.7694C86.6333 55.8424 86.7129 55.9518 86.7489 56.0782L87.0603 57.2587C87.2886 57.6023 87.62 57.8638 88.0064 58.0051C88.3928 58.1464 88.814 58.1601 89.2087 58.0443C89.6034 57.9285 89.951 57.6892 90.201 57.3612C90.451 57.0331 90.5904 56.6335 90.5988 56.2204C90.614 56.0869 90.6776 55.9636 90.7774 55.8741C90.8772 55.7846 91.0064 55.7352 91.1401 55.7352C91.2739 55.7352 91.403 55.7846 91.5029 55.8741C91.6027 55.9636 91.6663 56.0869 91.6815 56.2204C91.6688 56.4848 91.7099 56.749 91.8025 56.9968C91.895 57.2446 92.037 57.4707 92.2198 57.6613C92.4025 57.852 92.6221 58.003 92.865 58.1053C93.108 58.2075 93.3691 58.2587 93.6325 58.2558C93.8959 58.2529 94.1559 58.1959 94.3966 58.0883C94.6372 57.9807 94.8534 57.8248 95.0319 57.6302C95.2104 57.4356 95.3474 57.2064 95.4345 56.9566C95.5217 56.7068 95.557 56.4418 95.5385 56.1778C95.5385 56.0326 95.5959 55.8933 95.6981 55.7906C95.8002 55.6879 95.9389 55.6302 96.0834 55.6302C96.2279 55.6302 96.3665 55.6879 96.4687 55.7906C96.5709 55.8933 96.6283 56.0326 96.6283 56.1778C96.6367 56.5909 96.776 56.9905 97.026 57.3185C97.276 57.6465 97.6237 57.8859 98.0184 58.0017C98.4131 58.1175 98.8342 58.1037 99.2206 57.9624C99.607 57.8211 99.9385 57.5596 100.167 57.216L100.478 56.0356C100.514 55.9078 100.595 55.7973 100.705 55.7243C100.816 55.6512 100.949 55.6203 101.08 55.6373C101.209 55.6561 101.328 55.721 101.413 55.8202C101.499 55.9195 101.546 56.0464 101.547 56.1778C101.543 56.6751 101.416 57.1637 101.179 57.6L95.6941 78.0089C95.6726 78.1244 95.615 78.2301 95.5298 78.3106C95.4445 78.3911 95.3361 78.4423 95.22 78.4569ZM92.4741 77.3618H94.8308L99.7846 58.9867C99.1486 59.2479 98.4433 59.2846 97.7839 59.0908C97.1244 58.8971 96.5499 58.4843 96.1541 57.92C95.8756 58.3205 95.505 58.6475 95.0738 58.8733C94.6426 59.0991 94.1635 59.2171 93.6772 59.2171C93.191 59.2171 92.7119 59.0991 92.2807 58.8733C91.8495 58.6475 91.4788 58.3205 91.2003 57.92C90.8046 58.4843 90.23 58.8971 89.5706 59.0908C88.9111 59.2846 88.2058 59.2479 87.5698 58.9867L92.4741 77.3618Z" fill="#DC2028"/>
<path d="M102.679 73.5431H84.5975C84.5974 75.1109 85.018 76.6498 85.8151 77.9976C86.6122 79.3455 87.7562 80.4524 89.1268 81.2018C90.1707 81.7561 91.0591 82.5655 91.7098 83.5555V83.6053C92.2573 84.0201 92.9243 84.2444 93.61 84.2444C94.2956 84.2444 94.9627 84.0201 95.5102 83.6053V83.5555C96.1623 82.5667 97.0503 81.7576 98.0932 81.2018C99.4743 80.4599 100.63 79.3562 101.437 78.0079C102.245 76.6595 102.674 75.1167 102.679 73.5431Z" fill="#0D1019"/>
<path d="M55.5114 69.4969L51.5059 65.472L47.5003 69.4969C47.4286 69.5718 47.3802 69.6662 47.3611 69.7684C47.342 69.8706 47.3531 69.9761 47.3929 70.0721C47.4328 70.1681 47.4997 70.2502 47.5854 70.3085C47.6711 70.3667 47.7719 70.3985 47.8754 70.4H50.1188V73.9555H52.8929V70.4H55.1292C55.2333 70.3999 55.3351 70.3691 55.4219 70.3114C55.5087 70.2537 55.5766 70.1716 55.6174 70.0753C55.6581 69.9791 55.6698 69.873 55.6509 69.7701C55.6321 69.6673 55.5836 69.5722 55.5114 69.4969Z" fill="#E2EAF2"/>
<path d="M68.0517 79.9645L64.0462 75.9396L60.0406 79.9645C59.9671 80.0404 59.9174 80.1364 59.8977 80.2405C59.878 80.3447 59.8892 80.4523 59.93 80.55C59.9707 80.6478 60.0391 80.7314 60.1267 80.7904C60.2144 80.8493 60.3173 80.8811 60.4228 80.8818H62.6591V84.4374H65.4332V80.8818H67.6766C67.783 80.8832 67.8873 80.8524 67.9761 80.7934C68.0648 80.7345 68.1339 80.6501 68.1743 80.5512C68.2148 80.4523 68.2247 80.3435 68.2028 80.2389C68.181 80.1342 68.1283 80.0386 68.0517 79.9645Z" fill="#E2EAF2"/>
<path d="M68.0517 58.1262L64.0461 54.1013L60.0406 58.1262C59.9738 58.2029 59.9299 58.297 59.914 58.3977C59.8982 58.4983 59.9109 58.6014 59.9509 58.6951C59.9909 58.7888 60.0564 58.8692 60.1399 58.9271C60.2233 58.985 60.3214 59.0179 60.4228 59.0222H62.6591V62.5778H65.4332V59.0222H67.6766C67.7787 59.0195 67.8778 58.9873 67.9621 58.9294C68.0464 58.8715 68.1123 58.7904 68.1519 58.6958C68.1915 58.6013 68.2031 58.4972 68.1853 58.3962C68.1676 58.2951 68.1212 58.2014 68.0517 58.1262Z" fill="#E2EAF2"/>
<path d="M149.762 37.248C149.103 35.532 148.179 33.9312 147.023 32.5049L139.352 33.3369L136.245 26.2258C134.447 25.9319 132.614 25.9319 130.817 26.2258L127.689 33.3369L120.018 32.5049C118.86 33.9325 117.944 35.5423 117.307 37.2693L121.85 43.4916L117.307 49.7351C117.949 51.4644 118.872 53.0745 120.039 54.4996L127.689 53.6533L130.817 60.7644C132.615 61.0489 134.447 61.0489 136.245 60.7644L139.352 53.6533L147.002 54.4996C148.169 53.073 149.094 51.4634 149.741 49.7351L145.197 43.4916L149.762 37.248ZM133.534 51.1431C132.028 51.1445 130.555 50.697 129.302 49.857C128.049 49.0171 127.072 47.8226 126.494 46.4246C125.917 45.0266 125.765 43.4879 126.058 42.0032C126.351 40.5185 127.076 39.1544 128.14 38.0836C129.205 37.0128 130.562 36.2834 132.039 35.9875C133.517 35.6917 135.048 35.8428 136.44 36.4218C137.832 37.0007 139.021 37.9814 139.858 39.2398C140.695 40.4983 141.142 41.9779 141.142 43.4916C141.143 44.496 140.947 45.4909 140.565 46.4191C140.183 47.3474 139.623 48.191 138.916 48.9016C138.21 49.6122 137.371 50.1759 136.447 50.5605C135.524 50.9451 134.534 51.1431 133.534 51.1431Z" fill="#0D1019"/>
<path d="M133.534 47.4382C135.704 47.4382 137.462 45.6712 137.462 43.4916C137.462 41.3119 135.704 39.5449 133.534 39.5449C131.365 39.5449 129.607 41.3119 129.607 43.4916C129.607 45.6712 131.365 47.4382 133.534 47.4382Z" fill="#E2EAF2"/>
</svg>
