<svg width="233" height="161" viewBox="0 0 233 161" fill="none" xmlns="http://www.w3.org/2000/svg">
<path d="M159.049 130.276H86.0308C84.9744 130.275 83.9333 130.025 82.9922 129.546C82.0512 129.067 81.2369 128.372 80.6157 127.52C79.9946 126.667 79.5841 125.68 79.4179 124.638C79.2516 123.597 79.3343 122.531 79.6591 121.528L86.9269 99.0955C90.4578 88.2012 101.086 80.8399 111.257 80.8399H133.858C144.03 80.8399 154.658 88.2012 158.189 99.0955L165.457 121.528C165.785 122.534 165.868 123.604 165.701 124.649C165.534 125.693 165.12 126.684 164.495 127.538C163.869 128.392 163.049 129.086 162.103 129.562C161.156 130.038 160.109 130.282 159.049 130.276Z" fill="#0D1019"/>
<path d="M122.101 32.3968H121.447C110.583 32.3968 101.776 41.1868 101.776 52.0298V65.6343C101.776 76.4774 110.583 85.2674 121.447 85.2674H122.101C132.965 85.2674 141.772 76.4774 141.772 65.6343V52.0298C141.772 41.1868 132.965 32.3968 122.101 32.3968Z" fill="#DC2028"/>
<path d="M128.903 84.0778L127.406 72.0475H117.638L116.142 84.0778C116.142 84.0778 121.196 85.8666 128.903 84.0778Z" fill="#D78A69"/>
<path d="M122.782 38.1302H122.262C113.754 38.1302 106.857 45.014 106.857 53.5057V64.1674C106.857 72.6591 113.754 79.5429 122.262 79.5429H122.782C131.29 79.5429 138.187 72.6591 138.187 64.1674V53.5057C138.187 45.014 131.29 38.1302 122.782 38.1302Z" fill="#EAA88E"/>
<path d="M122.881 30.7242H122.173C116.631 30.7407 111.322 32.9458 107.404 36.8575C103.487 40.7693 101.28 46.0697 101.265 51.6005V66.0726C101.28 71.6027 103.487 76.9021 107.405 80.8125C111.322 84.7228 116.632 86.9258 122.173 86.94H122.881C128.42 86.9235 133.729 84.7197 137.646 80.8099C141.563 76.9 143.771 71.6019 143.788 66.0726V51.6005C143.774 46.0697 141.567 40.7693 137.649 36.8575C133.732 32.9458 128.422 30.7407 122.881 30.7242ZM139.549 69.1137C139.549 77.0475 132.729 83.5322 124.395 83.5322H120.81C112.476 83.5322 105.648 77.0475 105.648 69.1137V62.6111C105.648 54.6774 112.476 48.1837 120.81 48.1837H124.395C132.729 48.1837 139.549 54.6774 139.549 62.6111V69.1137Z" fill="#0D1019"/>
<path d="M137.327 57.4323H107.754C107.399 57.4323 107.058 57.5724 106.806 57.8221C106.554 58.0718 106.412 58.4107 106.409 58.765V65.2229C106.406 65.4242 106.449 65.6236 106.536 65.8053C106.624 65.9869 106.752 66.1458 106.911 66.2694C112.656 70.6611 119.036 66.1889 120.085 63.7918C120.864 62.0566 121.958 61.7167 122.504 61.663C123.051 61.6093 124.144 62.0566 124.933 63.7918C125.99 66.1531 132.371 70.6164 138.142 66.2694C138.301 66.1458 138.43 65.9869 138.517 65.8053C138.604 65.6236 138.647 65.4242 138.644 65.2229V58.765C138.644 58.4146 138.506 58.0783 138.259 57.8289C138.013 57.5795 137.678 57.437 137.327 57.4323Z" fill="#0D1019"/>
<path d="M108.65 58.3267H107.727V60.0441H108.65V58.3267Z" fill="white"/>
<path d="M108.65 64.5431V66.4662C108.339 66.3177 108.04 66.1474 107.754 65.9563V64.5431H108.65Z" fill="#DC2028"/>
<path d="M110.442 58.3267H109.519V60.5092H110.442V58.3267Z" fill="#DC2028"/>
<path d="M112.234 59.3195H111.311V60.5092H112.234V59.3195Z" fill="#DC2028"/>
<path d="M126.573 62.7721H125.65V63.9528H126.573V62.7721Z" fill="#DC2028"/>
<path d="M108.65 61.7614H107.727V62.942H108.65V61.7614Z" fill="#DC2028"/>
<path d="M131.95 64.6862H131.027V65.8669H131.95V64.6862Z" fill="#DC2028"/>
<path d="M133.742 61.1711H132.819V62.3517H133.742V61.1711Z" fill="white"/>
<path d="M133.742 66.5109V67.1191L132.819 67.1996V66.5109H133.742Z" fill="#DC2028"/>
<path d="M112.234 63.3624H111.311V64.5431H112.234V63.3624Z" fill="white"/>
<path d="M114.027 58.8902H113.104V62.1192H114.027V58.8902Z" fill="#DC2028"/>
<path d="M114.027 66.4841V66.9134C113.732 66.9977 113.433 67.0634 113.13 67.1102V66.4841H114.027Z" fill="#DC2028"/>
<path d="M115.819 58.3267H114.896V59.3196H115.819V58.3267Z" fill="#DC2028"/>
<path d="M117.611 58.3267H116.688V60.0441H117.611V58.3267Z" fill="#DC2028"/>
<path d="M117.611 61.7524H116.688V62.9331H117.611V61.7524Z" fill="white"/>
<path d="M119.404 58.3267H118.48V61.0906H119.404V58.3267Z" fill="#DC2028"/>
<path d="M119.404 62.1997H118.48V63.3982H119.404V62.1997Z" fill="#DC2028"/>
<path d="M121.196 58.3267H120.273V59.1854H121.196V58.3267Z" fill="#DC2028"/>
<path d="M124.78 58.3267H123.857V60.0441H124.78V58.3267Z" fill="white"/>
<path d="M126.573 59.3195H125.65V60.0172H126.573V59.3195Z" fill="#DC2028"/>
<path d="M128.365 58.4251H127.442V61.663H128.365V58.4251Z" fill="#DC2028"/>
<path d="M128.365 65.4823V66.0547C128.042 65.8758 127.738 65.679 127.469 65.4823H128.365Z" fill="#DC2028"/>
<path d="M130.157 58.3267H129.234V60.0441H130.157V58.3267Z" fill="#DC2028"/>
<path d="M130.157 61.1532H129.234V66.5109H130.157V61.1532Z" fill="#DC2028"/>
<path d="M131.95 58.3267H131.027V63.8276H131.95V58.3267Z" fill="#DC2028"/>
<path d="M133.742 58.3267H132.819V58.4251H133.742V58.3267Z" fill="#DC2028"/>
<path d="M135.534 58.3267H134.611V60.0441H135.534V58.3267Z" fill="#DC2028"/>
<path d="M135.534 65.2944V66.6361C135.242 66.7597 134.943 66.8672 134.638 66.9581V65.2944H135.534Z" fill="#DC2028"/>
<path d="M137.327 58.4162V60.0441H136.43V58.3267H137.085C137.172 58.3327 137.256 58.3638 137.327 58.4162Z" fill="#DC2028"/>
<path d="M137.327 62.9331V65.5717L136.439 66.1621H136.404V62.9331H137.327Z" fill="#DC2028"/>
<path d="M126.743 85.2674C126.924 85.2674 127.097 85.339 127.225 85.4665C127.352 85.594 127.424 85.7669 127.424 85.9472V92.0562H126.062V85.9472C126.062 85.7669 126.134 85.594 126.261 85.4665C126.389 85.339 126.562 85.2674 126.743 85.2674Z" fill="white"/>
<path d="M117.997 85.2674C118.177 85.2674 118.35 85.339 118.478 85.4665C118.606 85.594 118.678 85.7669 118.678 85.9472V92.0562H117.316V85.9472C117.316 85.7669 117.387 85.594 117.515 85.4665C117.643 85.339 117.816 85.2674 117.997 85.2674Z" fill="white"/>
<path d="M86.8463 60.4913C88.7666 60.4913 90.3234 58.9375 90.3234 57.0208C90.3234 55.1042 88.7666 53.5504 86.8463 53.5504C84.9259 53.5504 83.3692 55.1042 83.3692 57.0208C83.3692 58.9375 84.9259 60.4913 86.8463 60.4913Z" fill="#0D1019"/>
<path d="M92.8505 61.5557C93.7463 61.5557 94.4725 60.8308 94.4725 59.9367C94.4725 59.0426 93.7463 58.3178 92.8505 58.3178C91.9547 58.3178 91.2285 59.0426 91.2285 59.9367C91.2285 60.8308 91.9547 61.5557 92.8505 61.5557Z" fill="#0D1019"/>
<path d="M76.5226 53.8097C81.6501 53.8097 85.8067 49.661 85.8067 44.5433C85.8067 39.4256 81.6501 35.2769 76.5226 35.2769C71.3951 35.2769 67.2384 39.4256 67.2384 44.5433C67.2384 49.661 71.3951 53.8097 76.5226 53.8097Z" fill="#0D1019"/>
<path d="M78.3776 42.1552L83.6291 45.2231L78.3776 48.5683V46.4038L80.0982 45.3573L78.3776 44.4092V42.1552Z" fill="#DC2028"/>
<path d="M74.4883 40.5273L69.2368 43.5952L74.4883 46.9404V44.7759L72.7677 43.7383L74.4883 42.7813V40.5273Z" fill="#DC2028"/>
<path d="M76.7466 40.5273L74.9364 48.5683H76.2L78.1536 40.5273H76.7466Z" fill="#DC2028"/>
<path d="M152.068 93.4695H92.5637C91.7718 93.4695 91.1299 94.1102 91.1299 94.9006V128.845C91.1299 129.635 91.7718 130.276 92.5637 130.276H152.068C152.86 130.276 153.502 129.635 153.502 128.845V94.9006C153.502 94.1102 152.86 93.4695 152.068 93.4695Z" fill="white"/>
<path d="M86.9269 126.805H157.723C157.723 127.723 157.358 128.604 156.707 129.253C156.057 129.902 155.175 130.267 154.255 130.267H90.3771C89.4604 130.262 88.5829 129.895 87.9364 129.247C87.2898 128.598 86.9269 127.72 86.9269 126.805Z" fill="white"/>
<path d="M122.316 116.68C125.385 116.68 127.872 114.197 127.872 111.135C127.872 108.072 125.385 105.589 122.316 105.589C119.247 105.589 116.76 108.072 116.76 111.135C116.76 114.197 119.247 116.68 122.316 116.68Z" fill="#0D1019"/>
<path d="M123.857 106.063C123.348 106.118 122.837 106.145 122.325 106.144C121.81 106.145 121.296 106.118 120.784 106.063C121.509 105.553 121.832 104.856 122.074 103.299C122.085 103.242 122.116 103.191 122.161 103.153C122.206 103.116 122.262 103.096 122.321 103.096C122.379 103.096 122.435 103.116 122.48 103.153C122.525 103.191 122.556 103.242 122.567 103.299C122.773 104.856 123.132 105.544 123.857 106.063Z" fill="#0D1019"/>
<path d="M122.316 103.63C122.841 103.63 123.266 103.442 123.266 103.21C123.266 102.978 122.841 102.79 122.316 102.79C121.791 102.79 121.366 102.978 121.366 103.21C121.366 103.442 121.791 103.63 122.316 103.63Z" fill="#0D1019"/>
<path d="M123.857 106.063C123.348 106.118 122.837 106.145 122.325 106.144C121.81 106.145 121.296 106.118 120.784 106.063C121.509 105.553 121.832 104.856 122.074 103.299C122.085 103.242 122.116 103.191 122.161 103.153C122.206 103.116 122.262 103.096 122.321 103.096C122.379 103.096 122.435 103.116 122.48 103.153C122.525 103.191 122.556 103.242 122.567 103.299C122.773 104.856 123.132 105.544 123.857 106.063Z" fill="#0D1019"/>
<path d="M128.312 106.496C128.476 106.332 128.309 105.899 127.938 105.529C127.567 105.158 127.133 104.991 126.968 105.155C126.804 105.32 126.971 105.753 127.342 106.123C127.713 106.493 128.147 106.66 128.312 106.496Z" fill="#0D1019"/>
<path d="M126.707 108.917C126.308 108.599 125.928 108.258 125.569 107.897C125.204 107.535 124.86 107.153 124.538 106.752C125.435 106.904 126.134 106.636 127.406 105.705C127.455 105.672 127.513 105.656 127.572 105.661C127.631 105.666 127.686 105.692 127.728 105.733C127.769 105.775 127.795 105.83 127.8 105.889C127.805 105.947 127.79 106.006 127.756 106.054C126.815 107.333 126.555 108.049 126.707 108.917Z" fill="#0D1019"/>
<path d="M130.247 112.083C130.48 112.083 130.668 111.658 130.668 111.135C130.668 110.611 130.48 110.187 130.247 110.187C130.014 110.187 129.826 110.611 129.826 111.135C129.826 111.658 130.014 112.083 130.247 112.083Z" fill="#0D1019"/>
<path d="M127.388 112.7C127.334 112.192 127.307 111.681 127.308 111.17C127.307 110.657 127.334 110.143 127.388 109.632C127.899 110.357 128.598 110.679 130.157 110.92C130.215 110.931 130.266 110.962 130.304 111.006C130.341 111.051 130.361 111.108 130.361 111.166C130.361 111.224 130.341 111.281 130.304 111.326C130.266 111.37 130.215 111.401 130.157 111.412C128.598 111.618 127.899 111.949 127.388 112.7Z" fill="#0D1019"/>
<path d="M127.938 116.749C128.309 116.379 128.477 115.946 128.312 115.782C128.148 115.618 127.714 115.785 127.343 116.155C126.972 116.525 126.804 116.958 126.969 117.123C127.133 117.287 127.567 117.12 127.938 116.749Z" fill="#0D1019"/>
<path d="M124.565 115.518C124.887 115.12 125.231 114.74 125.596 114.382C125.956 114.015 126.339 113.671 126.743 113.353C126.591 114.247 126.851 114.945 127.783 116.215C127.813 116.263 127.826 116.319 127.82 116.375C127.814 116.431 127.789 116.483 127.75 116.524C127.711 116.564 127.659 116.59 127.603 116.597C127.547 116.604 127.49 116.593 127.442 116.564C126.134 115.625 125.408 115.383 124.565 115.518Z" fill="#0D1019"/>
<path d="M122.316 119.471C122.841 119.471 123.266 119.283 123.266 119.051C123.266 118.818 122.841 118.63 122.316 118.63C121.791 118.63 121.366 118.818 121.366 119.051C121.366 119.283 121.791 119.471 122.316 119.471Z" fill="#0D1019"/>
<path d="M120.775 116.197C121.284 116.143 121.795 116.116 122.307 116.117C122.822 116.116 123.336 116.143 123.848 116.197C123.123 116.707 122.8 117.405 122.558 118.961C122.547 119.018 122.516 119.07 122.471 119.107C122.426 119.144 122.37 119.164 122.312 119.164C122.253 119.164 122.197 119.144 122.152 119.107C122.107 119.07 122.076 119.018 122.065 118.961C121.877 117.405 121.501 116.707 120.775 116.197Z" fill="#0D1019"/>
<path d="M117.379 117.403C117.543 117.238 117.376 116.805 117.005 116.435C116.634 116.065 116.2 115.898 116.035 116.062C115.871 116.226 116.038 116.659 116.409 117.029C116.78 117.4 117.214 117.567 117.379 117.403Z" fill="#0D1019"/>
<path d="M117.638 113.594C118.035 113.918 118.415 114.261 118.776 114.623C119.146 114.98 119.49 115.363 119.807 115.768C118.911 115.616 118.212 115.875 116.939 116.806C116.891 116.839 116.832 116.855 116.773 116.85C116.714 116.845 116.659 116.819 116.618 116.778C116.576 116.736 116.55 116.681 116.545 116.622C116.54 116.564 116.556 116.505 116.59 116.457C117.531 115.231 117.79 114.489 117.638 113.594Z" fill="#0D1019"/>
<path d="M114.797 112.083C115.03 112.083 115.219 111.658 115.219 111.135C115.219 110.611 115.03 110.187 114.797 110.187C114.565 110.187 114.376 110.611 114.376 111.135C114.376 111.658 114.565 112.083 114.797 112.083Z" fill="#0D1019"/>
<path d="M117.656 109.596C117.711 110.104 117.738 110.615 117.737 111.126C117.738 111.64 117.711 112.153 117.656 112.664C117.145 111.94 116.446 111.618 114.887 111.376C114.83 111.365 114.778 111.335 114.741 111.29C114.704 111.245 114.683 111.189 114.683 111.13C114.683 111.072 114.704 111.016 114.741 110.971C114.778 110.926 114.83 110.895 114.887 110.884C116.446 110.652 117.145 110.321 117.656 109.596Z" fill="#0D1019"/>
<path d="M117.005 105.822C117.376 105.452 117.543 105.018 117.379 104.854C117.214 104.69 116.78 104.857 116.409 105.227C116.038 105.598 115.871 106.031 116.035 106.195C116.2 106.359 116.634 106.192 117.005 105.822Z" fill="#0D1019"/>
<path d="M119.816 106.439C119.492 106.835 119.148 107.214 118.785 107.575C118.423 107.939 118.04 108.283 117.638 108.603C117.79 107.709 117.522 107.011 116.59 105.741C116.556 105.693 116.54 105.634 116.545 105.576C116.55 105.517 116.576 105.462 116.618 105.42C116.659 105.379 116.714 105.353 116.773 105.348C116.832 105.343 116.891 105.359 116.939 105.392C118.212 106.358 118.938 106.618 119.816 106.439Z" fill="#0D1019"/>
<path d="M150.419 88.0491L141.718 103.094C141.521 103.432 141.417 103.816 141.416 104.207C141.415 104.598 141.518 104.983 141.713 105.322C141.908 105.661 142.19 105.943 142.529 106.139C142.868 106.335 143.253 106.438 143.645 106.439H161.057C161.449 106.44 161.835 106.337 162.176 106.142C162.516 105.947 162.799 105.665 162.995 105.326C163.191 104.986 163.294 104.601 163.294 104.209C163.294 103.817 163.19 103.433 162.992 103.094L154.282 88.0491C154.086 87.7111 153.804 87.4305 153.465 87.2354C153.126 87.0404 152.742 86.9377 152.351 86.9377C151.959 86.9377 151.575 87.0404 151.236 87.2354C150.897 87.4305 150.615 87.7111 150.419 88.0491Z" fill="#DC2028"/>
<path d="M151.1 102.727C151.086 102.558 151.107 102.388 151.162 102.227C151.217 102.066 151.304 101.919 151.419 101.794C151.534 101.669 151.674 101.569 151.83 101.501C151.985 101.432 152.154 101.397 152.324 101.397C152.494 101.397 152.662 101.432 152.818 101.501C152.973 101.569 153.113 101.669 153.228 101.794C153.343 101.919 153.431 102.066 153.486 102.227C153.541 102.388 153.562 102.558 153.547 102.727C153.562 102.896 153.541 103.066 153.486 103.227C153.431 103.388 153.343 103.535 153.228 103.66C153.113 103.785 152.973 103.885 152.818 103.953C152.662 104.022 152.494 104.057 152.324 104.057C152.154 104.057 151.985 104.022 151.83 103.953C151.674 103.885 151.534 103.785 151.419 103.66C151.304 103.535 151.217 103.388 151.162 103.227C151.107 103.066 151.086 102.896 151.1 102.727ZM153.448 92.1904C153.448 92.7002 153.341 94.1671 153.153 96.8862L152.929 100.026C152.915 100.175 152.846 100.314 152.735 100.415C152.624 100.516 152.479 100.572 152.328 100.571C152.177 100.572 152.031 100.517 151.918 100.416C151.805 100.315 151.734 100.176 151.719 100.026L151.504 96.8862C151.316 94.2029 151.163 92.7002 151.199 92.1904C151.235 91.6806 151.665 91.4301 152.328 91.4301C152.991 91.4301 153.413 91.6448 153.448 92.1904Z" fill="white"/>
</svg>
