<svg width="230" height="159" viewBox="0 0 230 159" fill="none" xmlns="http://www.w3.org/2000/svg">
<path d="M142.759 44.361H72.0431C65.6723 44.361 60.5077 49.5181 60.5077 55.8797V94.1898C60.5077 100.551 65.6723 105.708 72.0431 105.708H142.759C149.13 105.708 154.295 100.551 154.295 94.1898V55.8797C154.295 49.5181 149.13 44.361 142.759 44.361Z" fill="#DC2028"/>
<path d="M146.2 65.3225H68.6019V70.967H146.2V65.3225Z" fill="white"/>
<path d="M133.418 59.1833H81.3846C80.6808 59.1833 80.0058 58.9041 79.5081 58.4072C79.0104 57.9102 78.7308 57.2362 78.7308 56.5333V55.4733C78.7308 54.7705 79.0104 54.0965 79.5081 53.5995C80.0058 53.1025 80.6808 52.8233 81.3846 52.8233H133.842C134.429 52.8233 134.991 53.056 135.406 53.4701C135.821 53.8843 136.054 54.446 136.054 55.0317V56.5333C136.054 57.2331 135.777 57.9045 135.283 58.4009C134.789 58.8974 134.118 59.1787 133.418 59.1833ZM81.3846 53.7155C80.9154 53.7155 80.4654 53.9016 80.1336 54.2329C79.8018 54.5643 79.6154 55.0136 79.6154 55.4822V56.5333C79.6154 57.0019 79.8018 57.4512 80.1336 57.7826C80.4654 58.1139 80.9154 58.3 81.3846 58.3H133.418C133.887 58.3 134.337 58.1139 134.669 57.7826C135.001 57.4512 135.187 57.0019 135.187 56.5333V55.0317C135.187 54.6803 135.047 54.3432 134.798 54.0947C134.549 53.8463 134.212 53.7067 133.86 53.7067L81.3846 53.7155Z" fill="white"/>
<path d="M123.935 75.0392H90.8765V77.4418H123.935V75.0392Z" fill="white"/>
<path d="M129.95 86.1692H84.8523V96.0802H129.95V86.1692Z" fill="white"/>
<path d="M72.3438 58.088C71.8785 58.088 71.4235 57.9502 71.0365 57.692C70.6496 57.4338 70.348 57.0669 70.1699 56.6375C69.9918 56.2082 69.9452 55.7357 70.036 55.2799C70.1268 54.8242 70.3509 54.4055 70.68 54.0769C71.0091 53.7483 71.4283 53.5245 71.8848 53.4338C72.3412 53.3432 72.8144 53.3897 73.2443 53.5675C73.6743 53.7454 74.0418 54.0465 74.3004 54.4329C74.5589 54.8193 74.6969 55.2736 74.6969 55.7383C74.6946 56.3608 74.4459 56.9571 74.0052 57.3972C73.5644 57.8374 72.9672 58.0857 72.3438 58.088ZM72.3438 54.2013C72.039 54.1996 71.7406 54.2882 71.4863 54.4561C71.232 54.6239 71.0333 54.8633 70.9155 55.144C70.7976 55.4247 70.7659 55.734 70.8243 56.0327C70.8827 56.3315 71.0286 56.6062 71.2435 56.822C71.4584 57.0378 71.7326 57.1851 72.0314 57.2451C72.3303 57.3052 72.6402 57.2752 72.922 57.1592C73.2038 57.0431 73.4447 56.8461 73.6142 56.5932C73.7837 56.3402 73.8742 56.0427 73.8742 55.7383C73.8742 55.3322 73.7133 54.9426 73.4265 54.6546C73.1398 54.3666 72.7505 54.2037 72.3438 54.2013Z" fill="white"/>
<path d="M75.1923 59.1215C75.137 59.1214 75.0824 59.1095 75.032 59.0867C74.9817 59.0638 74.9368 59.0305 74.9004 58.989L73.4231 57.4167C73.3781 57.3804 73.3414 57.3349 73.3154 57.2833C73.2894 57.2317 73.2748 57.1751 73.2724 57.1174C73.27 57.0597 73.28 57.0022 73.3017 56.9486C73.3233 56.895 73.3562 56.8467 73.398 56.8068C73.4399 56.767 73.4897 56.7364 73.5443 56.7173C73.5989 56.6982 73.6569 56.6909 73.7146 56.696C73.7722 56.701 73.8281 56.7183 73.8785 56.7466C73.9289 56.7749 73.9727 56.8136 74.0069 56.8602L75.5019 58.4237C75.576 58.5009 75.6173 58.6038 75.6173 58.7108C75.6173 58.8177 75.576 58.9206 75.5019 58.9978C75.4627 59.0401 75.4146 59.0731 75.361 59.0945C75.3075 59.1159 75.2499 59.1251 75.1923 59.1215Z" fill="white"/>
<path d="M160.257 34.9358C160.995 34.9358 161.593 34.3386 161.593 33.602C161.593 32.8653 160.995 32.2682 160.257 32.2682C159.519 32.2682 158.921 32.8653 158.921 33.602C158.921 34.3386 159.519 34.9358 160.257 34.9358Z" fill="#DC2028"/>
<path d="M156.143 39.0433C156.881 39.0433 157.479 38.4462 157.479 37.7095C157.479 36.9728 156.881 36.3757 156.143 36.3757C155.406 36.3757 154.808 36.9728 154.808 37.7095C154.808 38.4462 155.406 39.0433 156.143 39.0433Z" fill="#DC2028"/>
<path d="M152.03 43.1508C152.768 43.1508 153.366 42.5536 153.366 41.817C153.366 41.0803 152.768 40.4832 152.03 40.4832C151.292 40.4832 150.694 41.0803 150.694 41.817C150.694 42.5536 151.292 43.1508 152.03 43.1508Z" fill="#DC2028"/>
<path d="M164.211 38.8755C164.949 38.8755 165.547 38.2783 165.547 37.5417C165.547 36.805 164.949 36.2078 164.211 36.2078C163.473 36.2078 162.875 36.805 162.875 37.5417C162.875 38.2783 163.473 38.8755 164.211 38.8755Z" fill="#DC2028"/>
<path d="M160.098 42.983C160.835 42.983 161.433 42.3858 161.433 41.6492C161.433 40.9125 160.835 40.3153 160.098 40.3153C159.36 40.3153 158.762 40.9125 158.762 41.6492C158.762 42.3858 159.36 42.983 160.098 42.983Z" fill="#DC2028"/>
<path d="M155.975 47.0905C156.713 47.0905 157.311 46.4933 157.311 45.7567C157.311 45.02 156.713 44.4228 155.975 44.4228C155.238 44.4228 154.64 45.02 154.64 45.7567C154.64 46.4933 155.238 47.0905 155.975 47.0905Z" fill="#DC2028"/>
<path d="M168.157 42.8152C168.894 42.8152 169.492 42.218 169.492 41.4813C169.492 40.7447 168.894 40.1475 168.157 40.1475C167.419 40.1475 166.821 40.7447 166.821 41.4813C166.821 42.218 167.419 42.8152 168.157 42.8152Z" fill="#DC2028"/>
<path d="M164.043 46.9227C164.781 46.9227 165.379 46.3255 165.379 45.5888C165.379 44.8522 164.781 44.255 164.043 44.255C163.305 44.255 162.707 44.8522 162.707 45.5888C162.707 46.3255 163.305 46.9227 164.043 46.9227Z" fill="#DC2028"/>
<path d="M163.203 52.6643H129.888C128.115 52.6643 126.677 54.0999 126.677 55.8708V121.803C126.677 123.574 128.115 125.009 129.888 125.009H163.203C164.976 125.009 166.414 123.574 166.414 121.803V55.8708C166.414 54.0999 164.976 52.6643 163.203 52.6643Z" fill="white"/>
<path d="M162.946 50.721H130.109C128.957 50.721 127.853 51.178 127.038 51.9913C126.223 52.8047 125.766 53.9079 125.766 55.0582V122.404C125.766 123.554 126.223 124.657 127.038 125.47C127.853 126.284 128.957 126.741 130.109 126.741H162.946C164.098 126.741 165.203 126.284 166.017 125.47C166.832 124.657 167.29 123.554 167.29 122.404V55.0582C167.29 53.9079 166.832 52.8047 166.017 51.9913C165.203 51.178 164.098 50.721 162.946 50.721ZM165.423 121.061C165.423 122.108 165.006 123.112 164.265 123.853C163.523 124.593 162.518 125.009 161.469 125.009H131.604C130.556 125.009 129.55 124.593 128.808 123.853C128.067 123.112 127.65 122.108 127.65 121.061V56.9662C127.648 56.4462 127.748 55.9308 127.946 55.4497C128.144 54.9686 128.434 54.5313 128.802 54.1627C129.169 53.7942 129.606 53.5018 130.087 53.3023C130.568 53.1027 131.083 53 131.604 53H135.293L136.726 54.9168C137.078 55.3947 137.536 55.7846 138.064 56.0559C138.592 56.3272 139.175 56.4725 139.769 56.4803H153.835C154.431 56.4797 155.018 56.3404 155.551 56.0736C156.084 55.8069 156.547 55.4199 156.904 54.9433L158.346 53H161.46C161.982 52.9988 162.498 53.1007 162.98 53.2997C163.462 53.4987 163.9 53.791 164.268 54.1596C164.636 54.5282 164.928 54.966 165.126 55.4477C165.325 55.9294 165.425 56.4454 165.423 56.9662V121.061Z" fill="#393939"/>
<path d="M158.284 102.838H134.762C134.411 102.838 134.125 103.122 134.125 103.474V107.961C134.125 108.312 134.411 108.597 134.762 108.597H158.284C158.636 108.597 158.921 108.312 158.921 107.961V103.474C158.921 103.122 158.636 102.838 158.284 102.838Z" fill="#DC2028"/>
<path d="M137.814 91.8667V94.7463L135.877 96.8663C136.404 97.3538 137.096 97.625 137.814 97.626C138.193 97.626 138.568 97.5515 138.918 97.4068C139.268 97.2621 139.586 97.05 139.853 96.7826C140.121 96.5152 140.334 96.1977 140.479 95.8483C140.623 95.499 140.698 95.1245 140.698 94.7463C140.698 94.3682 140.623 93.9937 140.479 93.6443C140.334 93.295 140.121 92.9775 139.853 92.7101C139.586 92.4427 139.268 92.2306 138.918 92.0859C138.568 91.9412 138.193 91.8667 137.814 91.8667Z" fill="#DC2028"/>
<path d="M146.05 91.8667V94.7463H143.166C143.166 95.3159 143.335 95.8726 143.652 96.3462C143.969 96.8198 144.419 97.1888 144.946 97.4068C145.473 97.6248 146.053 97.6818 146.613 97.5707C147.172 97.4596 147.686 97.1853 148.089 96.7826C148.493 96.3798 148.767 95.8667 148.878 95.3081C148.99 94.7495 148.933 94.1705 148.714 93.6443C148.496 93.1181 148.126 92.6684 147.652 92.352C147.178 92.0356 146.62 91.8667 146.05 91.8667Z" fill="#DC2028"/>
<path d="M154.295 91.8667V94.7463L152.083 92.9178C151.669 93.4225 151.439 94.0531 151.432 94.7056C151.425 95.3581 151.64 95.9935 152.043 96.5073C152.446 97.0211 153.012 97.3825 153.648 97.532C154.284 97.6814 154.952 97.6101 155.542 97.3296C156.132 97.0492 156.609 96.5764 156.894 95.9891C157.179 95.4019 157.255 94.7353 157.11 94.0991C156.964 93.4629 156.606 92.8951 156.095 92.4893C155.583 92.0835 154.948 91.8639 154.295 91.8667Z" fill="#DC2028"/>
<path d="M156.63 80.6042H135.771C135.28 80.6042 134.81 80.4097 134.463 80.0634C134.117 79.7172 133.922 79.2476 133.922 78.758C133.922 78.2684 134.117 77.7988 134.463 77.4526C134.81 77.1063 135.28 76.9118 135.771 76.9118H156.63C157.12 76.9118 157.591 77.1063 157.937 77.4526C158.284 77.7988 158.479 78.2684 158.479 78.758C158.479 79.2476 158.284 79.7172 157.937 80.0634C157.591 80.4097 157.12 80.6042 156.63 80.6042ZM135.771 77.486C135.433 77.486 135.109 77.62 134.87 77.8586C134.631 78.0971 134.497 78.4206 134.497 78.758C134.497 79.0954 134.631 79.4189 134.87 79.6574C135.109 79.896 135.433 80.03 135.771 80.03H156.63C156.968 80.03 157.292 79.896 157.531 79.6574C157.77 79.4189 157.904 79.0954 157.904 78.758C157.904 78.4206 157.77 78.0971 157.531 77.8586C157.292 77.62 156.968 77.486 156.63 77.486H135.771Z" fill="#DC2028"/>
<path d="M149.96 85.9572H142.423C141.954 85.9248 141.514 85.7157 141.193 85.3722C140.872 85.0288 140.693 84.5764 140.693 84.1066C140.693 83.6368 140.872 83.1844 141.193 82.8409C141.514 82.4975 141.954 82.2884 142.423 82.256H149.942C150.412 82.2884 150.851 82.4975 151.172 82.8409C151.493 83.1844 151.672 83.6368 151.672 84.1066C151.672 84.5764 151.493 85.0288 151.172 85.3722C150.851 85.7157 150.412 85.9248 149.942 85.9572H149.96ZM142.423 82.8302C142.102 82.8568 141.803 83.0029 141.586 83.2393C141.368 83.4757 141.247 83.7853 141.247 84.1066C141.247 84.4279 141.368 84.7375 141.586 84.9739C141.803 85.2103 142.102 85.3564 142.423 85.383H149.942C150.263 85.3564 150.562 85.2103 150.78 84.9739C150.998 84.7375 151.119 84.4279 151.119 84.1066C151.119 83.7853 150.998 83.4757 150.78 83.2393C150.562 83.0029 150.263 82.8568 149.942 82.8302H142.423Z" fill="#DC2028"/>
<path d="M161.203 58.9272C162.107 58.9272 162.84 58.1955 162.84 57.293C162.84 56.3905 162.107 55.6588 161.203 55.6588C160.3 55.6588 159.567 56.3905 159.567 57.293C159.567 58.1955 160.3 58.9272 161.203 58.9272Z" fill="#DC2028"/>
<path d="M134.86 55.6588H129.95V58.9272H134.86V55.6588Z" fill="#DC2028"/>
<path d="M73.6796 124.453C72.8812 124.452 72.0909 124.293 71.3539 123.987C70.6169 123.68 69.9478 123.231 69.3849 122.666C68.822 122.1 68.3763 121.429 68.0735 120.692C67.7706 119.954 67.6165 119.164 67.62 118.367V97.0077H69.3892V118.367C69.3892 119.515 69.8459 120.616 70.6588 121.427C71.4717 122.239 72.5742 122.695 73.7238 122.695C74.8735 122.695 75.976 122.239 76.7889 121.427C77.6018 120.616 78.0585 119.515 78.0585 118.367V110.955C78.0585 109.348 78.6978 107.807 79.8359 106.671C80.9739 105.534 82.5175 104.896 84.1269 104.896C85.7364 104.896 87.2799 105.534 88.418 106.671C89.556 107.807 90.1954 109.348 90.1954 110.955V115.77C90.1954 116.918 90.6521 118.019 91.465 118.83C92.2779 119.642 93.3804 120.098 94.53 120.098C95.6796 120.098 96.7821 119.642 97.595 118.83C98.4079 118.019 98.8646 116.918 98.8646 115.77V108.385C98.8334 107.57 98.9672 106.758 99.2579 105.996C99.5486 105.234 99.9903 104.539 100.556 103.951C101.123 103.364 101.802 102.897 102.553 102.578C103.304 102.259 104.112 102.094 104.929 102.094C105.745 102.094 106.553 102.259 107.304 102.578C108.056 102.897 108.735 103.364 109.301 103.951C109.867 104.539 110.309 105.234 110.599 105.996C110.89 106.758 111.024 107.57 110.993 108.385V113.491C111.043 114.606 111.522 115.659 112.331 116.43C113.139 117.202 114.214 117.632 115.332 117.632C116.45 117.632 117.525 117.202 118.333 116.43C119.141 115.659 119.62 114.606 119.671 113.491V106.079C119.671 104.474 120.309 102.934 121.445 101.798C122.581 100.662 124.122 100.022 125.73 100.02V101.786C124.581 101.789 123.48 102.246 122.668 103.057C121.856 103.868 121.398 104.968 121.396 106.115V113.526C121.427 114.341 121.293 115.153 121.002 115.915C120.712 116.677 120.27 117.372 119.704 117.96C119.138 118.547 118.459 119.014 117.707 119.333C116.956 119.652 116.148 119.817 115.332 119.817C114.515 119.817 113.707 119.652 112.956 119.333C112.205 119.014 111.526 118.547 110.96 117.96C110.393 117.372 109.952 116.677 109.661 115.915C109.37 115.153 109.237 114.341 109.268 113.526V108.385C109.268 107.237 108.811 106.136 107.998 105.324C107.185 104.513 106.083 104.057 104.933 104.057C103.783 104.057 102.681 104.513 101.868 105.324C101.055 106.136 100.598 107.237 100.598 108.385V115.796C100.598 116.592 100.441 117.38 100.137 118.115C99.8316 118.85 99.3846 119.518 98.821 120.081C98.2575 120.644 97.5886 121.09 96.8523 121.395C96.116 121.699 95.3269 121.856 94.53 121.856C93.7331 121.856 92.944 121.699 92.2077 121.395C91.4714 121.09 90.8025 120.644 90.2389 120.081C89.6754 119.518 89.2284 118.85 88.9235 118.115C88.6185 117.38 88.4615 116.592 88.4615 115.796V110.982C88.4615 109.834 88.0049 108.733 87.192 107.921C86.3791 107.11 85.2765 106.654 84.1269 106.654C82.9773 106.654 81.8748 107.11 81.0619 107.921C80.249 108.733 79.7923 109.834 79.7923 110.982V118.367C79.7947 119.168 79.638 119.962 79.3314 120.703C79.0249 121.443 78.5744 122.116 78.0061 122.682C77.4378 123.248 76.7629 123.695 76.0203 123.999C75.2777 124.303 74.4822 124.457 73.6796 124.453Z" fill="#393939"/>
<path d="M68.4781 93.0238C68.8153 93.0326 69.1426 93.1399 69.4194 93.3325C69.6962 93.5251 69.9104 93.7945 70.0354 94.1073C70.1604 94.4202 70.1909 94.7628 70.1229 95.0928C70.0549 95.4227 69.8916 95.7256 69.653 95.9638C69.4145 96.202 69.1112 96.3651 68.7808 96.433C68.4503 96.5008 68.1072 96.4704 67.7939 96.3456C67.4806 96.2207 67.2108 96.0069 67.0179 95.7305C66.8251 95.4541 66.7176 95.1273 66.7089 94.7905C66.7089 94.322 66.8953 93.8726 67.227 93.5413C67.5588 93.21 68.0089 93.0238 68.4781 93.0238ZM68.4781 90.7272C67.681 90.7324 66.9034 90.9733 66.2434 91.4195C65.5833 91.8657 65.0704 92.4971 64.7694 93.2341C64.4685 93.971 64.3929 94.7805 64.5522 95.5604C64.7116 96.3402 65.0987 97.0554 65.6648 97.6158C66.2308 98.1761 66.9505 98.5564 67.7328 98.7087C68.5151 98.861 69.3251 98.7784 70.0605 98.4714C70.7959 98.1644 71.4237 97.6468 71.8647 96.9838C72.3058 96.3208 72.5402 95.5423 72.5385 94.7464C72.5385 94.2178 72.4341 93.6944 72.2312 93.2062C72.0284 92.718 71.7311 92.2746 71.3564 91.9012C70.9818 91.5279 70.537 91.232 70.0476 91.0306C69.5583 90.8291 69.0339 90.726 68.5046 90.7272H68.4781Z" fill="#393939"/>
</svg>
