<svg width="184" height="127" viewBox="0 0 184 127" fill="none" xmlns="http://www.w3.org/2000/svg">
<path d="M92.3397 88.2085C110.362 88.2085 124.971 73.6429 124.971 55.6754C124.971 37.7078 110.362 23.1422 92.3397 23.1422C74.3177 23.1422 59.708 37.7078 59.708 55.6754C59.708 73.6429 74.3177 88.2085 92.3397 88.2085Z" fill="white"/>
<path d="M103.84 82.035C101.108 83.0157 100.379 85.4287 100.252 87.242C97.6631 87.8795 95.0061 88.1994 92.3397 88.1945C90.0706 88.1972 87.8075 87.9607 85.5883 87.4889C85.5149 86.9956 85.3312 86.5252 85.0506 86.1123C84.7701 85.6995 84.4 85.3549 83.9677 85.1041C81.2572 83.432 81.0025 82.9169 80.3514 81.7598C79.7003 80.6027 80.7406 78.0345 79.3252 77.3924C77.9098 76.7503 78.0372 74.041 79.4526 73.0109C80.868 71.9808 81.2572 71.2117 79.8418 71.0847C78.4265 70.9577 76.7421 69.7936 74.1803 69.4126C71.6185 69.0316 70.1606 71.3528 67.9385 70.5556C65.9145 69.85 64.9874 67.1618 61.8169 67.2536C59.3919 60.9021 59.0201 53.9535 60.7536 47.3809C62.4871 40.8082 66.239 34.9407 71.484 30.5999C73.0762 30.2572 74.738 30.4637 76.1972 31.1856C78.0089 32.2157 76.9686 33.6338 78.7732 34.1489C80.5778 34.664 82.6514 33.7608 84.0668 35.814C85.4821 37.8672 84.9726 39.4194 84.9726 41.7336C84.9726 44.0478 86.388 44.3089 86.0058 46.8771C85.6237 49.4453 83.812 49.4594 82.0074 50.7436C80.2028 52.0277 79.2969 53.0578 76.7138 52.4157C74.1308 51.7737 72.7083 53.0578 72.9701 55.118C73.232 57.1782 73.4868 57.1712 72.588 59.3513C71.6892 61.5315 70.0049 62.1736 71.1726 63.7187C72.3403 65.2639 70.2668 67.7122 72.4606 68.1002C74.6545 68.4883 75.4258 67.7122 78.2708 68.9963C81.1157 70.2804 83.3025 70.4074 85.2415 68.9963C87.1806 67.5852 88.1714 67.1971 92.3185 68.3542C96.4655 69.5113 95.1492 68.2202 97.6261 69.1233C100.103 70.0264 99.4308 69.8994 101.872 71.4375C104.314 72.9756 107.293 74.2597 107.293 76.4611C107.293 78.6624 108.489 80.3628 103.84 82.035Z" fill="#DC2028"/>
<path d="M124.356 61.9831C123.705 65.3031 122.53 68.4991 120.874 71.4516C116.04 71.5151 112.608 70.866 111.2 69.6736C109.515 68.2625 112.87 64.6571 109.006 62.8509C105.142 61.0447 100.874 63.1119 96.8689 58.8645C92.8634 54.6171 95.0643 49.9886 97.9092 48.2812C100.754 46.5737 102.424 47.6391 104.986 47.5051C107.548 47.371 109.374 45.9669 112.601 45.9669C115.828 45.9669 117.505 48.7892 120.478 50.7294C123.45 52.6697 124.087 52.0488 123.698 55.6683C123.308 59.2878 122.94 61.1082 124.356 61.9831Z" fill="#DC2028"/>
<path d="M95.9702 23.3398C95.7791 23.7843 95.5597 24.3417 95.3262 25.0402C94.0382 28.8996 90.9385 30.0567 87.3222 29.1536C83.7058 28.2505 84.8735 26.7123 82.4178 26.3313C79.9622 25.9503 79.7074 27.3615 81.3846 28.7796C83.0618 30.1978 85.9068 31.8629 84.2154 32.2721C82.524 32.6813 82.2834 32.2721 78.5538 30.4941C77.071 29.7881 75.5234 29.2257 73.9326 28.8149C80.3839 24.4123 88.2088 22.4714 95.9772 23.3468L95.9702 23.3398Z" fill="#DC2028"/>
<path d="M123.641 46.4326C122.208 46.4209 120.808 46.0077 119.6 45.2402C116.911 43.3933 113.647 42.5696 110.4 42.9189C107.18 43.18 107.3 41.1198 105.75 42.0229C104.201 42.926 104.455 45.3672 102.134 46.0093C99.813 46.6513 98.7797 43.307 99.4237 40.4777C100.068 37.6484 102.134 39.0666 103.67 37.5214C105.206 35.9763 103.153 33.1399 106.642 32.4979C110.131 31.8558 109.997 32.1169 109.735 30.487C109.473 28.8572 108.829 29.6686 106.904 29.0265C104.979 28.3845 103.033 30.3107 101.872 29.0265C100.889 27.94 100.648 26.5007 101.363 24.4052C106.63 25.9223 111.43 28.7344 115.323 32.5833C119.215 36.4321 122.076 41.1943 123.641 46.4326Z" fill="#DC2028"/>
<path d="M126.266 103.392C125.83 103.646 125.345 103.807 124.843 103.863C124.34 103.92 123.832 103.871 123.35 103.72C122.867 103.569 122.422 103.32 122.042 102.988C121.662 102.655 121.356 102.248 121.143 101.791L114.186 85.0618C113.946 84.4903 114.59 83.6013 115.602 83.0721C116.621 82.5429 117.725 82.5147 118.05 83.0721L127.866 98.3192C128.115 98.7525 128.271 99.2326 128.325 99.7291C128.379 100.226 128.33 100.728 128.18 101.205C128.029 101.681 127.782 102.121 127.453 102.498C127.123 102.874 126.719 103.179 126.266 103.392Z" fill="#DC2028"/>
<path d="M120.187 86.6987L115.991 88.9C115.922 88.9391 115.841 88.9498 115.764 88.9301C115.687 88.9103 115.621 88.8616 115.58 88.7942L113.698 84.4056C113.667 84.3312 113.666 84.2481 113.693 84.1725C113.721 84.0969 113.775 84.0341 113.846 83.9964L117.385 82.162C117.456 82.1249 117.538 82.1159 117.616 82.1369C117.693 82.1578 117.76 82.2071 117.802 82.2748L120.35 86.3177C120.365 86.3533 120.373 86.3915 120.372 86.4301C120.372 86.4687 120.364 86.5069 120.349 86.5424C120.334 86.5779 120.312 86.61 120.284 86.6368C120.256 86.6637 120.223 86.6847 120.187 86.6987Z" fill="#0D1019"/>
<path d="M108.779 60.3673C111.408 60.3604 113.948 61.3138 115.919 63.0473C117.89 64.7809 119.156 67.1744 119.477 69.7754C119.798 72.3763 119.152 75.0045 117.662 77.1628C116.171 79.3212 113.939 80.8603 111.387 81.489C108.835 82.1178 106.141 81.7926 103.813 80.575C101.486 79.3575 99.6863 77.3319 98.7552 74.8812C97.824 72.4306 97.8258 69.7247 98.76 67.2753C99.6943 64.8258 101.496 62.8025 103.826 61.5879C105.354 60.79 107.054 60.3713 108.779 60.3673ZM108.779 56.8395C105.665 56.8416 102.638 57.8594 100.158 59.7376C97.6785 61.6157 95.8834 64.2511 95.0467 67.2415C94.2099 70.232 94.3775 73.4132 95.5239 76.2998C96.6702 79.1864 98.7324 81.6197 101.396 83.2286C104.059 84.8375 107.177 85.5334 110.274 85.2103C113.371 84.8871 116.277 83.5627 118.549 81.4389C120.82 79.3152 122.332 76.5089 122.854 73.4482C123.376 70.3876 122.88 67.2407 121.44 64.4878C120.234 62.1809 118.415 60.2488 116.182 58.9024C113.95 57.5561 111.389 56.8474 108.779 56.8537V56.8395Z" fill="#0D1019"/>
<path d="M72.7366 33.2246L75.1711 45.3884C75.2804 45.9286 75.2818 46.485 75.1752 47.0258C75.0685 47.5666 74.856 48.081 74.5496 48.5398C74.2433 48.9986 73.8493 49.3926 73.39 49.6993C72.9307 50.006 72.4153 50.2194 71.8732 50.3273L51.612 54.3278C50.8808 54.4782 50.1223 54.427 49.4181 54.1796C48.7333 53.9377 48.1233 53.5223 47.6481 52.9743C47.1729 52.4264 46.8488 51.7646 46.7077 51.054L44.2378 38.8902C44.142 38.4103 44.1419 37.9162 44.2376 37.4362C44.3334 36.9562 44.523 36.4997 44.7958 36.0928C45.0685 35.6859 45.419 35.3366 45.8272 35.0648C46.2354 34.793 46.6933 34.604 47.1748 34.5087L68.3348 30.2754C69.3075 30.0861 70.3158 30.2876 71.1403 30.836C71.9647 31.3844 72.5385 32.2353 72.7366 33.2035V33.2246Z" fill="#0D1019"/>
<path d="M50.9538 33.7608L44.988 42.6297L44.2378 38.8902C44.142 38.4103 44.1419 37.9162 44.2376 37.4362C44.3334 36.9562 44.523 36.4997 44.7958 36.0928C45.0685 35.6859 45.419 35.3366 45.8272 35.0648C46.2354 34.793 46.6933 34.604 47.1748 34.5087L50.9538 33.7608Z" fill="#DC2028"/>
<path d="M64.9662 30.9668L49.3969 54.1937C48.7142 53.9475 48.1074 53.5287 47.636 52.9783C47.1646 52.4279 46.8447 51.7648 46.7077 51.054L46.4175 49.6429L57.9459 32.3638L64.9662 30.9668Z" fill="#DC2028"/>
<path d="M72.7366 33.2246L73.4018 36.5619L62.9846 52.077L55.9643 53.4882L71.1089 30.868C71.5234 31.1336 71.8808 31.4787 72.1602 31.8833C72.4396 32.2879 72.6356 32.7438 72.7366 33.2246Z" fill="#DC2028"/>
<path d="M74.8031 43.5681L75.1711 45.3884C75.2804 45.9286 75.2818 46.485 75.1752 47.0258C75.0685 47.5665 74.856 48.081 74.5496 48.5398C74.2433 48.9985 73.8492 49.3926 73.39 49.6993C72.9307 50.006 72.4153 50.2194 71.8732 50.3273L70.0615 50.6801L74.8031 43.5681Z" fill="#DC2028"/>
<path d="M68.7169 32.2157L47.5569 36.449C47.3233 36.4927 47.1008 36.5826 46.9024 36.7133C46.7041 36.8441 46.5341 37.013 46.4022 37.2102C46.2703 37.4074 46.1793 37.6289 46.1346 37.8617C46.0898 38.0945 46.0922 38.3338 46.1415 38.5657L48.576 50.7294C48.6326 51.0172 48.7458 51.2909 48.909 51.5348C49.0722 51.7787 49.2822 51.9881 49.527 52.1507C49.7717 52.3133 50.0462 52.4261 50.3349 52.4825C50.6235 52.5389 50.9204 52.5378 51.2086 52.4792L71.4769 48.4011C72.0593 48.2852 72.5718 47.9439 72.9021 47.4519C73.2324 46.9599 73.3536 46.3574 73.2391 45.7764L70.8046 33.6056C70.7124 33.1454 70.4407 32.7406 70.0492 32.48C69.6578 32.2194 69.1786 32.1243 68.7169 32.2157Z" fill="#FAFAFA"/>
<path d="M54.4246 37.6401L51.3501 38.2515C49.8093 38.5579 48.809 40.0501 49.1159 41.5844C49.4229 43.1187 50.9208 44.1141 52.4617 43.8077L55.5362 43.1963C57.0771 42.8899 58.0773 41.3977 57.7704 39.8634C57.4634 38.3291 55.9655 37.3337 54.4246 37.6401Z" fill="#DC2028"/>
<path d="M62.56 37.5144C62.4386 37.51 62.3228 37.462 62.2342 37.3791C62.1456 37.2962 62.0901 37.1841 62.078 37.0636C62.0659 36.9431 62.0981 36.8222 62.1685 36.7235C62.2389 36.6248 62.3428 36.5548 62.4609 36.5266L68.9292 35.2143C68.9933 35.2013 69.0594 35.201 69.1236 35.2135C69.1879 35.226 69.249 35.251 69.3035 35.287C69.3581 35.323 69.405 35.3694 69.4415 35.4235C69.4781 35.4776 69.5036 35.5384 69.5166 35.6023C69.5296 35.6663 69.5299 35.7321 69.5174 35.7961C69.5048 35.8602 69.4798 35.9211 69.4436 35.9755C69.4075 36.0299 69.361 36.0766 69.3067 36.1131C69.2524 36.1495 69.1915 36.175 69.1274 36.1879L62.6591 37.5003L62.56 37.5144Z" fill="#0D1019"/>
<path d="M63.2181 40.0473C63.0962 40.0445 62.9795 39.9975 62.8897 39.9152C62.7999 39.8329 62.7432 39.7208 62.7302 39.5999C62.7173 39.479 62.7488 39.3575 62.8191 39.258C62.8893 39.1586 62.9934 39.0881 63.112 39.0596L67.7757 38.1C67.8425 38.078 67.9133 38.0703 67.9834 38.0773C68.0534 38.0843 68.1212 38.1059 68.1824 38.1407C68.2435 38.1756 68.2966 38.2228 68.3383 38.2794C68.3799 38.336 68.4092 38.4007 68.4241 38.4693C68.4391 38.5379 68.4394 38.6089 68.4251 38.6776C68.4108 38.7463 68.3821 38.8113 68.341 38.8683C68.2999 38.9253 68.2472 38.973 68.1864 39.0084C68.1256 39.0437 68.058 39.066 67.988 39.0737L63.3172 40.0473C63.2845 40.0538 63.2509 40.0538 63.2181 40.0473Z" fill="#0D1019"/>
<path d="M138.913 33.1611H109.119C108.875 33.1611 108.641 33.2577 108.469 33.4297C108.296 33.6018 108.199 33.8351 108.199 34.0783V41.8394L105.014 44.965H138.913C139.034 44.965 139.153 44.9413 139.265 44.8952C139.377 44.8491 139.478 44.7816 139.563 44.6964C139.649 44.6112 139.717 44.5101 139.763 44.3988C139.809 44.2875 139.833 44.1683 139.833 44.0478V34.0924C139.835 33.9708 139.812 33.85 139.767 33.7371C139.722 33.6242 139.654 33.5214 139.569 33.4347C139.483 33.348 139.381 33.2792 139.268 33.2322C139.156 33.1853 139.035 33.1611 138.913 33.1611Z" fill="#0D1019"/>
<path d="M117.859 39.6593L118.567 36.3996H119.89L118.581 41.5149H117.434L116.465 38.2905L115.488 41.5149H114.349L113.04 36.3996H114.363L115.028 39.6522L115.97 36.3996H116.96L117.859 39.6593Z" fill="#FAFAFA"/>
<path d="M125.53 39.6593L126.238 36.3996H127.562L126.252 41.5149H125.106L124.136 38.2905L123.138 41.5149H121.999L120.69 36.3996H122.013L122.678 39.6522L123.62 36.3996H124.61L125.53 39.6593Z" fill="#FAFAFA"/>
<path d="M133.202 39.6593L133.874 36.3996H135.169L133.867 41.5149H132.714L131.744 38.2905L130.767 41.5149H129.628L128.319 36.3996H129.642L130.35 39.6522L131.284 36.3996H132.275L133.202 39.6593Z" fill="#FAFAFA"/>
</svg>
